<svg id="Component_85_28" data-name="Component 85 – 28" xmlns="http://www.w3.org/2000/svg" width="25" height="25" viewBox="0 0 25 25">
  <g id="Group_162357" data-name="Group 162357">
    <path id="Path_177020" data-name="Path 177020" d="M0,0V25H25V0Z" transform="translate(0 0)" fill="#fff"/>
    <path id="Path_177021" data-name="Path 177021" d="M23.116,16.416,25,18.333V14.524Zm-.808-3.3L20.3,15.274l-2-2.157H10.517v6.642h5.567V18.316H12.217V17.157h3.792V15.724H12.217V14.558h3.867V13.117l3.108,3.333-3.108,3.308h2.15l2.025-2.167,2.017,2.167h2.208l-3.117-3.333,3.117-3.308ZM11.658,7.508l.333-.833.333.833.692,1.682h-2.05ZM10.875,5.25l-2.95,6.667H9.858l.517-1.284h3.233l.517,1.284h1.958L13.15,5.25Zm11.3,0L20.891,8.633l-.342.917-.35-.917L18.908,5.25H16.083v6.667h1.7V7.575L17.775,6.7l.333.875,1.625,4.342H21.35l1.633-4.342.317-.867v5.208H25V5.25ZM0,0V25H25V21.049H21.55l-1.275-1.492L18.95,21.049H9.15V13.107H5.917l4.042-9.15h3.933l.95,2.076V3.957h4.883l.817,2.175.8-2.175H25V0Z" fill="#006fcf"/>
  </g>
  <rect id="Rectangle_15517" data-name="Rectangle 15517" width="25" height="25" fill="#425466" style="mix-blend-mode: color;isolation: isolate"/>
</svg>
