<svg id="Component_90_22" data-name="Component 90 – 22" xmlns="http://www.w3.org/2000/svg" width="32.36" height="20.001" viewBox="0 0 32.36 20.001">
  <g id="Group_172500" data-name="Group 172500" transform="translate(-16 -0.29)">
    <path id="Path_164043" data-name="Path 164043" d="M236.647,20.561H227.9V4.837h8.75V20.561Z" transform="translate(-200.093 -2.408)" fill="#e15218"/>
    <path id="Path_164044" data-name="Path 164044" d="M231.693,13.287a9.987,9.987,0,0,1,3.82-7.863,10,10,0,1,0,0,15.724,9.982,9.982,0,0,1-3.82-7.861" transform="translate(-203.333 -2.996)" fill="#d7111d"/>
    <path id="Path_164045" data-name="Path 164045" d="M246.938,19.483V19.1h-.1l-.117.266L246.6,19.1h-.1v.387h.072v-.294l.109.254h.074l.109-.254v.294Zm-.641,0V19.16h.13V19.1H246.1v.065h.129v.323Zm.954-6.2a10,10,0,0,1-16.18,7.863,10,10,0,0,0,0-15.724,10,10,0,0,1,16.18,7.861" transform="translate(-198.892 -2.996)" fill="#ef8d0f"/>
  </g>
  <path id="Path_183031" data-name="Path 183031" d="M0,0H32.359V20H0Z" transform="translate(0 0)" fill="#425466" style="mix-blend-mode: color;isolation: isolate"/>
</svg>
