<?xml version="1.0" encoding="UTF-8"?>
<svg id="Layer_2" data-name="Layer 2" xmlns="http://www.w3.org/2000/svg" viewBox="0 0 33.7 34.63">
  <defs>
    <style>
      .cls-1 {
        fill: #fff;
      }
    </style>
  </defs>
  <g id="Layer_1-2" data-name="Layer 1">
    <path class="cls-1" d="m16.97,34.63c-.54,0-1.06-.23-1.44-.62-.38-.4-.59-.92-.58-1.47.02-1.12.94-2.04,2.07-2.04.58,0,1.14.26,1.52.68l.29.32.43-.06c3.97-.59,7.44-2.72,9.77-5.98l.62-.87-2.51-.86c-1.5-.5-2.44-1.98-2.27-3.54l.53-4.55c.2-1.58,1.51-2.84,3.1-2.97l2.71-.19-.4-1.01c-2.22-5.68-7.6-9.34-13.7-9.34h-.45c-6.08.02-11.47,3.69-13.73,9.34l-.41,1.02,2.7.19c1.59.13,2.9,1.38,3.11,2.96l.53,4.55c.18,1.57-.78,3.06-2.28,3.56l-1.47.5c-.35.12-.71.17-1.08.17-.51,0-1.02-.12-1.48-.34-.81-.38-1.42-1.08-1.7-1.92-.96-2.91-1.1-6.02-.41-9.01C2.23,5.54,8.91.23,16.69.23h.13l-.21-.17.56-.07-.23.23c7.78,0,14.49,5.28,16.32,12.85.29,1.25.44,2.52.44,3.78v.09c0,1.78-.29,3.52-.85,5.2l-.06.09-.08.17c-2.08,5.89-7.21,10.07-13.39,10.91l-.37.05-.2.32c-.38.6-1.03.96-1.74.96h-.04Zm11.66-20.12c-.73.07-1.29.62-1.38,1.33l-.53,4.53c-.07.7.35,1.35,1.01,1.56l1.48.51c.17.05.32.07.46.07.23,0,.46-.05.67-.16l.06-.03.11-.06c.13-.09.25-.21.34-.34l.06-.08.09-.23c.03-.07.06-.14.08-.21l.06-.14c.63-2,.83-4.15.57-6.23l-.09-.75-2.99.21Zm-26.64.54c-.27,2.17-.05,4.41.63,6.48.12.37.39.67.74.83.21.1.44.15.67.15.16,0,.32-.02.47-.07l1.47-.5c.66-.21,1.09-.88,1.02-1.58l-.53-4.53c-.1-.73-.67-1.27-1.39-1.33l-2.98-.21-.09.75Z"/>
  </g>
</svg>