<?xml version="1.0" encoding="UTF-8"?>
<svg id="Layer_2" data-name="Layer 2" xmlns="http://www.w3.org/2000/svg" viewBox="0 0 41 37.5">
  <defs>
    <style>
      .cls-1 {
        fill: #fff;
      }

      .cls-2 {
        fill: #30e87a;
      }
    </style>
  </defs>
  <g id="Layer_1-2" data-name="Layer 1">
    <g id="Group_161817" data-name="Group 161817">
      <path class="cls-1" d="m1.97,37.5c-1,0-1.88-.79-1.96-1.83V6.88c.09-1.12,1.05-1.95,2.11-1.87h36.78c1.04-.06,2.01.74,2.1,1.83v28.79c-.09,1.13-1.05,1.93-2.13,1.87H2.1s-.09,0-.13,0Zm.03-31.5c-.51,0-.95.4-1,.92v28.71c.05.5.53.91,1.07.87h36.83c.58.04,1.06-.37,1.1-.91V6.88c-.05-.5-.53-.92-1.07-.87H2.08s-.02,0-.02,0c-.02,0-.05,0-.07,0Z"/>
      <g id="Group_158100" data-name="Group 158100">
        <path id="Path_170332" data-name="Path 170332" class="cls-1" d="m40.5,1.26c0,.7-.57,1.26-1.26,1.26s-1.26-.57-1.26-1.26.57-1.26,1.26-1.26,1.26.57,1.26,1.26h0Z"/>
        <path id="Path_170333" data-name="Path 170333" class="cls-1" d="m35.45,1.26c0,.7-.57,1.26-1.26,1.26s-1.26-.57-1.26-1.26.57-1.26,1.26-1.26,1.26.57,1.26,1.26h0Zm-5.05,0c0,.7-.57,1.26-1.26,1.26s-1.26-.57-1.26-1.26c0-.7.57-1.26,1.26-1.26s1.26.57,1.26,1.26h0Z"/>
      </g>
      <path class="cls-2" d="m16.53,28.76c-.18,0-.36-.05-.53-.15-.47-.29-.61-.91-.32-1.38l7.94-12.7c.29-.47.91-.61,1.38-.32.47.29.61.91.32,1.38l-7.94,12.7c-.19.3-.52.47-.85.47Zm11.14-1.59c-.26,0-.51-.1-.71-.29-.39-.39-.39-1.02,0-1.41l4.06-4.06-4.06-4.06c-.39-.39-.39-1.02,0-1.41s1.02-.39,1.41,0l4.75,4.75c.2.2.29.46.29.71,0,.26-.1.52-.29.71l-4.75,4.75c-.2.2-.45.29-.71.29Zm-14.33,0c-.26,0-.51-.1-.71-.29l-4.75-4.75c-.2-.2-.29-.46-.29-.71,0-.26.1-.52.29-.71l4.75-4.75c.39-.39,1.02-.39,1.41,0s.39,1.02,0,1.41l-4.06,4.06,4.06,4.06c.39.39.39,1.02,0,1.41-.2.2-.45.29-.71.29Z"/>
    </g>
  </g>
</svg>