<svg xmlns="http://www.w3.org/2000/svg" width="16.501" height="21.001" viewBox="0 0 16.501 21.001">
  <defs>
    <style>
      .cls-1 {
        fill: #01042b;
      }

      .cls-2 {
        fill: none;
      }
    </style>
  </defs>
  <g id="Clearing_and_Settlement" data-name="Clearing and Settlement" transform="translate(-0.108 -0.108)">
    <g id="Group_172041" data-name="Group 172041" transform="translate(0.608 0.608)">
      <path id="Path_182761" data-name="Path 182761" class="cls-1" d="M2.086,0H12.332a1.046,1.046,0,0,1,.339.058.5.5,0,0,1,.273.14l.016.016a1.011,1.011,0,0,1,.105.093l.007.007L13.243.5l3.075,3.071a.5.5,0,0,1,.144.4.5.5,0,0,1,.038.192V18.922A2.085,2.085,0,0,1,14.415,21H2.086A2.085,2.085,0,0,1,0,18.922V2.08A2.085,2.085,0,0,1,2.086,0ZM15.5,4.422H13.923A1.832,1.832,0,0,1,12.09,2.595V1h-10A1.084,1.084,0,0,0,1,2.08V18.922A1.084,1.084,0,0,0,2.086,20H14.415A1.084,1.084,0,0,0,15.5,18.922Zm-.882-1L13.09,1.795v.8a.831.831,0,0,0,.833.827Z" transform="translate(-0.5 -0.5)"/>
      <path id="Path_182802" data-name="Path 182802" class="cls-1" d="M12.555,6.635a.5.5,0,0,1,.5.5V11.67a.341.341,0,0,0,.148.279l3.741,2.589a.5.5,0,0,1,.067.767,5.126,5.126,0,1,1-4.546-8.661A.5.5,0,0,1,12.555,6.635Zm3.287,8.356-3.209-2.22a1.341,1.341,0,0,1-.578-1.1V7.78a4.124,4.124,0,0,0-1.577.975,4.116,4.116,0,0,0,2.916,7.034A4.12,4.12,0,0,0,15.843,14.992Z" transform="translate(-5.625 -1.712)"/>
      <g id="Group_172147" data-name="Group 172147" transform="translate(8.689 5.466)">
        <path id="Path_182763" data-name="Path 182763" class="cls-1" d="M4.658,5.593A5.05,5.05,0,0,1,4.2,7.681L.5,5.108V.6A5.087,5.087,0,0,1,4.658,5.593Z" transform="translate(-0.739 -1.177)"/>
        <rect id="Rectangle_19659" data-name="Rectangle 19659" class="cls-2" width="3.679" height="6.031" transform="translate(0)"/>
      </g>
    </g>
  </g>
</svg>
