<?xml version="1.0" encoding="UTF-8"?>
<svg id="Layer_2" data-name="Layer 2" xmlns="http://www.w3.org/2000/svg" viewBox="0 0 40 37.5">
  <defs>
    <style>
      .cls-1 {
        fill: #fff;
      }

      .cls-2 {
        fill: #30e87a;
      }
    </style>
  </defs>
  <g id="Layer_1-2" data-name="Layer 1">
    <g id="Group_162203" data-name="Group 162203">
      <path class="cls-1" d="m36.72,28.74H3.29c-1.8,0-3.27-1.46-3.29-3.27V3.27C.01,1.47,1.49,0,3.29,0h33.44c1.8,0,3.27,1.47,3.28,3.27v22.21c-.01,1.8-1.48,3.26-3.28,3.27ZM3.29,1c-1.25,0-2.28,1.02-2.29,2.27v22.2c0,1.25,1.03,2.27,2.29,2.27h33.44c1.25,0,2.27-1.02,2.28-2.27V3.27c0-1.25-1.03-2.26-2.28-2.27H3.29Z"/>
      <path id="Path_170350" data-name="Path 170350" class="cls-1" d="m17.11,31.74c-.94.02-1.84.42-2.49,1.1-.68.65-1.08,1.55-1.11,2.5v1.43c0,.39.32.71.71.72h11.53c.4,0,.72-.32.72-.71,0,0,0,0,0,0v-1.43c-.03-.95-.43-1.85-1.12-2.5-.65-.68-1.55-1.08-2.49-1.1h-5.76Z"/>
      <path id="Path_170351" data-name="Path 170351" class="cls-2" d="m31.16,8.13s-.07,0-.11.01c-.21.03-.4.12-.55.27l-4.92,4.89-3.06-3.04c-.37-.36-.96-.36-1.32,0-.03.03-.06.06-.08.09l-4.94,6.56-2.97-2.95c-.37-.36-.96-.36-1.32,0-.04.04-.08.09-.11.13l-3.73,5.54c-.28.42-.17,1,.25,1.28,0,0,0,0,0,0,.43.28,1,.17,1.29-.26l3.1-4.62,2.93,2.91c.37.36.96.36,1.32,0,.03-.03.06-.06.08-.09l4.92-6.56,2.98,2.96c.36.36.95.36,1.32,0l5.58-5.55c.28-.26.37-.67.22-1.02-.15-.35-.5-.58-.88-.57h0Z"/>
    </g>
  </g>
</svg>