<?xml version="1.0" encoding="UTF-8"?>
<svg id="Layer_2" data-name="Layer 2" xmlns="http://www.w3.org/2000/svg" viewBox="0 0 26 41">
  <defs>
    <style>
      .cls-1 {
        fill: #fff;
      }
    </style>
  </defs>
  <g id="Layer_1-2" data-name="Layer 1">
    <g>
      <path class="cls-1" d="m13.31,0h-.61C5.69,0,0,5.69,0,12.7v15.61c0,3.39,1.32,6.58,3.72,8.98,2.4,2.4,5.58,3.72,8.98,3.72h.61c7,0,12.69-5.7,12.69-12.69v-15.61c0-7-5.69-12.69-12.69-12.69Zm10.44,12.84v15.32c0,5.84-4.75,10.59-10.59,10.59h-.32c-5.84,0-10.59-4.75-10.59-10.59v-15.32c0-5.84,4.75-10.59,10.59-10.59h.32c5.84,0,10.59,4.75,10.59,10.59Z"/>
      <path class="cls-1" d="m13.19,8.18h-.37c-1.28,0-2.31,1.04-2.31,2.31v6.37c0,1.28,1.04,2.31,2.31,2.31h.37c1.27,0,2.31-1.04,2.31-2.31v-6.37c0-1.28-1.04-2.31-2.31-2.31Zm-.69,2.5c0-.28.22-.5.5-.5s.5.22.5.5v6c0,.28-.22.5-.5.5s-.5-.22-.5-.5v-6Z"/>
    </g>
  </g>
</svg>