<?xml version="1.0" encoding="UTF-8"?>
<svg id="Layer_2" data-name="Layer 2" xmlns="http://www.w3.org/2000/svg" viewBox="0 0 35 35">
  <defs>
    <style>
      .cls-1 {
        fill: #fff;
      }

      .cls-2 {
        fill: none;
      }
    </style>
  </defs>
  <g id="Layer_1-2" data-name="Layer 1">
    <g id="Group_158322" data-name="Group 158322">
      <rect id="Rectangle_14783" data-name="Rectangle 14783" class="cls-2" width="35" height="35"/>
      <path class="cls-1" d="m8.75,23.92c-.23,0-.45-.08-.64-.23l-6.56-5.47c-.23-.19-.36-.47-.36-.77s.13-.58.36-.77l6.56-5.47c.42-.35,1.05-.3,1.41.13s.3,1.06-.13,1.41l-5.64,4.7,5.64,4.7c.42.35.48.98.13,1.41-.2.24-.48.36-.77.36Z"/>
      <path class="cls-1" d="m26.25,23.92c-.29,0-.57-.12-.77-.36-.35-.42-.3-1.06.13-1.41l5.64-4.7-5.64-4.7c-.42-.35-.48-.98-.13-1.41.35-.42.98-.48,1.41-.13l6.56,5.47c.23.19.36.47.36.77s-.13.58-.36.77l-6.56,5.47c-.19.16-.41.23-.64.23Z"/>
      <path class="cls-1" d="m13.13,30.49c-.11,0-.23-.02-.34-.06-.52-.19-.79-.76-.6-1.28L20.94,5.08c.19-.52.76-.78,1.28-.6.52.19.79.76.6,1.28l-8.75,24.06c-.15.41-.53.66-.94.66Z"/>
    </g>
  </g>
</svg>