<svg id="menu" xmlns="http://www.w3.org/2000/svg" width="36.138" height="36.138"
  viewBox="0 0 36.138 36.138">
  <path id="Path"
    d="M5.019,0h26.1a5.015,5.015,0,0,1,5.019,5.019v26.1a5.015,5.015,0,0,1-5.019,5.019H5.019A5.015,5.015,0,0,1,0,31.118V5.019A5.015,5.015,0,0,1,5.019,0Z"
    fill="#049C67" fill-opacity="0.7" />
  <path id="Icon"
    d="M19.073,14.054H1a1,1,0,0,1,0-2.007H19.073a1,1,0,0,1,0,2.007Zm0-6.023H1A1,1,0,0,1,1,6.023H19.073a1,1,0,0,1,0,2.007Zm0-6.022H1A1,1,0,0,1,.079.614,1.01,1.01,0,0,1,.613.079,1,1,0,0,1,1,0H19.073a1,1,0,0,1,.709.295,1,1,0,0,1,.294.71,1,1,0,0,1-1,1Z"
    transform="translate(8.031 11.042)" fill="#fff" />
</svg>