<svg xmlns="http://www.w3.org/2000/svg" width="20" height="13.684" viewBox="0 0 20 13.684">
  <defs>
    <style>
      .cls-1 {
        fill: #fff;
      }

      .cls-2 {
        fill: #01042b;
      }
    </style>
  </defs>
  <g id="Issuers_Processing" data-name="Issuers’ Processing" transform="translate(-1045 -9962)">
    <rect id="Rectangle_14925" data-name="Rectangle 14925" class="cls-1" width="20" height="13.684" rx="3" transform="translate(1045 9962)"/>
    <path id="Rectangle_14925_-_Outline" data-name="Rectangle 14925 - Outline" class="cls-2" d="M3,1A2,2,0,0,0,1,3v7.684a2,2,0,0,0,2,2H17a2,2,0,0,0,2-2V3a2,2,0,0,0-2-2H3M3,0H17a3,3,0,0,1,3,3v7.684a3,3,0,0,1-3,3H3a3,3,0,0,1-3-3V3A3,3,0,0,1,3,0Z" transform="translate(1045 9962)"/>
    <g id="_Group_" data-name="&lt;Group&gt;" transform="translate(1047.5 9967.111)">
      <rect id="_Path_" data-name="&lt;Path&gt;" class="cls-2" width="3.463" height="3.463" rx="1"/>
    </g>
  </g>
</svg>
