<svg xmlns="http://www.w3.org/2000/svg" width="21" height="19.5" viewBox="0 0 21 19.5">
  <defs>
    <style>
      .cls-1 {
        fill: #01042b;
      }
    </style>
  </defs>
  <g id="CMS" transform="translate(0.5 0.5)">
    <path id="Path_170349" data-name="Path 170349" class="cls-1" d="M1.957,39.717H19.1a1.938,1.938,0,0,1,1.925,1.919V53.042a1.937,1.937,0,0,1-1.923,1.922H1.958A1.928,1.928,0,0,1,.029,53.042v-11.4A1.936,1.936,0,0,1,1.957,39.717ZM19.1,53.964a.933.933,0,0,0,.925-.924v-11.4a.933.933,0,0,0-.928-.922H1.959a.933.933,0,0,0-.93.924v11.4a.926.926,0,0,0,.929.922Z" transform="translate(-0.529 -40.217)"/>
    <path id="Path_170350" data-name="Path 170350" class="cls-1" d="M3.959,44.715a1.822,1.822,0,0,0-1.276.567,1.84,1.84,0,0,0-.567,1.286V47.3a.369.369,0,0,0,.363.369H8.392a.369.369,0,0,0,.371-.369v-.738a1.846,1.846,0,0,0-.572-1.283,1.822,1.822,0,0,0-1.276-.567Z" transform="translate(4.56 -28.672)"/>
    <path id="Path_170351" data-name="Path 170351" class="cls-1" d="M16.534,42.523a.482.482,0,0,0-.054.007.477.477,0,0,0-.281.14l-2.525,2.513L12.1,43.621a.478.478,0,0,0-.718.05L8.851,47.04,7.328,45.524A.478.478,0,0,0,6.6,45.6L4.684,48.44a.474.474,0,0,0,.132.659.479.479,0,0,0,.662-.131L7.065,46.6l1.5,1.494a.478.478,0,0,0,.718-.05l2.525-3.368,1.526,1.519a.478.478,0,0,0,.675,0l2.861-2.851a.474.474,0,0,0-.339-.819Z" transform="translate(-0.811 -38.607)"/>
  </g>
</svg>
