<?xml version="1.0" encoding="UTF-8"?>
<svg id="Layer_2" data-name="Layer 2" xmlns="http://www.w3.org/2000/svg" viewBox="0 0 35.3 35.3">
  <defs>
    <style>
      .cls-1 {
        fill: #fff;
      }
    </style>
  </defs>
  <g id="Layer_1-2" data-name="Layer 1">
    <g>
      <path class="cls-1" d="m17.65,0C7.92,0,0,7.92,0,17.65s7.92,17.65,17.65,17.65,17.65-7.92,17.65-17.65S27.38,0,17.65,0Zm15.6,17.65c0,8.6-7,15.6-15.6,15.6S2.05,26.25,2.05,17.65,9.05,2.05,17.65,2.05s15.6,7,15.6,15.6Z"/>
      <path class="cls-1" d="m17.65,7.88c-.57,0-1.02.46-1.02,1.03v8.12l-4.65,2.34c-.24.12-.43.33-.51.59-.09.26-.06.54.06.78.17.35.52.56.91.56.16,0,.32-.04.46-.11l5.22-2.62c.35-.17.56-.53.56-.91v-8.75c0-.57-.46-1.03-1.02-1.03Z"/>
    </g>
  </g>
</svg>