<svg id="Group_172447" data-name="Group 172447" xmlns="http://www.w3.org/2000/svg" xmlns:xlink="http://www.w3.org/1999/xlink" width="40" height="37.497" viewBox="0 0 40 37.497">
  <defs>
    <clipPath id="clip-path">
      <rect id="Rectangle_19756" data-name="Rectangle 19756" width="40" height="37.497" transform="translate(0 0)" fill="none"/>
    </clipPath>
  </defs>
  <g id="Group_172446" data-name="Group 172446" clip-path="url(#clip-path)">
    <path id="Path_182948" data-name="Path 182948" d="M36.723,28.744H3.287A3.3,3.3,0,0,1,0,25.478V3.269A3.3,3.3,0,0,1,3.286,0H36.722A3.3,3.3,0,0,1,40,3.266V25.475a3.3,3.3,0,0,1-3.277,3.269M3.287,1A2.3,2.3,0,0,0,1,3.272v22.2a2.292,2.292,0,0,0,2.287,2.269H36.722A2.294,2.294,0,0,0,39,25.472V3.269A2.294,2.294,0,0,0,36.72,1Z" fill="#fff"/>
    <path id="Path_182949" data-name="Path 182949" d="M17.113,31.741a3.788,3.788,0,0,0-3.593,3.605v1.432a.719.719,0,0,0,.708.719H25.757a.719.719,0,0,0,.724-.714V35.345a3.592,3.592,0,0,0-1.116-2.5,3.555,3.555,0,0,0-2.488-1.1Z" fill="#fff"/>
    <path id="Path_182950" data-name="Path 182950" d="M31.16,8.126a1.1,1.1,0,0,0-.655.287L25.582,13.3l-3.06-3.042a.933.933,0,0,0-1.318.005,1.053,1.053,0,0,0-.082.1l-4.945,6.558-2.968-2.948a.932.932,0,0,0-1.318.006.881.881,0,0,0-.11.134L8.053,19.649a.921.921,0,0,0,.252,1.279l.005,0A.934.934,0,0,0,9.6,20.677l3.1-4.615,2.933,2.909a.933.933,0,0,0,1.318-.005,1.053,1.053,0,0,0,.082-.095l4.924-6.558,2.975,2.958a.934.934,0,0,0,1.315,0l5.578-5.552A.918.918,0,0,0,32.047,8.7a.928.928,0,0,0-.883-.571Z" fill="#30e87a"/>
  </g>
</svg>
