<?xml version="1.0" encoding="UTF-8"?>
<svg id="Layer_2" data-name="Layer 2" xmlns="http://www.w3.org/2000/svg" viewBox="0 0 25.05 34.4">
  <defs>
    <style>
      .cls-1 {
        fill: #fff;
      }
    </style>
  </defs>
  <g id="Layer_1-2" data-name="Layer 1">
    <g id="Group_162207" data-name="Group 162207">
      <path class="cls-1" d="m4.36,34.4c-.48,0-.86-.39-.86-.87v-12.33l-.08-.09C1.21,18.78,0,15.72,0,12.5.01,5.61,5.63,0,12.52,0c3.37,0,6.51,1.31,8.87,3.68s3.66,5.52,3.65,8.86v.3c-.08,3.09-1.28,6.02-3.41,8.27l-.08.09v12.33c0,.11-.02.22-.07.33-.14.33-.45.54-.8.54h0c-.11,0-.23-.02-.33-.07l-7.82-3.35-7.82,3.35c-.11.04-.22.07-.34.07h0Zm.87-2.18l6.96-2.98c.11-.04.22-.07.34-.07s.23.02.34.07l6.96,2.98v-9.48l-.46.3c-2.04,1.33-4.4,2.03-6.83,2.03s-4.79-.7-6.83-2.03l-.46-.3v9.49ZM12.52,1.75c-5.95,0-10.79,4.84-10.79,10.79,0,5.95,4.84,10.79,10.79,10.79,2.88,0,5.59-1.12,7.63-3.16,2.04-2.04,3.16-4.75,3.16-7.63,0-5.95-4.84-10.79-10.79-10.79h0Z"/>
      <path id="Path_177165" data-name="Path 177165" class="cls-1" d="m12.52,20.71c4.51,0,8.16-3.65,8.16-8.16s-3.65-8.16-8.16-8.16c-4.51,0-8.16,3.65-8.16,8.16h0c0,4.51,3.65,8.16,8.16,8.16Zm0-13.99c3.22,0,5.83,2.61,5.83,5.83s-2.61,5.83-5.83,5.83-5.83-2.61-5.83-5.83c0-3.22,2.61-5.83,5.83-5.83,0,0,0,0,0,0Z"/>
    </g>
  </g>
</svg>