<svg xmlns="http://www.w3.org/2000/svg" width="15" height="15.929" viewBox="0 0 15 15.929">
  <g id="Group_161857" data-name="Group 161857" transform="translate(-1349 -6854.61)">
    <g id="Path_177062" data-name="Path 177062" transform="translate(1349 6871.146) rotate(-90)" fill="none">
      <path d="M10.536,0a4,4,0,0,1,3.473,2.015l2,3.5a4,4,0,0,1,0,3.969l-2,3.5A4,4,0,0,1,10.536,15H6.607a4,4,0,0,1-3.473-2.015l-2-3.5a4,4,0,0,1,0-3.969l2-3.5A4,4,0,0,1,6.607,0Z" stroke="none"/>
      <path d="M 6.607008934020996 1 C 5.533139228820801 1 4.535058975219727 1.57919979095459 4.00226879119873 2.511580467224121 L 2.00226879119873 6.011580467224121 C 1.477649688720703 6.929670333862305 1.477649688720703 8.070329666137695 2.00226879119873 8.988420486450195 L 4.00226879119873 12.4884204864502 C 4.535058975219727 13.42080020904541 5.533129692077637 14 6.606999397277832 14 L 10.53584861755371 14 C 11.60971927642822 14 12.6077995300293 13.42080020904541 13.14058876037598 12.4884204864502 L 15.14058876037598 8.988420486450195 C 15.66520881652832 8.070329666137695 15.66520881652832 6.929670333862305 15.14058876037598 6.011580467224121 L 13.14058876037598 2.511580467224121 C 12.6077995300293 1.57919979095459 11.60971927642822 1 10.53584861755371 1 L 6.607008934020996 1 M 6.607008934020996 0 L 10.53584861755371 0 C 11.97127914428711 0 13.29664897918701 0.7691402435302734 14.00882911682129 2.015439987182617 L 16.00882911682129 5.515439987182617 C 16.71152877807617 6.745169639587402 16.71152877807617 8.254829406738281 16.00882911682129 9.484560012817383 L 14.00882911682129 12.98456001281738 C 13.29664897918701 14.23085975646973 11.97127914428711 15 10.53584861755371 15 L 6.606999397277832 15 C 5.171579360961914 15 3.846199035644531 14.23085975646973 3.134029388427734 12.98456001281738 L 1.134029388427734 9.484560012817383 C 0.4313297271728516 8.254819869995117 0.4313297271728516 6.745169639587402 1.134029388427734 5.515439987182617 L 3.134029388427734 2.015439987182617 C 3.846209526062012 0.7691402435302734 5.171579360961914 0 6.607008934020996 0 Z" stroke="none" fill="#fff"/>
    </g>
    <path id="Path_177059" data-name="Path 177059" d="M9.625,11.314a.322.322,0,0,1-.161-.043L4.963,8.7a.323.323,0,0,1,0-.561l2.412-1.4a.325.325,0,0,1,.324,0L9.651,7.867,11.59,6.754a.322.322,0,0,1,.322,0L14.3,8.116a.324.324,0,0,1,0,.562L9.787,11.271a.334.334,0,0,1-.162.042" transform="translate(1346.869 6851.47)" fill="#30e87a"/>
  </g>
</svg>
