<svg xmlns="http://www.w3.org/2000/svg" width="17.782" height="21.068" viewBox="0 0 17.782 21.068">
  <defs>
    <style>
      .cls-1 {
        fill: #6861e4;
      }

      .cls-2 {
        fill: #fff;
      }

      .cls-3 {
        fill: #01042b;
      }
    </style>
  </defs>
  <g id="Security_and_compliance" data-name="Security and compliance" transform="translate(0.502 -0.016)">
    <g id="Group_158699" data-name="Group 158699" transform="translate(0 0.569)">
      <rect id="_Path_" data-name="&lt;Path&gt;" class="cls-1" width="7.503" height="7.503" rx="1" transform="translate(4.638 5.949)"/>
      <path id="Path_172378" data-name="Path 172378" class="cls-2" d="M63.772,11.076,55.736,7.287,47.7,11.076S44.779,24.53,55.736,27.287C66.694,24.53,63.772,11.076,63.772,11.076Z" transform="translate(-47.347 -7.287)"/>
      <path id="Path_172378_-_Outline" data-name="Path 172378 - Outline" class="cls-3" d="M55.736,6.734l8.472,3.994.052.241a21.024,21.024,0,0,1,.1,7.263A12.717,12.717,0,0,1,62.011,23.9a10.846,10.846,0,0,1-6.153,3.876l-.122.031-.122-.031A10.846,10.846,0,0,1,49.462,23.9a12.717,12.717,0,0,1-2.345-5.663,21.024,21.024,0,0,1,.1-7.263l.052-.241Zm7.592,4.685L55.736,7.84l-7.592,3.58a20.5,20.5,0,0,0-.037,6.67c.809,4.648,3.376,7.568,7.63,8.681,4.253-1.113,6.82-4.033,7.63-8.681A20.5,20.5,0,0,0,63.329,11.419Z" transform="translate(-47.347 -7.287)"/>
    </g>
    <path id="Subtraction_79" data-name="Subtraction 79" class="cls-3" d="M2.22,6.216H1.792A1.223,1.223,0,0,1,.707,5.039V3.248a1.754,1.754,0,0,1-.585-2.04A2.016,2.016,0,0,1,2.006,0,2.015,2.015,0,0,1,3.89,1.208,1.754,1.754,0,0,1,3.3,3.248V5.039A1.223,1.223,0,0,1,2.22,6.216Z" transform="translate(6.383 7.461)"/>
  </g>
</svg>
