<?xml version="1.0" encoding="UTF-8"?>
<svg id="Layer_2" data-name="Layer 2" xmlns="http://www.w3.org/2000/svg" viewBox="0 0 32 26.9">
  <defs>
    <style>
      .cls-1 {
        fill: #fff;
      }
    </style>
  </defs>
  <g id="Layer_1-2" data-name="Layer 1">
    <g id="Group_162217" data-name="Group 162217">
      <path class="cls-1" d="m24.7,8.54c-.21,0-.42,0-.64-.02-3.03-.22-5.55-1.77-8-3.28-2.34-1.44-4.55-2.8-7.19-3.12-2.79-.5-5.58.77-7.02,3.14-.29.47-.9.62-1.37.34-.47-.29-.62-.9-.34-1.37C2.01,1.14,5.63-.5,9.17.14c3.02.36,5.52,1.91,7.94,3.4,2.34,1.44,4.55,2.81,7.09,2.99,4.57.3,5.79-3.91,5.83-4.09.14-.53.69-.85,1.22-.71.53.14.85.68.71,1.22-.52,1.99-2.7,5.6-7.27,5.6Z"/>
      <path class="cls-1" d="m24.7,17.72c-.21,0-.42,0-.64-.02-3.03-.22-5.55-1.77-8-3.28-2.34-1.44-4.55-2.8-7.19-3.12-2.79-.5-5.58.77-7.02,3.14-.29.47-.9.62-1.37.34-.47-.29-.62-.9-.34-1.37,1.86-3.07,5.49-4.71,9.03-4.08,3.02.36,5.52,1.91,7.94,3.4,2.34,1.44,4.55,2.81,7.09,2.99,4.58.32,5.79-3.91,5.83-4.09.14-.53.69-.85,1.22-.71.53.14.85.68.71,1.22-.52,1.99-2.7,5.6-7.27,5.6Z"/>
      <path class="cls-1" d="m24.7,26.9c-.21,0-.42,0-.64-.02-3.03-.22-5.55-1.77-8-3.28-2.34-1.44-4.55-2.8-7.19-3.12-2.79-.5-5.58.77-7.02,3.14-.29.47-.9.62-1.37.34-.47-.29-.62-.9-.34-1.37,1.86-3.07,5.49-4.71,9.03-4.08,3.02.36,5.52,1.91,7.94,3.4,2.34,1.44,4.55,2.81,7.09,2.99,4.57.31,5.79-3.91,5.83-4.09.14-.53.69-.85,1.22-.71.53.14.85.68.71,1.22-.52,1.99-2.7,5.6-7.27,5.6Z"/>
    </g>
  </g>
</svg>