<svg id="Component_86_22" data-name="Component 86 – 22" xmlns="http://www.w3.org/2000/svg" xmlns:xlink="http://www.w3.org/1999/xlink" width="32.526" height="25" viewBox="0 0 32.526 25">
  <defs>
    <linearGradient id="linear-gradient" y1="0.5" x2="1" y2="0.5" gradientUnits="objectBoundingBox">
      <stop offset="0" stop-color="#522428"/>
      <stop offset="1" stop-color="#c31133"/>
    </linearGradient>
    <linearGradient id="linear-gradient-2" y1="0.5" x2="1" y2="0.5" gradientUnits="objectBoundingBox">
      <stop offset="0" stop-color="#346734"/>
      <stop offset="1" stop-color="#5e9a33"/>
    </linearGradient>
    <linearGradient id="linear-gradient-3" y1="0.5" x2="1" y2="0.5" gradientUnits="objectBoundingBox">
      <stop offset="0" stop-color="#1f265a"/>
      <stop offset="1" stop-color="#005c9f"/>
    </linearGradient>
  </defs>
  <g id="Group_172499" data-name="Group 172499" transform="translate(-16.761 0)">
    <path id="Path_164046" data-name="Path 164046" d="M435.914,19.952A5.048,5.048,0,0,1,430.866,25H403.461V5.048A5.047,5.047,0,0,1,408.51,0h27.4V19.952Z" transform="translate(-386.627 0)" fill="#fff"/>
    <g id="Group_141404" data-name="Group 141404" transform="translate(28.614 1.684)">
      <path id="Path_164047" data-name="Path 164047" d="M413.671,23.094H419.1l.035,0h.035l.034,0,.035,0,.035,0,.035,0,.034,0,.036,0,.035,0,.034,0,.035,0,.034-.006.035-.006.035-.006.034-.006.035-.007.036-.007.035-.007.035-.008.035-.008.035-.008.034-.008.035-.01.035-.009.035-.009.036-.01.035-.01.035-.012.034-.012.035-.012.035-.013.035-.013.034-.013.035-.013.036-.015.034-.014.035-.015.035-.015.035-.015.034-.016.035-.016.035-.017.036-.017.035-.018.035-.018.035-.018.035-.02.034-.02.035-.021.034-.021.035-.022.036-.021.034-.023.035-.023.034-.024.035-.024.035-.024.035-.025.035-.027.036-.027.035-.029.034-.028.035-.029.035-.03.035-.03.035-.031.035-.032.034-.033.036-.033.035-.035.034-.036.035-.037.035-.038.035-.039.035-.04.034-.04.035-.043.036-.044.034-.046.035-.046.034-.048.035-.051.035-.052.035-.054.035-.057.036-.059.035-.061.035-.066.034-.067.035-.073.034-.075.035-.082c.013-.029.024-.058.035-.087s.024-.063.035-.095.024-.069.036-.1l.035-.117c.013-.044.023-.089.035-.134s.024-.108.034-.163c.014-.072.025-.143.035-.216a3.841,3.841,0,0,0,.029-.384V1.459h-5.484l-.035,0-.034,0-.036,0-.035,0-.034,0-.035,0-.035,0-.035,0-.034.006-.035,0-.035.006-.036.006-.035.006-.035.007-.035.006-.035.008-.035.007-.034.008-.035.008-.035.009-.036.009-.034.009-.035.009-.035.01-.035.01-.034.012-.035.012-.034.012-.036.012-.035.013L416,1.69l-.035.014-.035.014-.035.014-.035.014-.034.016-.035.015-.036.016-.034.016-.035.017-.035.017-.035.017-.035.018-.034.018-.035.02-.035.018-.036.021-.034.021L415.379,2l-.035.022-.035.022-.034.023-.035.023-.034.024-.036.025-.035.025-.035.025-.034.027-.035.028L415,2.271l-.035.029-.035.03-.035.03-.036.031-.035.032-.035.032-.034.033-.035.035-.035.036-.035.037-.034.037-.036.039-.035.039-.034.04-.035.043-.035.043-.035.046-.034.046-.035.047-.035.051-.036.051-.035.054-.035.055-.035.059-.034.06-.035.063-.034.067-.035.07c-.013.024-.024.05-.035.075s-.024.052-.036.08-.023.057-.035.085l-.035.092-.035.1c-.011.038-.024.075-.034.113s-.024.084-.035.127-.024.1-.035.151a3.574,3.574,0,0,0-.075.733V9.785c.024-.021.05-.042.075-.061h0l.035-.028.035-.028.034-.027.035-.025.035-.025.035-.024.036-.023.035-.023.035-.023.034-.022.035-.022.034-.021.035-.021.035-.021.035-.02.036-.018.035-.02.035-.018.034-.017.035-.018.035-.017.035-.016.034-.017.035-.016.036-.015.034-.016.035-.015.035-.015.035-.014.034-.015.035-.014.035-.014.036-.013.035-.013.035-.013L415,9.045l.035-.013.035-.012.034-.012L415.135,9l.035-.012.036-.012.034-.01.035-.01.034-.01.035-.01.035-.01.035-.009.034-.009.036-.009.035-.009.035-.009.034-.008.035-.009.035-.008.035-.008.035-.008.034-.008.036-.007.035-.008.034-.007L415.9,8.8l.035-.007.035-.007L416,8.777l.034-.006.035-.007.036-.006.034-.006.035-.006.034-.006.035-.006.035,0,.035-.006.034,0,.036-.006.035,0,.035,0,.034,0,.035,0,.035,0,.035,0,.035,0,.035,0,.036,0,.035,0,.035,0,.034,0,.035,0,.035,0,.035,0,.034,0,.035,0,.036,0,.034,0,.035,0,.035,0,.034,0,.035,0,.035,0h.035l.036,0,.035,0h.035l.035,0h1.251l.035,0h.069l.036,0h.035l.035,0,.034,0h.035l.035,0,.035,0,.035,0,.034,0,.036,0,.035,0,.035,0,.034,0,.035,0,.035,0,.035,0,.034,0,.036,0,.035,0,.034,0,.035,0,.034,0,.035,0,.035,0,.034,0,.035,0,.036,0,.035,0,.035,0,.035,0,.035,0,.034,0,.035.006.035,0,.035,0,.036.006.035,0,.035.006.034,0,.035.006.035.006.035,0,.034.006.035.006.036.006.034.006.035.006.035.006.035.007.034.006.035.006.035.007.036.006.035.006.035.007.035.007.035.006.034.007.035.007.034.007.035.007.036.007.034.007.035.007.034.007.035.007.035.008.035.007.035.007.036.008.035.007.034.008.035.008L421.32,9l.035.008.035.008.035.008.034.008.036.008.035.008.034.009v1.526l-.034-.017-.035-.017-.036-.017-.034-.017-.035-.016-.035-.017-.035-.016-.035-.016-.035-.016-.034-.016-.035-.016-.036-.015-.035-.016-.035-.015-.035-.015-.035-.015-.034-.015-.035-.014-.034-.015-.036-.014-.035-.014-.034-.014-.035-.014-.034-.013L420.7,10.2l-.035-.014-.035-.013-.035-.012-.036-.013-.035-.013-.035-.012-.034-.012-.035-.012-.035-.012-.035-.012-.034-.01-.036-.01-.035-.01-.034-.01-.035-.01-.035-.01-.035-.009L420.07,10l-.035-.009L420,9.979l-.036-.009-.035-.008-.035-.009-.035-.008-.034-.008-.035-.008-.035-.007-.035-.008-.035-.007-.036-.007-.035-.007-.034-.007-.035-.007-.035-.006-.034-.006-.035-.007-.034-.006-.035,0-.036-.006-.034-.006-.035,0-.035,0-.035,0-.034,0-.035,0-.035,0-.036,0-.034,0-.035,0-.035,0-.035,0-.035,0-.034,0-.022,0h-.013l-.035,0-.036,0h-.034l-.035,0H418.3l-.035,0h-.034l-.035,0h-.036l-.034,0-.035,0-.034,0-.035,0-.035,0-.035,0-.034,0-.035,0-.036.006-.034,0-.035.006-.035.006-.035.007-.034.006-.035.008-.034.007-.036.008-.035.008-.034.009-.035.009-.034.009-.035.009-.035.012-.035.01-.035.012-.036.012-.035.013-.035.013-.035.014-.034.014-.035.015-.035.015-.034.016-.036.016-.035.017-.034.017-.035.018-.035.02-.035.02-.034.022-.035.022-.035.022-.036.024-.035.024-.035.025-.035.027-.035.028-.035.029-.034.031-.035.031-.035.033-.036.035-.034.037-.035.038-.035.04-.035.043-.034.045-.035.048-.034.05-.036.054-.035.059-.034.062-.035.068-.035.075c-.011.027-.024.054-.035.082s-.024.061-.035.093-.024.07-.034.106-.024.084-.035.127-.026.11-.036.165c-.015.083-.027.168-.034.255s-.014.205-.014.313,0,.211.014.312.02.173.034.255c.01.057.022.111.036.165s.022.085.035.127.022.072.034.106.022.063.035.093.023.055.035.082.023.051.035.075l.035.068.034.062.035.059.036.054.034.05.035.048.034.045.035.043.035.04.035.038.034.037.036.035.035.032.035.032.034.03.035.029.035.028.035.028.035.025.035.024.036.024.035.022.035.022.034.021.035.021.035.018.035.018.034.018.035.017.036.016.034.016.035.015.035.015.034.014.035.014.035.013.035.012.036.013.035.012.035.01.035.01.035.01.034.009.035.009.034.009.035.008.036.008.034.007.035.007.034.007.035.006.035.006.035.006.034.006.036,0,.035,0,.034,0,.035,0,.035,0,.035,0,.034,0,.035,0,.034,0,.036,0,.035,0h.416l.035,0h.035l.034,0,.036,0,.035,0h.035l.034,0,.035,0,.035,0,.035,0,.035,0,.034,0,.036,0,.035,0,.035,0,.034,0,.035,0,.035,0,.035,0,.034-.006.036-.006.035-.006.034-.006.035-.006.034-.006.035-.007.035-.006.034-.007.035-.007.036-.008.035-.007.035-.007.035-.008.035-.008.034-.008.035-.008.035-.009.035-.008.036-.009.035-.009.035-.009.034-.009.035-.01.035-.009.035-.01.034-.01.035-.01.036-.01.034-.012.035-.01.035-.012.035-.012.034-.012.035-.013.035-.012.036-.013.035-.012.035-.013.035-.014.035-.013.034-.013.035-.014.034-.014.035-.014.036-.014.034-.014.035-.015.034-.015.035-.014.035-.015.035-.015.035-.016.036-.015.035-.016.034-.015.035-.016.035-.016.035-.016.035-.017.035-.016.034-.017.036-.017.035-.017.034-.016V15.5l-.034.008-.035.008-.036.009-.034.008-.035.008-.035.007-.035.008-.035.008-.035.008-.034.007-.035.008-.036.007-.035.008-.035.007-.035.007-.035.008-.034.007-.035.007-.034.007-.036.007-.035.007-.034.007-.035.007-.034.006-.035.007-.035.007-.035.006-.035.007-.036.006-.035.007-.035.006-.034.006-.035.006-.035.007-.035.006-.034.006-.036.006-.035.006-.034,0-.035.006-.035.006-.035.006-.034,0-.035.006-.035,0-.036.006-.035,0-.035,0-.035,0-.034.006-.035,0-.035,0-.035,0-.035,0-.036,0-.035,0-.034,0-.035,0-.035,0-.034,0-.035,0-.034,0-.035,0-.036,0-.034,0-.035,0-.035,0-.035,0-.034,0-.035,0-.035,0-.036,0-.034,0-.035,0-.035,0-.035,0-.035,0h-.034l-.035,0-.035,0h-.07l-.035,0H417.5l-.035,0h-.069l-.035,0h-.035l-.035,0h-.036l-.035,0-.035,0-.035,0-.034,0-.035,0-.035,0-.034,0-.036,0-.035,0-.034,0-.035,0-.035,0-.035,0-.034,0-.035,0-.035,0-.036,0-.035,0-.035,0-.035,0-.035,0-.035,0-.034,0-.035,0-.035,0-.036,0-.034-.006-.035,0-.035-.006-.035-.006-.034-.006-.035-.006-.034-.006-.036-.006-.035-.007L416,15.777l-.035-.007-.035-.007-.035-.007-.035-.007-.034-.007-.035-.007-.036-.008-.034-.008-.035-.008-.035-.008-.035-.008-.035-.008-.034-.009-.035-.008-.035-.009-.036-.009-.034-.01-.035-.009-.035-.009-.035-.01-.034-.01-.035-.01-.034-.012-.036-.01-.035-.012-.035-.012-.034-.012-.035-.013L415,15.51l-.035-.013-.035-.013-.035-.013-.036-.014-.035-.014-.035-.014-.034-.014-.035-.015-.035-.015-.035-.015-.034-.015-.036-.016-.035-.016-.034-.016-.035-.017-.035-.017-.035-.017-.034-.017-.035-.02L414.3,15.2l-.036-.018-.035-.021-.035-.02-.035-.021-.034-.021-.035-.022-.034-.022-.035-.023-.035-.023-.036-.024-.035-.024-.035-.024-.035-.025-.034-.027-.035-.028-.035-.028c-.025-.021-.051-.04-.075-.062v8.325Z" transform="translate(-413.671 -1.459)" fill="url(#linear-gradient)"/>
    </g>
    <g id="Group_141405" data-name="Group 141405" transform="translate(38.59 1.684)">
      <path id="Path_164048" data-name="Path 164048" d="M424.081,12.715h2.106l.036,0,.034,0,.035,0,.035,0,.035,0,.034,0,.022,0,.014,0,.035.009.034.01.035.012.035.014.035.015.036.017.035.018.035.021.034.022.035.025.035.028.034.03.036.035.035.037.035.043c.012.015.024.031.034.047a.407.407,0,0,1,.035.055.686.686,0,0,1,.035.065.679.679,0,0,1,.036.083.877.877,0,0,1,.034.118,1.013,1.013,0,0,1,0,.443.947.947,0,0,1-.034.119.748.748,0,0,1-.036.082c-.01.022-.022.044-.035.066a.625.625,0,0,1-.035.055c-.01.016-.023.032-.034.047s-.023.029-.035.042l-.035.038-.036.033-.034.03-.035.028-.035.025-.034.022-.035.021-.035.018-.036.017-.035.015-.035.013-.035.012-.034.01-.035.009-.014,0-.022,0-.034.006-.035,0-.035,0-.035,0-.034,0h-2.142v-1.9Zm-1.763,10.379h5.47l.035,0,.034,0,.035,0,.036,0,.035,0,.034,0,.035,0,.035,0,.035,0,.036-.006.035,0,.035-.006.035-.006.034-.007.035-.007.036-.007.034-.007.035-.008.035-.008.035-.008.035-.009.036-.009.035-.009.035-.01.034-.01.035-.01.034-.012.036-.012.035-.013.034-.012.035-.013.035-.014.036-.013.035-.015.034-.014.035-.015.035-.015.035-.016.036-.016.035-.016.035-.017.035-.017.034-.018.035-.018.036-.02.035-.02.034-.02.035-.021.035-.021.034-.022.035-.022.036-.023.034-.023.035-.024.035-.024.035-.027.036-.025.035-.027.035-.027.034-.029.035-.028.035-.03.036-.03.035-.031.035-.031.035-.032.035-.033.034-.035.036-.035.035-.037.035-.037.034-.038.035-.039.035-.042.036-.042.035-.043.035-.045.035-.046.035-.047.034-.05.036-.051.035-.053.034-.055.035-.058.034-.06.035-.062.036-.066.034-.07.035-.074c.012-.025.023-.052.035-.078l.035-.083c.013-.03.024-.06.035-.09s.024-.066.036-.1l.035-.11.035-.123c.013-.047.024-.1.035-.144s.024-.12.035-.181c.015-.091.027-.182.035-.276s.013-.177.014-.267V1.459H425.8l-.035,0h-.035l-.035,0-.034,0-.036,0-.035,0-.034,0-.035,0-.034,0-.035,0-.035,0-.036,0-.035.006-.035.006-.035.006-.035.007-.034.007-.036.007-.035.007-.035.008-.034.008-.035.009L425,1.578l-.035.009-.034.009-.035.01-.035.01-.035.01-.036.012-.035.012-.035.013-.034.012-.035.014-.035.013-.036.014-.035.014-.035.015-.035.015-.034.015-.035.016-.036.016-.034.017-.035.017-.035.017-.035.018L424.2,1.9l-.036.02-.035.02-.034.02-.035.021L424.029,2l-.035.022-.036.022-.035.023-.035.023-.035.024-.035.025-.034.025-.036.025-.035.027-.035.028-.034.028-.035.029-.034.03-.036.03-.035.031-.034.032-.035.032-.035.033-.035.035-.036.036-.035.037-.035.037-.034.039-.035.039-.035.04-.036.043-.034.043-.035.046-.035.046-.035.047-.035.051-.036.051-.035.054-.035.055-.034.059-.035.06-.035.063-.036.067-.034.07-.035.075-.035.08-.035.085c-.012.03-.024.061-.034.092s-.024.067-.036.1l-.035.112c-.011.042-.024.084-.034.127s-.024.1-.035.151a3.654,3.654,0,0,0-.075.706V8.809h5.261l.034,0h.035l.035,0h.036l.035,0h.035l.035,0,.034,0,.035,0,.036,0,.035,0,.034,0,.035,0,.035,0,.035,0,.036,0,.035.006.035.007.035.006.034.007.035.008.036.008.034.008.035.009.035.009.035.009.035.01.036.012.035.01.035.013.034.013.035.013.034.014.036.015.035.015.034.015.035.017.035.017.036.018.035.02.034.02.035.021.035.023.035.023.036.024.035.025.035.028.035.029.034.03.035.032.036.033.035.037.034.039.035.042.035.045a.489.489,0,0,1,.034.05.507.507,0,0,1,.035.054c.013.02.024.039.036.06l.034.068c.013.025.024.052.035.078s.024.062.035.095a1.148,1.148,0,0,1,.035.123,1.776,1.776,0,0,1,.036.21c0,.058.008.115.008.175s0,.112-.008.167a1.759,1.759,0,0,1-.036.207A1.128,1.128,0,0,1,429.7,11c-.01.032-.022.065-.035.1s-.022.053-.035.08l-.034.069-.036.061c-.01.018-.022.037-.035.055l-.034.051-.035.046-.035.044-.034.039-.035.038-.036.036-.035.033-.034.031-.035.03-.035.028-.035.028-.036.025-.035.024-.035.022-.035.022-.034.021-.035.021-.036.018-.035.018-.035.016-.034.017-.035.015-.036.015-.034.014-.035.014-.034.013-.035.012-.035.012-.036.012-.035.009-.035.01-.035.009-.035.008-.034.008-.036.008-.035.007-.034.007-.035.006-.035.006-.032.006V12.2l.032,0,.035,0,.035,0,.034,0,.035,0,.036,0,.034,0,.035,0,.035.006.035.006.035.006.036.007.035.007.035.008.034.007.035.009.034.008.036.009.035.01.034.01.035.01.035.012.036.012.035.012.034.013.035.014.035.014.035.015.036.015.035.016.035.016.035.017.034.018.035.018.036.02.035.021.034.021.035.023.035.023.034.024.035.025.036.028.034.028.035.03.035.031.035.032.036.035.035.038.035.039.034.043.035.045a.561.561,0,0,1,.035.048l.036.054.035.059.035.067c.013.024.024.05.035.075s.024.06.035.091a1.146,1.146,0,0,1,.034.114,1.616,1.616,0,0,1,.036.175,1.814,1.814,0,0,1,.015.225,1.928,1.928,0,0,1-.015.232,1.745,1.745,0,0,1-.036.182,1.02,1.02,0,0,1-.034.119c-.01.031-.022.062-.035.092s-.022.053-.035.08-.023.046-.035.068-.023.042-.035.061a.644.644,0,0,1-.036.055.6.6,0,0,1-.035.052l-.035.046-.034.044-.035.042-.035.038-.036.036-.035.035-.035.032-.035.031-.034.029-.036.028-.035.027-.034.025-.035.024-.035.023-.034.022-.035.021-.036.021-.035.02-.034.018-.035.017-.035.017-.035.016-.036.016-.035.015-.035.014-.035.014-.034.013-.035.013-.036.013-.035.01-.035.012-.034.01-.035.009-.036.01-.034.008-.035.009-.034.008-.035.007-.035.007-.036.007-.035.006-.035.006-.035.006-.035.006-.034,0-.036,0-.035,0-.034,0-.035,0-.035,0-.035,0-.036,0h-5.783v7.35Zm4.565-12.532a1,1,0,0,1,0,.4.938.938,0,0,1-.035.119.6.6,0,0,1-.036.08.525.525,0,0,1-.035.062.512.512,0,0,1-.035.053l-.034.045-.035.039-.035.035-.036.031-.035.028-.035.025-.035.022-.034.021-.035.018-.036.016-.034.014-.035.014-.035.01-.035.01-.034.008-.035.007h-.009l-.027,0-.035,0-.035,0-.034,0-.035,0h-1.933V9.887h1.933l.035,0,.034,0,.035,0,.035,0,.027,0h.009l.035.007.034.009.035.009.035.012.035.013.034.015.036.016.035.018.034.021.035.022.035.025.035.028.036.031.035.035.035.039.034.045a.512.512,0,0,1,.035.053.525.525,0,0,1,.035.062.681.681,0,0,1,.036.08.938.938,0,0,1,.035.119Z" transform="translate(-422.318 -1.459)" fill="url(#linear-gradient-2)"/>
    </g>
    <path id="Path_164049" data-name="Path 164049" d="M405.1,14.007l-.075-.036V5.064a3.572,3.572,0,0,1,.075-.733c.01-.051.022-.1.035-.151s.022-.085.035-.128.022-.075.035-.112l.035-.1.035-.092.035-.085.035-.08.036-.074.035-.07.035-.067.034-.063.035-.061.035-.058.035-.057.035-.053.034-.052.036-.05.035-.047.034-.047.035-.045.035-.043.035-.043.035-.042.035-.039.035-.038L406,2.6l.035-.036.034-.036.035-.035.035-.033.035-.032.035-.032.035-.031.036-.03.035-.03.035-.029.035-.028.034-.028.035-.027.035-.027.034-.024.035-.025.036-.024.035-.023.035-.023.035-.023L406.732,2l.034-.022.035-.021.035-.021.035-.02.036-.018.035-.018.035-.018.035-.018.035-.017.035-.016.035-.016.035-.016.036-.015.035-.016.035-.014.035-.014.035-.014.034-.014.035-.013.035-.013.034-.013.036-.012.035-.01.035-.012.035-.01.035-.01.035-.009.035-.009.035-.009.035-.009.036-.008.035-.008.035-.007.035-.008.035-.006.034-.007.035-.006.035-.006.035-.006.036,0,.035-.006.035,0,.035,0,.035,0,.035,0,.035,0,.035,0,.036,0,.035,0h5.484V19.488a3.856,3.856,0,0,1-.029.464c-.01.073-.022.145-.036.217-.01.054-.022.108-.034.162s-.022.09-.035.134-.022.078-.035.117-.023.069-.035.1l-.035.095-.034.087-.035.082-.035.076-.036.072-.035.068-.035.065-.035.061-.035.059-.035.057-.035.054-.035.052-.035.051-.036.048-.035.047-.035.045-.035.044-.035.043-.035.042-.035.039-.035.039-.036.038-.034.037-.035.036-.035.035-.035.033-.035.033-.035.032-.035.031-.035.03-.036.03-.035.029-.035.029-.035.028-.035.027-.035.027-.035.025-.035.024-.035.024-.036.024-.035.023-.034.023-.035.022-.035.021-.035.021-.035.021-.035.02-.034.02-.036.018-.035.018-.034.018-.035.017-.035.017-.035.016-.035.016-.035.015-.036.015-.035.015-.035.014-.035.015-.035.013-.035.014-.035.012-.035.013-.035.012-.036.012-.035.012-.035.01-.034.01-.035.009-.034.01-.035.009-.035.008-.034.008-.036.008-.035.008-.035.007-.035.007-.035.007-.035.006-.035.006-.035.006-.036.006-.035,0-.035,0-.035,0-.035,0-.035,0-.034,0-.035,0-.035,0-.036,0h-.035l-.034,0h-5.425V15.5l.075.02.035.008.035.009.035.008.035.008.035.008.035.008.035.008.036.008.035.007.035.008.034.007.035.007.035.008.035.007.035.007.034.007.036.007.035.007.034.007.035.006.035.007.035.007.035.006.035.006.035.007L406,15.7l.035.006.034.006.035.007.035.006.035,0,.035.006.035.006.036.006.035.006.035,0,.035.006.034,0,.035.006.035,0,.034,0,.035,0,.036.006.035,0,.035,0,.035,0,.035,0,.034,0,.035,0,.035,0,.035,0,.036,0,.035,0,.035,0,.035,0,.035,0,.035,0,.035,0,.035,0,.036,0,.035,0,.035,0,.035,0,.035,0,.034,0,.035,0,.035,0,.034,0,.036,0,.035,0,.035,0,.035,0,.035,0,.035,0,.035,0,.035,0,.035,0,.036,0,.035,0h.035l.035,0,.035,0h.034l.035,0h.069l.036,0H409.2l.035,0h.069l.036,0h.034l.035,0,.035,0h.035l.035,0,.035,0,.034,0,.036,0,.035,0,.035,0,.034,0,.035,0,.035,0,.035,0,.034,0,.035,0,.036,0,.035,0,.035,0,.035,0,.034,0,.035,0,.035,0,.035,0,.035-.006.036,0,.035-.006.035-.006.035-.006.034-.006.035-.006.035-.006.034-.007.035-.007.036-.007.035-.007.035-.007.034-.007.035-.008.035-.008.035-.008.035-.008.035-.008.036-.009.035-.009.035-.009.035-.009.035-.009.035-.01.035-.01.035-.01.036-.012.034-.01.035-.012.035-.012.034-.012.035-.013.034-.013.035-.013.035-.014.036-.014.035-.014.035-.015.035-.015.035-.015.035-.016.035-.016.035-.016.035-.017.036-.017.035-.018.035-.018.035-.02.035-.02.035-.02.034-.021.035-.022.036-.022.034-.023.035-.024.035-.024.035-.025.035-.025.035-.028.034-.028.035-.029.036-.03.035-.031.035-.032.035-.035.035-.035.035-.037.035-.038.035-.04.035-.042.036-.045.035-.046.035-.05.035-.052.035-.055.035-.06a.68.68,0,0,0,.035-.063c.013-.023.024-.046.035-.069s.024-.051.034-.076.024-.055.036-.083L413.02,14l.035-.108c.013-.043.024-.085.035-.129s.024-.108.035-.163q.022-.123.035-.249c.011-.118.017-.238.017-.359V8.809h-3.1v4.185c0,.065,0,.129-.008.193a1.947,1.947,0,0,1-.034.235q-.016.071-.035.138c-.01.037-.022.073-.035.107l-.035.088c-.012.027-.023.052-.036.076a.729.729,0,0,1-.035.068c-.01.02-.022.04-.034.06l-.035.055-.035.05-.035.047-.034.043-.035.039-.035.038-.036.036-.034.032-.035.031-.035.029-.035.028-.035.027-.035.024-.034.024-.036.022-.035.021-.035.02-.035.02-.035.017-.035.017-.035.016-.035.015-.034.014-.036.014-.035.013-.034.012-.035.012-.035.01-.035.01-.035.009-.035.008-.035.008-.036.008-.034.007-.035.006-.035.006-.035.006-.035,0-.035,0-.035,0-.035,0-.036,0-.035,0h-.035l-.035,0h-.347l-.035,0h-.035l-.035,0-.036,0-.035,0-.035,0-.035,0-.035,0-.035,0-.035,0-.035,0-.035,0-.036,0-.034,0-.035,0-.035,0-.034-.006-.035,0-.035-.006-.035-.006-.035-.006-.036-.006-.035-.006-.035-.007-.035-.007-.035-.007-.035-.007-.035-.007-.035-.007-.036-.008-.035-.008-.035-.008-.035-.008-.034-.008-.035-.009-.035-.008-.035-.009-.035-.009-.036-.009-.035-.009-.034-.01-.035-.009-.035-.01-.034-.01-.035-.01-.035-.01-.035-.012-.036-.01-.035-.012-.035-.012-.035-.012-.035-.012-.035-.012-.034-.013L406,14.383l-.036-.013-.035-.013-.035-.013-.035-.013-.035-.014-.035-.013-.035-.014-.034-.014-.035-.013-.036-.015-.034-.014-.035-.014-.035-.015-.035-.014-.035-.015-.034-.015-.035-.015-.035-.015-.036-.016-.035-.015-.035-.016-.035-.015-.035-.016-.035-.016-.035-.016-.035-.016Z" transform="translate(-386.386 0.224)" fill="url(#linear-gradient-3)"/>
  </g>
  <rect id="Rectangle_18729" data-name="Rectangle 18729" width="32.526" height="25" fill="#425466" style="mix-blend-mode: color;isolation: isolate"/>
</svg>
