<svg id="Component_87_22" data-name="Component 87 – 22" xmlns="http://www.w3.org/2000/svg" width="39.019" height="25" viewBox="0 0 39.019 25">
  <g id="Group_172498" data-name="Group 172498" transform="translate(-39.018)">
    <path id="Path_164050" data-name="Path 164050" d="M465.133,24.1a1.83,1.83,0,0,0,1.83,2.372h10.046a3.154,3.154,0,0,0,2.916-2.372l4.633-20.258a1.828,1.828,0,0,0-1.83-2.37H472.679a3.156,3.156,0,0,0-2.916,2.37Z" transform="translate(-426.053 -1.476)" fill="#c4001e"/>
    <path id="Path_164051" data-name="Path 164051" d="M471.71,24.1a1.83,1.83,0,0,0,1.831,2.372h10.046A3.155,3.155,0,0,0,486.5,24.1l4.632-20.258a1.829,1.829,0,0,0-1.83-2.37H479.258a3.154,3.154,0,0,0-2.916,2.37Z" transform="translate(-423.844 -1.476)" fill="#1b2962"/>
    <path id="Path_164052" data-name="Path 164052" d="M479.709,24.1a1.83,1.83,0,0,0,1.83,2.372h10.046A3.153,3.153,0,0,0,494.5,24.1l4.632-20.258a1.827,1.827,0,0,0-1.83-2.37H487.257a3.156,3.156,0,0,0-2.916,2.37Z" transform="translate(-421.159 -1.476)" fill="#1a6477"/>
    <path id="Path_164053" data-name="Path 164053" d="M484.812,16.543c.279,0,.537,0,.793,0,.027,0,.065-.045.077-.073.061-.187.108-.37.159-.556.012-.04.021-.088.036-.142-.241,0-.465,0-.689,0-.192,0-.147-.028-.2.148-.062.2-.115.409-.176.626m1.929-3.82c-.271,0-.538,0-.8,0-.023,0-.052.036-.059.059a1.777,1.777,0,0,0-.068.226c-.069.236-.136.471-.207.715a.5.5,0,0,1,.071-.016c.266-.072.529-.138.792-.211a.134.134,0,0,0,.08-.085c.06-.187.108-.37.16-.556.011-.037.019-.08.031-.135m-.425,1.52c-.282,0-.541,0-.8,0-.025,0-.064.033-.066.053-.1.329-.186.654-.278.991.02,0,.029,0,.037,0a3.262,3.262,0,0,1,.842-.272.068.068,0,0,0,.053-.044c.072-.238.138-.471.209-.729m-1.48-1.512c-.076-.008-.142-.011-.218-.017.04-.147.079-.283.116-.419.033-.11.065-.226.1-.334a.107.107,0,0,1,.075-.069c.36,0,.722,0,1.086,0a.211.211,0,0,1,.039.012c-.011.081-.025.167-.039.27.111-.047.206-.084.3-.124a2.368,2.368,0,0,1,.9-.163c.373.007.744,0,1.117,0,.04,0,.081.005.135.009-.011.04-.016.072-.021.1-.061.21-.126.418-.178.629-.02.077-.056.107-.127.1-.093-.013-.135.023-.164.118-.335,1.2-.681,2.4-1.022,3.605-.008.027-.012.055-.02.092.071,0,.134.007.211.007-.009.037-.009.071-.016.1-.057.192-.117.389-.166.581-.021.073-.052.108-.126.1-.1-.019-.142.023-.167.12-.05.211-.057.21-.274.21h-.931c.028-.112.053-.212.084-.325h-2.209a.458.458,0,0,1,0-.076c.06-.214.124-.423.18-.638.019-.069.065-.076.122-.067.1.015.136-.032.163-.127q.509-1.811,1.026-3.625c0-.015.009-.025.017-.06" transform="translate(-419.924 2.019)" fill="#fff"/>
    <path id="Path_164054" data-name="Path 164054" d="M470.649,6.274c-.04.208-.082.4-.12.6-.232,1.109-.465,2.217-.687,3.329a1.309,1.309,0,0,0,.008.484.664.664,0,0,0,.669.514,1.464,1.464,0,0,0,1.129-.313,1.391,1.391,0,0,0,.43-.823q.381-1.851.767-3.7c.012-.049.019-.088.086-.085h1.1c.012,0,.024,0,.044.007a.408.408,0,0,1,0,.057c-.271,1.3-.536,2.609-.818,3.911a2.378,2.378,0,0,1-1.971,1.931,3.4,3.4,0,0,1-1.611-.019,1.389,1.389,0,0,1-1.094-1.074,2.319,2.319,0,0,1,.039-.982q.387-1.865.772-3.728c.017-.077.045-.11.128-.108.338.005.676,0,1.018,0Z" transform="translate(-424.885 0.135)" fill="#fff"/>
    <path id="Path_164055" data-name="Path 164055" d="M481.336,14.307h.134c.48,0,.963.008,1.447.005a.182.182,0,0,0,.138-.069c.051-.142.088-.29.128-.442-.562,0-1.107,0-1.651,0a.08.08,0,0,0-.064.039c-.046.15-.084.3-.131.466m2.158-1.654a.376.376,0,0,0-.053-.007c-.525,0-1.053,0-1.583,0-.059,0-.078.029-.087.076-.052.176-.1.354-.148.526-.007.023-.007.045-.012.072.021-.008.033-.011.045-.016a1.633,1.633,0,0,1,.756-.16c.287.005.579,0,.868,0,.031,0,.087-.029.092-.055.047-.138.08-.28.122-.433m-1.615-.772c-.015.131-.027.252-.036.387.116-.068.218-.132.323-.188a1.8,1.8,0,0,1,.917-.228c.549.007,1.1,0,1.644,0,.04,0,.084.005.135.009-.012.055-.02.093-.029.132-.233.852-.473,1.7-.7,2.547a.579.579,0,0,1-.519.449,1.557,1.557,0,0,1-.282.024c-.692,0-1.389,0-2.085,0-.085,0-.115.025-.132.1-.155.577-.315,1.153-.473,1.727-.037.154-.02.178.135.18h.414c-.056.2-.1.386-.154.564a.1.1,0,0,1-.075.045c-.417,0-.829-.011-1.244-.02a.635.635,0,0,1-.178-.045.232.232,0,0,1-.153-.3c.115-.437.233-.872.351-1.31.361-1.328.723-2.653,1.076-3.976.021-.083.055-.11.137-.11.274.007.548,0,.821,0a1.068,1.068,0,0,1,.108.005" transform="translate(-421.25 2.008)" fill="#fff"/>
    <path id="Path_164056" data-name="Path 164056" d="M484.493,9.043c.027,0,.037.011.05.011.386,0,.77.009,1.154,0a.9.9,0,0,0,.661-.272,1.213,1.213,0,0,0,.281-.87.4.4,0,0,0-.266-.39,1.369,1.369,0,0,0-.413-.1c-.35-.015-.7-.005-1.058-.009-.063,0-.082.027-.094.084-.051.251-.105.5-.154.744s-.108.53-.162.8m-1.813,3.048c.049-.25.1-.486.146-.727q.4-1.931.795-3.868c.068-.326.135-.657.2-.983a.092.092,0,0,1,.1-.087c.864,0,1.73,0,2.594,0a1.646,1.646,0,0,1,.786.2,1.048,1.048,0,0,1,.554.882,2.391,2.391,0,0,1-.485,1.7,2.017,2.017,0,0,1-1.551.825c-.475.027-.951.016-1.429.017a.12.12,0,0,0-.139.114c-.119.612-.246,1.226-.37,1.835-.011.067-.039.1-.114.1-.331-.007-.665,0-1,0-.027,0-.052-.005-.092-.009" transform="translate(-420.142 0.187)" fill="#fff"/>
    <path id="Path_164057" data-name="Path 164057" d="M487.75,15.127h-1.107c.069-.247.135-.477.207-.711.008-.023.065-.036.1-.036.346,0,.693-.005,1.038,0,.075,0,.108-.017.127-.091.05-.192.107-.375.163-.577h-1.221c.008-.049.013-.076.021-.108.056-.187.108-.377.159-.562.017-.061.041-.094.115-.091h3.4c.024,0,.049.007.086.011-.009.035-.015.067-.022.1-.051.188-.11.374-.158.566a.1.1,0,0,1-.115.085c-.316,0-.635,0-.95,0-.071,0-.1.017-.122.088-.047.2-.1.381-.159.581h1.122c-.017.067-.029.124-.044.176-.048.166-.1.325-.135.489a.111.111,0,0,1-.124.095c-.355-.005-.711,0-1.066-.007a.169.169,0,0,0-.164.095c-.06.1-.128.2-.207.315.182,0,.331.005.49,0,.082,0,.122.02.132.11.036.246.083.493.122.743a.157.157,0,0,0,.167.14c.079.005.156,0,.243,0-.005.031-.005.055-.01.076-.055.192-.108.386-.159.584a.093.093,0,0,1-.105.073h-.724a.4.4,0,0,1-.445-.37c-.032-.252-.1-.5-.155-.761-.191.289-.379.558-.554.839a.63.63,0,0,1-.585.315c-.318-.007-.631,0-.95,0h-.122c.025-.1.048-.186.072-.274.035-.126.079-.256.108-.385a.089.089,0,0,1,.1-.076c.082,0,.166,0,.244,0a.391.391,0,0,0,.345-.17c.284-.406.561-.808.84-1.217.005-.008.005-.015.011-.045" transform="translate(-419.016 2.377)" fill="#fff"/>
    <path id="Path_164058" data-name="Path 164058" d="M489.88,8.054h1.2c.008.387.024.765.03,1.147s0,.756,0,1.134l.042,0c.1-.239.2-.477.3-.716.211-.49.426-.982.629-1.471a.154.154,0,0,1,.167-.112c.266.007.529,0,.793,0,.035,0,.069,0,.122.005-.02.045-.031.079-.047.112q-1.058,2.146-2.116,4.29a4.86,4.86,0,0,1-.972,1.388,1.786,1.786,0,0,1-1.127.5c-.107.007-.212.012-.335.021.022-.16.04-.3.056-.434a.568.568,0,0,1,.02-.126.154.154,0,0,1,.057-.079,1.856,1.856,0,0,0,.83-.692,5.982,5.982,0,0,0,.632-1.177.863.863,0,0,0-.005-.378c-.02-.287-.047-.574-.071-.864-.028-.371-.062-.741-.092-1.111s-.057-.715-.083-1.073c-.009-.115-.019-.234-.029-.37" transform="translate(-418.165 0.729)" fill="#fff"/>
    <path id="Path_164059" data-name="Path 164059" d="M488.521,9.527a1.841,1.841,0,0,0-.111-.361A.349.349,0,0,0,487.93,9a.724.724,0,0,0-.191.112,1.476,1.476,0,0,0-.5,1.15.73.73,0,0,0,.116.437.362.362,0,0,0,.425.152.761.761,0,0,0,.363-.252,1.693,1.693,0,0,0,.374-1.067m.14-.972c.064-.04.128-.08.186-.124a.7.7,0,0,1,.463-.172c.2,0,.393-.031.584-.048.043,0,.084,0,.136,0-.054.251-.1.494-.159.736-.179.816-.363,1.635-.54,2.458-.019.085-.051.11-.132.106-.312-.012-.622-.012-.932-.024a.273.273,0,0,1-.123-.059,1.49,1.49,0,0,1-.1-.119c-.222.064-.436.135-.655.19a1.2,1.2,0,0,1-.6,0,.83.83,0,0,1-.626-.692A2.461,2.461,0,0,1,486.3,9.5a2.787,2.787,0,0,1,.4-.777,1.35,1.35,0,0,1,.92-.514,1.123,1.123,0,0,1,.862.219c.059.037.12.084.183.128" transform="translate(-418.984 0.779)" fill="#fff"/>
    <path id="Path_164060" data-name="Path 164060" d="M479.97,16.537c-.061.218-.113.422-.176.624a.088.088,0,0,1-.069.047c-.623,0-1.242.007-1.869,0a.339.339,0,0,1-.345-.454c.064-.3.152-.6.233-.9.047-.176.095-.358.151-.552h-.763c.037-.13.064-.247.095-.362.027-.1.055-.191.079-.293a.084.084,0,0,1,.095-.072c.209.005.413.005.619,0,.028,0,.076-.02.081-.037.061-.21.115-.417.175-.637h-.72c.005-.035.008-.06.013-.085.049-.184.1-.367.149-.556.016-.057.04-.092.111-.083a.425.425,0,0,0,.083,0h2.893c-.013.053-.022.1-.033.139-.042.16-.092.323-.131.484-.019.075-.044.1-.127.1-.345-.005-.687,0-1.03,0-.082,0-.111.025-.131.1-.045.187-.1.377-.151.573h1.179c-.005.035-.005.06-.011.085-.048.18-.1.363-.146.544a.111.111,0,0,1-.128.1c-.331-.005-.665,0-1-.005-.084,0-.11.031-.13.106-.08.3-.163.6-.248.9-.044.164,0,.227.172.228.3,0,.588,0,.882,0Z" transform="translate(-422.004 2.454)" fill="#fff"/>
    <path id="Path_164061" data-name="Path 164061" d="M477.94,10.2c0,.043,0,.079,0,.119a.556.556,0,0,0,.5.56.865.865,0,0,0,.895-.445,1.95,1.95,0,0,0,.263-1.117.544.544,0,0,0-.441-.529.815.815,0,0,0-.845.285,1.879,1.879,0,0,0-.372,1.127m.474,1.463a1.521,1.521,0,0,1-.781-.174A1.206,1.206,0,0,1,477,10.361a2.61,2.61,0,0,1,.434-1.481,2,2,0,0,1,2.248-.816,1.182,1.182,0,0,1,.84,1.081,2.461,2.461,0,0,1-.7,1.961,1.943,1.943,0,0,1-1.411.554" transform="translate(-422.047 0.709)" fill="#fff"/>
    <path id="Path_164062" data-name="Path 164062" d="M480.724,11.567h-.9c.056-.27.105-.538.158-.8.174-.868.35-1.736.521-2.6.016-.076.044-.1.115-.1.255,0,.506,0,.779,0-.03.158-.058.3-.083.446a.346.346,0,0,1,.033.032.24.24,0,0,1,.036-.075,1.383,1.383,0,0,1,1.491-.426.761.761,0,0,1,.521.652,2.245,2.245,0,0,1-.08.76c-.135.679-.273,1.35-.4,2.029-.015.076-.047.094-.116.094-.224-.005-.455,0-.685,0-.035,0-.07-.007-.116-.009.028-.163.059-.318.088-.473l.352-1.782.005-.029c.048-.354-.106-.525-.462-.516a.851.851,0,0,0-.836.727c-.138.649-.263,1.3-.391,1.953-.011.035-.019.077-.028.119" transform="translate(-421.099 0.71)" fill="#fff"/>
    <path id="Path_164063" data-name="Path 164063" d="M473.972,8.07c-.031.168-.059.318-.092.489.041-.043.064-.075.091-.1a1.368,1.368,0,0,1,1.447-.421.726.726,0,0,1,.553.741,5.828,5.828,0,0,1-.121.868c-.112.605-.241,1.209-.361,1.809-.007.039-.017.069-.027.112h-.891c.033-.176.066-.342.1-.512.114-.561.226-1.126.337-1.687a.936.936,0,0,0,.008-.291.325.325,0,0,0-.3-.309.835.835,0,0,0-.94.554,5.138,5.138,0,0,0-.164.691c-.1.492-.2.987-.291,1.479-.01.041-.015.08-.075.08-.274,0-.545,0-.835,0,.027-.162.058-.314.087-.465.194-.97.388-1.938.578-2.912.019-.1.056-.134.156-.128.243.011.485,0,.743,0" transform="translate(-423.589 0.708)" fill="#fff"/>
    <path id="Path_164064" data-name="Path 164064" d="M482.937,16.222c-.052.2-.1.377-.155.55a.093.093,0,0,1-.069.049c-.421,0-.84.007-1.262,0a.38.38,0,0,1-.379-.4c0-.317.013-.64.02-.956s.027-.657.039-.988c.005-.131.005-.131.131-.131h.9c-.008.147-.015.28-.021.427.111,0,.208,0,.308,0a.146.146,0,0,0,.146-.127c.068-.275.072-.274.359-.274h.577a4.536,4.536,0,0,1-.222.617.637.637,0,0,1-.563.331c-.17.011-.341.011-.509.007-.083,0-.119.02-.115.111.007.2,0,.391,0,.589,0,.115.039.166.155.183a1.845,1.845,0,0,0,.244.019c.132,0,.264,0,.42,0" transform="translate(-420.681 2.844)" fill="#fff"/>
    <path id="Path_164065" data-name="Path 164065" d="M477.087,8.049c-.037.19-.075.361-.11.534-.208.958-.418,1.917-.622,2.88-.015.068-.037.092-.106.092-.263-.005-.525,0-.787,0-.027,0-.055-.005-.092-.008.061-.291.12-.573.181-.855.182-.844.361-1.68.54-2.524.017-.083.045-.123.143-.122.278.009.554,0,.852,0" transform="translate(-422.595 0.73)" fill="#fff"/>
    <path id="Path_164066" data-name="Path 164066" d="M477.589,13.376c.063-.23.12-.442.182-.653a.081.081,0,0,1,.068-.036.652.652,0,0,1,.115,0,.359.359,0,0,0,.324-.184c.112-.191.243-.377.371-.558a.139.139,0,0,1,.1-.059c.351-.005.7,0,1.056,0a.352.352,0,0,1,.052.009c-.077.136-.148.264-.232.413h1.389c-.057.222-.114.423-.172.624-.007.023-.062.044-.092.044q-.729,0-1.453,0a.205.205,0,0,0-.191.085.746.746,0,0,1-.664.326c-.275-.009-.552,0-.852,0" transform="translate(-421.85 2.017)" fill="#fff"/>
    <path id="Path_164067" data-name="Path 164067" d="M487.19,11.851h1.056c.07,0,.07.045.075.093.015.11.029.226.039.337.005.091.056.119.134.12s.148,0,.234,0c-.005.04-.007.068-.012.089-.052.186-.107.367-.156.556a.09.09,0,0,1-.1.073c-.281,0-.56,0-.84,0a.353.353,0,0,1-.388-.362c-.019-.3-.028-.59-.044-.9" transform="translate(-418.627 2.007)" fill="#fff"/>
    <path id="Path_164068" data-name="Path 164068" d="M476.023,7.94c.037-.179.074-.354.112-.533.017-.084.031-.164.055-.246a.1.1,0,0,1,.068-.059c.3,0,.588,0,.883,0a.156.156,0,0,1,.035.008c-.033.172-.072.345-.105.513-.019.091-.036.183-.063.27a.093.093,0,0,1-.067.059c-.294,0-.587,0-.88,0-.005,0-.016-.008-.037-.015" transform="translate(-422.376 0.413)" fill="#fff"/>
  </g>
  <rect id="Rectangle_18730" data-name="Rectangle 18730" width="39.019" height="25" transform="translate(0)" fill="#425466" style="mix-blend-mode: color;isolation: isolate"/>
</svg>
