<svg id="Component_89_22" data-name="Component 89 – 22" xmlns="http://www.w3.org/2000/svg" width="43.351" height="14" viewBox="0 0 43.351 14">
  <g id="Group_141424" data-name="Group 141424">
    <path id="Path_164088" data-name="Path 164088" d="M41.816,6.036l-3.645,9.216L36.695,7.416a1.632,1.632,0,0,0-1.615-1.38H29.12l-.083.394A14.68,14.68,0,0,1,32.492,7.58a1.484,1.484,0,0,1,.832,1.19l2.794,10.807h3.7L45.5,6.036Zm5.184,0L44.1,19.577h3.5L50.5,6.036ZM67.082,9.695l1.062,5.084h-2.9Zm-.513-3.659a1.592,1.592,0,0,0-1.49.993L59.821,19.577H63.5l.73-2.023h4.494l.423,2.023h3.24L69.559,6.036ZM51.454,10.264c-.022,1.951,1.739,3.037,3.066,3.685,1.366.664,1.824,1.089,1.818,1.683-.01.908-1.089,1.309-2.1,1.324a7.336,7.336,0,0,1-3.6-.854l-.634,2.966a10.621,10.621,0,0,0,3.9.719c3.68,0,6.087-1.817,6.1-4.633.014-3.574-4.943-3.77-4.908-5.367.011-.486.473-1,1.486-1.134a6.59,6.59,0,0,1,3.453.605l.615-2.872a9.442,9.442,0,0,0-3.276-.6C53.911,5.788,51.475,7.629,51.454,10.264Z" transform="translate(-29.036 -5.788)" fill="#fff" fill-rule="evenodd"/>
  </g>
</svg>
