<svg xmlns="http://www.w3.org/2000/svg" width="34.786" height="41" viewBox="0 0 34.786 41">
  <g id="debit_payment" data-name="debit payment" transform="translate(-3.5 -1.5)">
    <path id="Path_172377" data-name="Path 172377" d="M26.429,7H21.071C20.48,7,20,7.64,20,8.429V35.571C20,36.36,20.48,37,21.071,37h5.357c1.183,0,2.143-1.279,2.143-2.857V9.857C28.571,8.279,27.612,7,26.429,7Z" transform="translate(9.714 2.143)" fill="#30e87a"/>
    <rect id="Rectangle_14900" data-name="Rectangle 14900" width="25.714" height="40" rx="2" transform="translate(4 2)" fill="none" stroke="#01042b" stroke-width="1"/>
    <rect id="Rectangle_14910" data-name="Rectangle 14910" width="14.286" height="8.571" rx="1" transform="translate(9.714 7.714)" fill="#30e87a"/>
    <rect id="Rectangle_14911" data-name="Rectangle 14911" width="2.857" height="30" transform="translate(32.571 9.143)" fill="#fff"/>
    <rect id="Rectangle_14914" data-name="Rectangle 14914" width="2.857" height="2.857" rx="1" transform="translate(15.429 32)" fill="#30e87a"/>
    <rect id="Rectangle_14923" data-name="Rectangle 14923" width="2.857" height="2.857" rx="1" transform="translate(15.429 20)" fill="#30e87a"/>
    <rect id="Rectangle_14920" data-name="Rectangle 14920" width="2.857" height="2.857" rx="1" transform="translate(15.429 26)" fill="#30e87a"/>
    <rect id="Rectangle_14918" data-name="Rectangle 14918" width="2.857" height="2.857" rx="1" transform="translate(9.714 32)" fill="#30e87a"/>
    <rect id="Rectangle_14922" data-name="Rectangle 14922" width="2.857" height="2.857" rx="1" transform="translate(9.714 20)" fill="#30e87a"/>
    <rect id="Rectangle_14921" data-name="Rectangle 14921" width="2.857" height="2.857" rx="1" transform="translate(9.714 26)" fill="#30e87a"/>
    <rect id="Rectangle_14917" data-name="Rectangle 14917" width="2.857" height="2.857" rx="1" transform="translate(21.143 32)" fill="#30e87a"/>
    <rect id="Rectangle_14924" data-name="Rectangle 14924" width="2.857" height="2.857" rx="1" transform="translate(21.143 20)" fill="#30e87a"/>
    <rect id="Rectangle_14919" data-name="Rectangle 14919" width="2.857" height="2.857" rx="1" transform="translate(21.143 26)" fill="#30e87a"/>
  </g>
</svg>
