<svg xmlns="http://www.w3.org/2000/svg" xmlns:xlink="http://www.w3.org/1999/xlink" width="21" height="19.001" viewBox="0 0 21 19.001">
  <defs>
    <style>
      .cls-1 {
        fill: none;
      }

      .cls-2 {
        clip-path: url(#clip-path);
      }

      .cls-3 {
        fill: #01042b;
      }
    </style>
    <clipPath id="clip-path">
      <rect id="Rectangle_19778" data-name="Rectangle 19778" class="cls-1" width="21" height="19.001" transform="translate(0 0)"/>
    </clipPath>
  </defs>
  <g id="API" transform="translate(0 0)">
    <g id="Group_172636" data-name="Group 172636" class="cls-2">
      <path id="Path_182982" data-name="Path 182982" class="cls-3" d="M1.3,2.254H19.7A1.249,1.249,0,0,1,21,3.439V17.815A1.248,1.248,0,0,1,19.7,19H1.3A1.248,1.248,0,0,1,0,17.815V3.439A1.249,1.249,0,0,1,1.3,2.254M19.7,18c.172,0,.3-.1.3-.185V3.438c0-.087-.128-.185-.3-.185H1.3c-.172,0-.3.1-.3.185V17.814c0,.087.128.185.3.185Z"/>
      <path id="Path_182983" data-name="Path 182983" class="cls-3" d="M20.5.631A.631.631,0,1,1,19.869,0,.63.63,0,0,1,20.5.631"/>
      <path id="Path_182984" data-name="Path 182984" class="cls-3" d="M17.974.631A.631.631,0,1,1,17.343,0a.63.63,0,0,1,.631.631m-2.526,0A.631.631,0,1,1,14.817,0a.63.63,0,0,1,.631.631Z"/>
      <path id="Path_182985" data-name="Path 182985" class="cls-3" d="M8.514,14.379A.492.492,0,0,1,8.25,14.3a.5.5,0,0,1-.159-.689l3.969-6.35a.5.5,0,0,1,.848.529L8.939,14.144a.5.5,0,0,1-.425.235m5.568-.8a.5.5,0,0,1-.353-.854L15.757,10.7,13.729,8.675a.5.5,0,0,1,.707-.707l2.378,2.377a.5.5,0,0,1,.146.357.5.5,0,0,1-.146.358l-2.378,2.378a.5.5,0,0,1-.354.146m-7.164,0a.5.5,0,0,1-.354-.146L4.187,11.06A.5.5,0,0,1,4.04,10.7a.494.494,0,0,1,.147-.357L6.564,7.968a.5.5,0,0,1,.708.707L5.243,10.7,7.272,12.73a.5.5,0,0,1-.354.854"/>
    </g>
  </g>
</svg>
