<svg xmlns="http://www.w3.org/2000/svg" width="17.497" height="20" viewBox="0 0 17.497 20">
  <defs>
    <style>
      .cls-1 {
        fill: #01042b;
      }
    </style>
  </defs>
  <g id="Careers" transform="translate(-25.503 -21.595)">
    <path id="Union_75" data-name="Union 75" class="cls-1" d="M4.526,18.324l-.039-.035-1.15-1.135a1.154,1.154,0,0,1-.389-1.068l.9-5.4.271-.2a3.648,3.648,0,0,0,.553.044l.23.275-.914,5.467a.074.074,0,0,0,.023.053l.042.035,1.019,1.007,1.063-1.042a.06.06,0,0,0,.014-.03l-.007-.028L5.3,10.8l.219-.273a3.912,3.912,0,0,0,.546-.075l.281.194.84,5.441a1.111,1.111,0,0,1-.373,1.07l-1.191,1.17a.827.827,0,0,1-1.1,0ZM4.7,10.405a4.166,4.166,0,0,1-4.006-4.3V4.3a4.716,4.716,0,0,1,.07-.8A1.469,1.469,0,0,0,.588,2.469,4.278,4.278,0,0,1,0,.56V.553A.54.54,0,0,1,.148.166.531.531,0,0,1,.529,0H5.256a4.164,4.164,0,0,1,4,4.3V6.106a4.165,4.165,0,0,1-4,4.3ZM1.49,1.9a2.55,2.55,0,0,1,.317,1.784,3.521,3.521,0,0,0-.055.611V6.106A3.1,3.1,0,0,0,4.7,9.33h.556A3.1,3.1,0,0,0,8.2,6.106V4.3A3.1,3.1,0,0,0,5.256,1.075H1.148A2.991,2.991,0,0,0,1.49,1.9Z" transform="translate(29.201 21.595)"/>
    <path id="Union_77" data-name="Union 77" class="cls-1" d="M10.194,1.075A.534.534,0,0,1,9.665.539.534.534,0,0,1,10.194,0h1.173A.534.534,0,0,1,11.9.539a.534.534,0,0,1-.529.536Zm-9.665,0A.533.533,0,0,1,0,.539.534.534,0,0,1,.529,0H1.7A.534.534,0,0,1,2.23.539a.533.533,0,0,1-.529.536Z" transform="translate(28.03 36.988)"/>
    <path id="Union_76" data-name="Union 76" class="cls-1" d="M0,9.766,0,9.75a.25.25,0,0,1,.035-.137V4.926a5.05,5.05,0,0,1,.38-1.914A4.936,4.936,0,0,1,1.444,1.448,4.778,4.778,0,0,1,2.968.39,4.729,4.729,0,0,1,4.838,0h.643l.164.067a4.3,4.3,0,0,0,.738.569l-.121.44H4.838A3.808,3.808,0,0,0,1.094,4.926v4.9l-.247.219,0,.017C.286,10.027.032,10.013,0,9.766Zm16.435-.035v-4.8a3.807,3.807,0,0,0-3.744-3.849H11.088l-.121-.44A4.26,4.26,0,0,0,11.7.067L11.87,0h.824a4.716,4.716,0,0,1,1.871.39,4.786,4.786,0,0,1,1.526,1.058,4.93,4.93,0,0,1,1.026,1.564A5.012,5.012,0,0,1,17.5,4.926V9.719l-.232.236-.59.011Z" transform="translate(25.503 31.538)"/>
  </g>
</svg>
