<svg xmlns="http://www.w3.org/2000/svg" width="41" height="38.5" viewBox="0 0 41 38.5">
  <g id="Group_171888" data-name="Group 171888" transform="translate(0.5 0.5)">
    <path id="Path_170349" data-name="Path 170349" d="M3.387,40.217A2.861,2.861,0,0,0,.529,43.061V65.867a2.86,2.86,0,0,0,2.858,2.844H37.679a2.861,2.861,0,0,0,2.85-2.844V43.061a2.861,2.861,0,0,0-2.85-2.844Z" transform="translate(-0.529 -40.217)" fill="none" stroke="#01042b" stroke-width="1"/>
    <path id="Path_170350" data-name="Path 170350" d="M5.8,44.715A3.643,3.643,0,0,0,3.25,45.85a3.681,3.681,0,0,0-1.133,2.572v1.47a.737.737,0,0,0,.726.738H14.667a.737.737,0,0,0,.743-.738V48.416a3.692,3.692,0,0,0-1.145-2.566,3.643,3.643,0,0,0-2.551-1.135Z" transform="translate(11.237 -12.63)" fill="#01042b"/>
    <path id="Path_170351" data-name="Path 170351" d="M28.465,42.523a.968.968,0,0,0-.108.014.954.954,0,0,0-.563.28l-5.05,5.027L19.605,44.72a.955.955,0,0,0-1.436.1L13.1,51.557l-3.045-3.03a.955.955,0,0,0-1.465.144L4.765,54.357a.947.947,0,0,0,.263,1.318.957.957,0,0,0,1.324-.262l3.174-4.739,3.009,2.987a.955.955,0,0,0,1.436-.1l5.05-6.736,3.052,3.038a.956.956,0,0,0,1.349,0l5.721-5.7a.947.947,0,0,0-.678-1.637Z" transform="translate(2.981 -34.691)" fill="#30e87a"/>
  </g>
</svg>
