<svg xmlns="http://www.w3.org/2000/svg" width="20" height="20" viewBox="0 0 20 20">
  <defs>
    <style>
      .cls-1 {
        fill: #01042b;
      }
    </style>
  </defs>
  <g id="Group_172636" data-name="Group 172636" transform="translate(-1010.999 -4252)">
    <path id="Union_78" data-name="Union 78" class="cls-1" d="M-8818.783-1093.893a1.887,1.887,0,0,1,.247-.937l-3.973-3.973a4.033,4.033,0,0,1-1.99.825v2.26a1.893,1.893,0,0,1,1.392,1.824A1.893,1.893,0,0,1-8825-1092a1.891,1.891,0,0,1-1.891-1.891,1.892,1.892,0,0,1,1.393-1.825v-2.259a4.036,4.036,0,0,1-1.993-.826l-3.972,3.972a1.881,1.881,0,0,1,.248.938,1.892,1.892,0,0,1-1.894,1.891,1.892,1.892,0,0,1-1.892-1.891,1.892,1.892,0,0,1,1.892-1.891,1.89,1.89,0,0,1,.938.247l3.974-3.974a4.033,4.033,0,0,1-.825-1.99h-2.26a1.893,1.893,0,0,1-1.826,1.39A1.892,1.892,0,0,1-8835-1102a1.892,1.892,0,0,1,1.892-1.891,1.893,1.893,0,0,1,1.827,1.392h2.259a4.033,4.033,0,0,1,.748-1.889l-4.012-4.013a1.892,1.892,0,0,1-.822.187,1.893,1.893,0,0,1-1.892-1.894,1.892,1.892,0,0,1,1.892-1.891,1.892,1.892,0,0,1,1.894,1.891,1.889,1.889,0,0,1-.315,1.048l3.94,3.943a4.037,4.037,0,0,1,2.092-.905v-2.259a1.893,1.893,0,0,1-1.393-1.827A1.891,1.891,0,0,1-8825-1112a1.893,1.893,0,0,1,1.894,1.891,1.894,1.894,0,0,1-1.392,1.826v2.26a4.039,4.039,0,0,1,1.99.824l3.973-3.973a1.889,1.889,0,0,1-.247-.937,1.89,1.89,0,0,1,1.892-1.891,1.891,1.891,0,0,1,1.891,1.891,1.892,1.892,0,0,1-1.891,1.894,1.885,1.885,0,0,1-.938-.248l-3.972,3.972a4.032,4.032,0,0,1,.826,1.993h2.259a1.891,1.891,0,0,1,1.825-1.392A1.891,1.891,0,0,1-8815-1102a1.891,1.891,0,0,1-1.891,1.891,1.89,1.89,0,0,1-1.824-1.39h-2.26a4.035,4.035,0,0,1-.825,1.991l3.973,3.973a1.882,1.882,0,0,1,.937-.248,1.891,1.891,0,0,1,1.891,1.891,1.891,1.891,0,0,1-1.891,1.891A1.89,1.89,0,0,1-8818.783-1093.893Zm-7.108,0a.893.893,0,0,0,.891.891.893.893,0,0,0,.894-.891.893.893,0,0,0-.894-.891A.893.893,0,0,0-8825.892-1093.893Zm-2.162-8.109a3.058,3.058,0,0,0,3.053,3.055,3.058,3.058,0,0,0,3.056-3.055,3.058,3.058,0,0,0-3.056-3.053A3.057,3.057,0,0,0-8828.054-1102Zm10.271,0a.892.892,0,0,0,.892.891A.891.891,0,0,0-8816-1102a.891.891,0,0,0-.891-.891A.892.892,0,0,0-8817.783-1102Zm-16.218,0a.893.893,0,0,0,.892.891.893.893,0,0,0,.894-.891.893.893,0,0,0-.894-.891A.893.893,0,0,0-8834-1102Zm8.109-8.109a.9.9,0,0,0,.891.894.9.9,0,0,0,.894-.894A.894.894,0,0,0-8825-1111,.894.894,0,0,0-8825.892-1110.11Z" transform="translate(9846 5364.001)"/>
  </g>
</svg>
