<svg xmlns="http://www.w3.org/2000/svg" width="41" height="41" viewBox="0 0 41 41">
  <path id="Path_182759" data-name="Path 182759" d="M1269.419,501.234v14.873a2.62,2.62,0,0,1-.767,1.853L1255.9,530.71a2.62,2.62,0,0,1-1.853.768h-23.879a.75.75,0,0,1-.75-.75v-23.88a2.619,2.619,0,0,1,.767-1.852l12.751-12.751a2.62,2.62,0,0,1,1.853-.767h22.82a.75.75,0,0,1,.53,1.279l-7.292,7.292H1237.99v22.858h22.857V500.049h7.386a1.185,1.185,0,0,1,1.185,1.185" transform="translate(-1228.919 -490.978)" fill="none" stroke="#01042b" stroke-width="1"/>
</svg>
