<svg xmlns="http://www.w3.org/2000/svg" width="33.743" height="39.93" viewBox="0 0 33.743 39.93">
  <g id="Group_172780" data-name="Group 172780" transform="translate(0.57 -0.016)">
    <g id="Group_158699" data-name="Group 158699" transform="translate(-40.58 -0.004)">
      <path id="Path_172378" data-name="Path 172378" d="M79.263,14.649,63.648,7.287,48.034,14.649s-5.678,26.144,15.614,31.5C84.941,40.793,79.263,14.649,79.263,14.649Z" transform="translate(-6.767 -6.714)" fill="#fff" stroke="#01042b" stroke-width="1"/>
    </g>
    <path id="Subtraction_79" data-name="Subtraction 79" d="M16.179,24.139h-.755a2.209,2.209,0,0,1-1.882-2.168v-3.3a3.349,3.349,0,0,1-1.016-3.76,3.522,3.522,0,0,1,6.55,0,3.349,3.349,0,0,1-1.016,3.76v3.3a2.209,2.209,0,0,1-1.882,2.168Z" transform="translate(0.5 1.59)" fill="#30e87a"/>
  </g>
</svg>
