<svg xmlns="http://www.w3.org/2000/svg" width="62.264" height="23.822" viewBox="0 0 62.264 23.822">
  <g id="PCI_DSS_Copmlians_logo" data-name="PCI DSS Copmlians logo" transform="translate(-20.8 -206.8)">
    <g id="Group_169669" data-name="Group 169669" transform="translate(20.8 206.8)">
      <g id="Group_169666" data-name="Group 169666" transform="translate(40.9 12.139)">
        <path id="Path_181377" data-name="Path 181377" d="M416.608,333.28l.622.187a1.056,1.056,0,0,1-.2.436.808.808,0,0,1-.332.259,1.2,1.2,0,0,1-.508.093,1.509,1.509,0,0,1-.612-.1.949.949,0,0,1-.4-.384,1.278,1.278,0,0,1-.176-.7,1.217,1.217,0,0,1,.3-.872,1.123,1.123,0,0,1,.851-.3,1.157,1.157,0,0,1,.674.176.947.947,0,0,1,.363.54l-.623.135a.362.362,0,0,0-.073-.156.422.422,0,0,0-.145-.125.407.407,0,0,0-.187-.042.4.4,0,0,0-.363.2.84.84,0,0,0-.093.446.888.888,0,0,0,.114.519.4.4,0,0,0,.322.145.383.383,0,0,0,.3-.114A.708.708,0,0,0,416.608,333.28Z" transform="translate(-415 -331.89)" fill="#fff"/>
        <path id="Path_181378" data-name="Path 181378" d="M438.9,332.983a1.081,1.081,0,0,1,1.183-1.183,1.227,1.227,0,0,1,.882.3,1.153,1.153,0,0,1,.311.861,1.33,1.33,0,0,1-.135.654.961.961,0,0,1-.394.394,1.3,1.3,0,0,1-.633.145,1.481,1.481,0,0,1-.643-.125,1,1,0,0,1-.415-.394A1.175,1.175,0,0,1,438.9,332.983Zm.706,0a.8.8,0,0,0,.124.5.421.421,0,0,0,.353.156.445.445,0,0,0,.353-.145.862.862,0,0,0,.125-.529.645.645,0,0,0-.135-.467.427.427,0,0,0-.353-.145.415.415,0,0,0-.342.156A.694.694,0,0,0,439.606,332.983Z" transform="translate(-436.42 -331.8)" fill="#fff"/>
        <path id="Path_181379" data-name="Path 181379" d="M465.121,332.2h.923l.353,1.39.353-1.39h.923v2.283h-.581V332.74l-.446,1.743h-.519l-.446-1.743v1.743H465.1V332.2Z" transform="translate(-459.902 -332.159)" fill="#fff"/>
        <path id="Path_181380" data-name="Path 181380" d="M494.3,332.2h1.172a.771.771,0,0,1,.571.187.69.69,0,0,1,.187.519.711.711,0,0,1-.208.539.874.874,0,0,1-.633.2h-.384v.851H494.3Zm.706.975h.176a.444.444,0,0,0,.29-.073.237.237,0,0,0,.083-.176.25.25,0,0,0-.073-.187.365.365,0,0,0-.27-.073h-.2v.508Z" transform="translate(-486.072 -332.159)" fill="#fff"/>
        <path id="Path_181381" data-name="Path 181381" d="M516.5,332.2h.706v1.722h1.1v.56H516.5Z" transform="translate(-505.969 -332.159)" fill="#fff"/>
        <path id="Path_181382" data-name="Path 181382" d="M537.3,332.2h.706v2.283H537.3Z" transform="translate(-524.611 -332.159)" fill="#fff"/>
        <path id="Path_181383" data-name="Path 181383" d="M548.429,334.009h-.8l-.114.374H546.8l.861-2.283h.768l.861,2.283h-.737Zm-.145-.488-.249-.82-.249.82Z" transform="translate(-533.125 -332.069)" fill="#fff"/>
        <path id="Path_181384" data-name="Path 181384" d="M572.9,332.2h.654l.861,1.266V332.2h.664v2.283h-.664l-.851-1.255v1.255H572.9Z" transform="translate(-556.517 -332.159)" fill="#fff"/>
        <path id="Path_181385" data-name="Path 181385" d="M596.9,332.2h2.148v.56h-.716v1.722h-.706V332.76h-.716v-.56Z" transform="translate(-578.027 -332.159)" fill="#fff"/>
      </g>
      <g id="Rectangle-3-_x2B_-Letters" transform="translate(0 0)">
        <path id="Rectangle-3" d="M54.821,221.957l2.044-.643L56.2,219.84A16.884,16.884,0,0,0,54.821,221.957Zm-.7-6.734-4-8.923L20.8,207.96l8.124,22.162,15.636-4.928c-1-1.432-1.359-3.133-.208-3.963,1.287-.934,3.227.145,4.461,1.67C50.007,220.909,53.358,216.271,54.126,215.223Z" transform="translate(-20.8 -206.3)" fill="#fff"/>
        <g id="Letters" transform="translate(5.602 2.257)">
          <path id="Oval-1" d="M173.42,190.892a2.1,2.1,0,1,0-2.22-2.1A2.159,2.159,0,0,0,173.42,190.892Zm-1.816.9h3.631v9.494H171.6Z" transform="translate(-150.615 -186.7)" fill="#212341"/>
          <path id="Path-3" d="M79.11,237.012c.031.01.052,0,.052-.031v-2.407a.106.106,0,0,0-.052-.083,4.392,4.392,0,0,0-1.93-.394,10.081,10.081,0,0,0-1.691,0c-5.292.425-5.489,4.254-5.489,4.42v.934c0,.114,0,4.026,5.489,4.368.54.041,1.587,0,1.691,0a5.785,5.785,0,0,0,2.137-.384.078.078,0,0,0,.052-.073V241.11c0-.031-.021-.042-.042-.021a4.829,4.829,0,0,1-2.117.488,3.069,3.069,0,0,1-.9,0c-2.449-.415-2.563-2.2-2.563-2.2,0-.031-.01-.083-.01-.1v-.685a.32.32,0,0,1,.01-.1,2.53,2.53,0,0,1,2.563-2.127h.9A5.407,5.407,0,0,1,79.11,237.012Z" transform="translate(-59.915 -229.147)" fill="#212341"/>
          <path id="Path-1" d="M-27.2,245.221a.049.049,0,0,0,.052.052h3.538a.049.049,0,0,0,.052-.052v-2.76a.049.049,0,0,1,.052-.052s5.655.4,5.655-3.382c0-3-3.548-3.32-4.71-3.268h-4.586a.049.049,0,0,0-.052.052Zm3.58-4.918v-2.48h.872s1.255.052,1.359.913a2.076,2.076,0,0,1,0,.508,1.342,1.342,0,0,1-1.255,1.058Z" transform="translate(27.2 -230.664)" fill="#212341"/>
        </g>
        <path id="Path-7" d="M255.806,282.3a1.867,1.867,0,0,0,.892-.166c1.287-.674,5.634-11.289,10.22-14.557a.315.315,0,0,0,.083-.083.152.152,0,0,0,.031-.083s0-.218-.674-.218c-4.078-.114-8.321,8.446-10.552,11.828-.031.041-.176,0-.176,0a12.237,12.237,0,0,0-2.791-2.438.887.887,0,0,0-.332-.052,1.882,1.882,0,0,0-.986.415,1.1,1.1,0,0,0-.322.975.717.717,0,0,0,.062.249,21.329,21.329,0,0,0,2.957,3.652A2.014,2.014,0,0,0,255.806,282.3Z" transform="translate(-227.294 -260.872)" fill="#fff"/>
      </g>
      <g id="Group_169667" data-name="Group 169667" transform="translate(40.828 3.362)">
        <path id="Path_181386" data-name="Path 181386" d="M414.3,248.5h3.393a4.1,4.1,0,0,1,1.619.27,2.641,2.641,0,0,1,1.017.778,3.156,3.156,0,0,1,.581,1.183,5.3,5.3,0,0,1,.187,1.432,5.044,5.044,0,0,1-.27,1.836,3.043,3.043,0,0,1-.747,1.1,2.6,2.6,0,0,1-1.027.591,5.239,5.239,0,0,1-1.359.2H414.3Zm2.283,1.67v4.036h.56a2.374,2.374,0,0,0,1.017-.156,1.1,1.1,0,0,0,.477-.55,3.47,3.47,0,0,0,.176-1.287,2.459,2.459,0,0,0-.384-1.608,1.621,1.621,0,0,0-1.276-.436Z" transform="translate(-414.3 -248.365)" fill="#fff"/>
        <path id="Path_181387" data-name="Path 181387" d="M485.9,252.284l2.179-.135a1.719,1.719,0,0,0,.291.809,1.2,1.2,0,0,0,1.006.446,1.12,1.12,0,0,0,.757-.228.659.659,0,0,0,.021-1.048,2.871,2.871,0,0,0-1.172-.425,5.048,5.048,0,0,1-2.148-.9,1.792,1.792,0,0,1-.643-1.432,1.968,1.968,0,0,1,.332-1.079,2.164,2.164,0,0,1,1-.8,4.576,4.576,0,0,1,1.816-.291,3.68,3.68,0,0,1,2.158.529,2.272,2.272,0,0,1,.882,1.681l-2.158.124a1.182,1.182,0,0,0-.363-.726,1.139,1.139,0,0,0-.757-.228.906.906,0,0,0-.6.166.515.515,0,0,0-.2.415.413.413,0,0,0,.166.322,1.9,1.9,0,0,0,.768.27,10,10,0,0,1,2.148.654,2.254,2.254,0,0,1,.944.82,2.075,2.075,0,0,1,.29,1.1,2.333,2.333,0,0,1-.394,1.307,2.449,2.449,0,0,1-1.1.913,4.439,4.439,0,0,1-1.785.311,3.665,3.665,0,0,1-2.615-.726A2.951,2.951,0,0,1,485.9,252.284Z" transform="translate(-478.471 -247.2)" fill="#fff"/>
      </g>
      <g id="Group_169668" data-name="Group 169668" transform="translate(55.551 3.362)">
        <path id="Path_181388" data-name="Path 181388" d="M556.2,252.284l2.179-.135a1.719,1.719,0,0,0,.29.809,1.2,1.2,0,0,0,1.006.446,1.12,1.12,0,0,0,.757-.228.659.659,0,0,0,.021-1.048,2.871,2.871,0,0,0-1.172-.425,5.048,5.048,0,0,1-2.148-.9,1.825,1.825,0,0,1-.643-1.432,1.968,1.968,0,0,1,.332-1.079,2.164,2.164,0,0,1,1-.8,4.576,4.576,0,0,1,1.816-.291,3.68,3.68,0,0,1,2.158.529,2.272,2.272,0,0,1,.882,1.681l-2.158.124a1.182,1.182,0,0,0-.363-.726,1.138,1.138,0,0,0-.757-.228.906.906,0,0,0-.6.166.515.515,0,0,0-.2.415.413.413,0,0,0,.166.322,1.9,1.9,0,0,0,.768.27,10,10,0,0,1,2.148.654,2.254,2.254,0,0,1,.944.82,2.076,2.076,0,0,1,.29,1.1,2.333,2.333,0,0,1-.394,1.307,2.449,2.449,0,0,1-1.1.913,4.438,4.438,0,0,1-1.785.311,3.665,3.665,0,0,1-2.615-.726A2.846,2.846,0,0,1,556.2,252.284Z" transform="translate(-556.2 -247.2)" fill="#fff"/>
      </g>
    </g>
  </g>
</svg>
