<svg id="PSD2_logo_w" xmlns="http://www.w3.org/2000/svg" width="50" height="50" viewBox="0 0 50 50">
  <path id="Path_181361" data-name="Path 181361" d="M341.489,0l-.805,2.5H338.07l2.113,1.548-.807,2.5L341.489,5,343.6,6.551l-.807-2.5L344.91,2.5H342.3Z" transform="translate(-316.491)" fill="#fff"/>
  <path id="Path_181362" data-name="Path 181362" d="M342.3,678.583l-.807-2.5-.805,2.5H338.07l2.113,1.548-.807,2.5,2.113-1.544,2.116,1.544-.807-2.5,2.113-1.548Z" transform="translate(-316.491 -632.631)" fill="#fff"/>
  <path id="Path_181363" data-name="Path 181363" d="M3.421,343.047l2.113,1.544-.805-2.5,2.113-1.544H4.228l-.807-2.5-.808,2.5H0l2.116,1.544-.808,2.5Z" transform="translate(0 -316.316)" fill="#fff"/>
  <path id="Path_181364" data-name="Path 181364" d="M172.471,45.3l-.807,2.5H169.05l2.113,1.544-.805,2.5,2.113-1.548,2.113,1.548-.809-2.5,2.117-1.544h-2.614Z" transform="translate(-158.259 -42.389)" fill="#fff"/>
  <path id="Path_181365" data-name="Path 181365" d="M48.723,169.02l-.809,2.5H45.3l2.113,1.547-.807,2.5,2.117-1.544,2.113,1.544-.809-2.5,2.113-1.547H49.526Z" transform="translate(-42.408 -158.158)" fill="#fff"/>
  <path id="Path_181366" data-name="Path 181366" d="M49.53,509.619l-.807-2.5-.809,2.5H45.3l2.113,1.548-.807,2.5,2.117-1.544,2.113,1.544-.809-2.5,2.113-1.548Z" transform="translate(-42.408 -474.529)" fill="#fff"/>
  <path id="Path_181367" data-name="Path 181367" d="M173.278,633.344l-.807-2.5-.807,2.5H169.05l2.113,1.544-.809,2.5,2.116-1.547,2.113,1.547-.809-2.5,2.117-1.544Z" transform="translate(-158.259 -590.298)" fill="#fff"/>
  <path id="Path_181368" data-name="Path 181368" d="M682.953,340.544h-2.614l-.809-2.5-.807,2.5H676.11l2.114,1.544-.808,2.5,2.116-1.544,2.113,1.544-.807-2.5Z" transform="translate(-632.953 -316.316)" fill="#fff"/>
  <path id="Path_181369" data-name="Path 181369" d="M510.539,45.3l-.807,2.5H507.12l2.113,1.544-.807,2.5,2.113-1.548,2.113,1.548-.805-2.5,2.113-1.544h-2.613Z" transform="translate(-474.75 -42.389)" fill="#fff"/>
  <path id="Path_181370" data-name="Path 181370" d="M632.954,173.071l-.807,2.5,2.113-1.544,2.116,1.544-.807-2.5,2.113-1.547h-2.614l-.807-2.5-.807,2.5H630.84Z" transform="translate(-590.573 -158.158)" fill="#fff"/>
  <path id="Path_181371" data-name="Path 181371" d="M635.066,509.619l-.807-2.5-.807,2.5H630.84l2.114,1.548-.807,2.5,2.113-1.544,2.116,1.544-.807-2.5,2.113-1.548Z" transform="translate(-590.573 -474.529)" fill="#fff"/>
  <path id="Path_181372" data-name="Path 181372" d="M511.346,633.344l-.807-2.5-.807,2.5H507.12l2.113,1.544-.807,2.5,2.113-1.547,2.113,1.547-.805-2.5,2.113-1.544Z" transform="translate(-474.75 -590.298)" fill="#fff"/>
  <path id="Path_181373" data-name="Path 181373" d="M2522.538,1592h3.506a2.689,2.689,0,0,1,1.359.328,2.176,2.176,0,0,1,.865.877,2.574,2.574,0,0,1,.293,1.228,2.515,2.515,0,0,1-.3,1.216,2.191,2.191,0,0,1-.865.871,2.7,2.7,0,0,1-1.354.321h-1.91v2.7h-1.6Zm4.078,1.671a1.118,1.118,0,0,0-.786-.289h-1.7v2.081h1.7a1.115,1.115,0,0,0,.792-.288.982.982,0,0,0,.309-.752.97.97,0,0,0-.314-.753Z" transform="translate(-2511.077 -1570.635)" fill="#fff"/>
  <path id="Path_181374" data-name="Path 181374" d="M2625.154,1595.431a3.32,3.32,0,0,0,1.039.736,3.165,3.165,0,0,0,1.34.282,1.606,1.606,0,0,0,.961-.25.732.732,0,0,0,.343-.6.634.634,0,0,0-.371-.586,4.873,4.873,0,0,0-1.149-.381,12.313,12.313,0,0,1-1.427-.408,2.385,2.385,0,0,1-.957-.663,1.8,1.8,0,0,1-.411-1.241,2.036,2.036,0,0,1,.348-1.157,2.354,2.354,0,0,1,.994-.822,3.523,3.523,0,0,1,1.5-.3,4.124,4.124,0,0,1,2.921,1.051l-.887,1.176a2.977,2.977,0,0,0-1.006-.616,3.274,3.274,0,0,0-1.14-.209,1.356,1.356,0,0,0-.814.21.666.666,0,0,0-.287.564.544.544,0,0,0,.348.518,6.541,6.541,0,0,0,1.149.359,10.145,10.145,0,0,1,1.421.414,2.508,2.508,0,0,1,.978.686,1.8,1.8,0,0,1,.41,1.235,2.217,2.217,0,0,1-.77,1.758,3.3,3.3,0,0,1-2.229.669,4.281,4.281,0,0,1-3.179-1.2Z" transform="translate(-2606.325 -1568.8)" fill="#fff"/>
  <path id="Path_181375" data-name="Path 181375" d="M2738,1592h2.955a4.4,4.4,0,0,1,2.068.469,3.45,3.45,0,0,1,1.4,1.329,4.116,4.116,0,0,1,0,3.953,3.453,3.453,0,0,1-1.4,1.324,4.394,4.394,0,0,1-2.068.469H2738Zm2.955,6.13a2.411,2.411,0,0,0,1.253-.317,2.121,2.121,0,0,0,.814-.854,2.514,2.514,0,0,0,.282-1.182,2.4,2.4,0,0,0-.618-1.7,2.248,2.248,0,0,0-1.733-.661H2739.6v4.717Z" transform="translate(-2712.787 -1570.635)" fill="#fff"/>
  <path id="Path_181376" data-name="Path 181376" d="M2858.495,1596.462q1.66-1.236,2.466-1.905a6.8,6.8,0,0,0,1.149-1.145,1.593,1.593,0,0,0,.348-.941.844.844,0,0,0-.359-.725,1.429,1.429,0,0,0-.865-.261,2.667,2.667,0,0,0-2,.871l-.91-1.063a3.343,3.343,0,0,1,1.3-.922,4.211,4.211,0,0,1,1.59-.311,3.513,3.513,0,0,1,1.455.295,2.434,2.434,0,0,1,1.033.836,2.2,2.2,0,0,1,.377,1.28,2.846,2.846,0,0,1-.742,1.824,12.281,12.281,0,0,1-2.325,2.017h3.123v1.414H2858.5Z" transform="translate(-2825.429 -1568.82)" fill="#fff"/>
</svg>
