<svg id="Unionpay" xmlns="http://www.w3.org/2000/svg" width="78.038" height="50" viewBox="0 0 78.038 50">
  <path id="Path_164050" data-name="Path 164050" d="M465.194,46.732a3.66,3.66,0,0,0,3.66,4.744h20.091a6.307,6.307,0,0,0,5.832-4.744l9.267-40.517a3.657,3.657,0,0,0-3.66-4.739h-20.1a6.313,6.313,0,0,0-5.832,4.739Z" transform="translate(-465.071 -1.476)" fill="#c4001e"/>
  <path id="Path_164051" data-name="Path 164051" d="M471.772,46.732a3.661,3.661,0,0,0,3.663,4.744h20.091a6.309,6.309,0,0,0,5.832-4.744l9.264-40.517a3.658,3.658,0,0,0-3.66-4.739H486.868a6.308,6.308,0,0,0-5.832,4.739Z" transform="translate(-454.077 -1.476)" fill="#1b2962"/>
  <path id="Path_164052" data-name="Path 164052" d="M479.771,46.732a3.66,3.66,0,0,0,3.66,4.744h20.092a6.307,6.307,0,0,0,5.834-4.744l9.265-40.517a3.655,3.655,0,0,0-3.66-4.739H494.867a6.312,6.312,0,0,0-5.832,4.739Z" transform="translate(-440.707 -1.476)" fill="#1a6477"/>
  <path id="Path_164053" data-name="Path 164053" d="M486.3,21.2c.558,0,1.074,0,1.587-.008.053-.005.131-.091.155-.147.123-.374.216-.74.318-1.111.024-.08.043-.176.072-.283-.481,0-.93,0-1.378,0-.385,0-.294-.056-.4.3-.123.4-.229.817-.353,1.253m3.857-7.64c-.542,0-1.077,0-1.6.008-.045,0-.1.072-.118.118a3.554,3.554,0,0,0-.136.451c-.139.473-.272.943-.414,1.429a1,1,0,0,1,.142-.032c.532-.144,1.058-.275,1.584-.422a.269.269,0,0,0,.161-.171c.12-.374.216-.74.32-1.111.021-.075.038-.16.062-.27m-.85,3.04c-.563,0-1.082,0-1.6,0-.051.005-.128.067-.131.107-.192.657-.371,1.309-.555,1.982.04,0,.059.008.075,0a6.524,6.524,0,0,1,1.683-.545.137.137,0,0,0,.107-.088c.144-.476.275-.943.419-1.459m-2.96-3.024c-.152-.016-.283-.021-.435-.035.08-.294.158-.566.232-.839.067-.219.131-.451.2-.668a.214.214,0,0,1,.15-.139c.721-.008,1.445,0,2.171,0a.424.424,0,0,1,.078.024c-.021.163-.051.334-.078.54.222-.093.412-.168.6-.248a4.737,4.737,0,0,1,1.809-.326c.745.013,1.488,0,2.233,0,.08,0,.163.011.27.019-.021.08-.032.144-.043.2-.123.419-.251.836-.355,1.258-.041.155-.112.214-.254.192-.187-.027-.27.045-.329.235-.67,2.4-1.362,4.8-2.043,7.21-.016.053-.024.11-.041.184.142.008.268.013.422.013-.019.075-.019.142-.032.2-.115.385-.235.777-.331,1.162-.042.147-.1.216-.251.192-.206-.037-.283.045-.334.24-.1.422-.115.419-.547.419H487.58c.056-.224.107-.425.168-.649H483.33a.909.909,0,0,1,0-.152c.12-.427.249-.847.36-1.277.038-.139.131-.152.243-.134.2.029.272-.064.326-.254q1.018-3.622,2.052-7.25c.008-.029.018-.051.034-.12" transform="translate(-434.558 15.921)" fill="#fff"/>
  <path id="Path_164054" data-name="Path 164054" d="M472.752,6.276c-.081.417-.163.8-.241,1.194-.465,2.217-.929,4.434-1.373,6.657a2.619,2.619,0,0,0,.016.967,1.329,1.329,0,0,0,1.338,1.028,2.928,2.928,0,0,0,2.257-.625,2.782,2.782,0,0,0,.86-1.646q.762-3.7,1.533-7.405c.024-.1.037-.176.171-.171.734,0,1.464,0,2.207,0,.023,0,.048.008.088.013a.816.816,0,0,1,0,.115c-.542,2.607-1.071,5.217-1.635,7.822a4.755,4.755,0,0,1-3.943,3.863,6.81,6.81,0,0,1-3.222-.037,2.778,2.778,0,0,1-2.187-2.148,4.637,4.637,0,0,1,.077-1.963q.773-3.731,1.544-7.456c.035-.155.09-.219.256-.216.676.011,1.352.005,2.036.005Z" transform="translate(-459.261 6.538)" fill="#fff"/>
  <path id="Path_164055" data-name="Path 164055" d="M483.3,16.762h.267c.959.008,1.926.016,2.893.011a.364.364,0,0,0,.275-.139c.1-.283.176-.58.256-.884-1.125,0-2.214-.005-3.3,0a.161.161,0,0,0-.128.077c-.091.3-.168.6-.262.932m4.317-3.307a.754.754,0,0,0-.107-.013c-1.05,0-2.1,0-3.166,0-.117,0-.155.059-.174.152-.1.353-.205.708-.3,1.053-.013.045-.013.091-.024.144.043-.016.067-.021.091-.032a3.266,3.266,0,0,1,1.512-.321c.575.011,1.157.005,1.737-.005.062,0,.173-.059.184-.11.094-.275.16-.561.243-.866m-3.229-1.544c-.03.262-.053.5-.072.775.232-.136.436-.264.646-.377a3.6,3.6,0,0,1,1.835-.457c1.1.013,2.191,0,3.289,0,.08,0,.168.011.27.019-.024.11-.04.187-.059.264-.465,1.7-.946,3.4-1.405,5.094a1.157,1.157,0,0,1-1.039.9,3.111,3.111,0,0,1-.564.048c-1.384,0-2.778.008-4.17,0-.171,0-.23.051-.265.208-.31,1.154-.63,2.305-.946,3.454-.075.307-.04.355.271.361H483c-.112.406-.2.772-.307,1.127a.2.2,0,0,1-.149.091c-.833-.005-1.659-.021-2.487-.04a1.268,1.268,0,0,1-.355-.091.464.464,0,0,1-.307-.6c.229-.874.467-1.744.7-2.621.721-2.655,1.445-5.305,2.151-7.953.042-.166.109-.219.275-.219.548.013,1.1.005,1.643.005a2.133,2.133,0,0,1,.217.011" transform="translate(-441.164 15.866)" fill="#fff"/>
  <path id="Path_164056" data-name="Path 164056" d="M486.305,11.659c.054.008.075.021.1.021.772,0,1.541.019,2.308-.005a1.791,1.791,0,0,0,1.323-.545,2.424,2.424,0,0,0,.561-1.739.8.8,0,0,0-.532-.78,2.739,2.739,0,0,0-.826-.192c-.7-.029-1.4-.011-2.116-.019-.125,0-.163.053-.187.168-.1.5-.211.991-.307,1.488-.1.526-.216,1.061-.323,1.6m-3.625,6.1c.1-.5.2-.972.291-1.453q.8-3.863,1.589-7.736c.137-.652.27-1.314.4-1.966a.183.183,0,0,1,.206-.174c1.729.005,3.459-.005,5.188.008a3.291,3.291,0,0,1,1.571.4A2.1,2.1,0,0,1,493.034,8.6a4.78,4.78,0,0,1-.97,3.4,4.035,4.035,0,0,1-3.1,1.651c-.951.053-1.9.032-2.858.035a.24.24,0,0,0-.278.227c-.237,1.223-.491,2.452-.74,3.67-.021.134-.077.2-.227.2-.663-.013-1.33,0-2,0-.053,0-.1-.011-.184-.019" transform="translate(-435.64 6.797)" fill="#fff"/>
  <path id="Path_164057" data-name="Path 164057" d="M489.466,17.3h-2.214c.139-.494.27-.954.414-1.421.016-.045.131-.072.2-.072.691-.008,1.386-.011,2.075,0,.15,0,.217-.035.254-.182.1-.385.214-.751.326-1.154h-2.441c.016-.1.027-.152.043-.216.112-.374.216-.753.318-1.125.035-.123.083-.187.229-.182q3.394,0,6.791,0c.048,0,.1.013.173.021-.018.069-.029.134-.045.192-.1.377-.219.748-.315,1.133a.194.194,0,0,1-.229.171c-.633-.008-1.269,0-1.9-.005-.142,0-.206.035-.243.176-.093.39-.208.761-.318,1.162h2.244c-.035.134-.059.248-.088.353-.1.331-.192.649-.27.978a.222.222,0,0,1-.249.19c-.71-.011-1.421,0-2.132-.013a.337.337,0,0,0-.329.19c-.12.2-.256.393-.414.63.363,0,.663.011.98,0,.163-.008.243.04.264.219.072.492.166.986.243,1.485a.314.314,0,0,0,.334.28c.157.011.312.005.486.005-.011.061-.011.11-.021.152-.11.385-.217.772-.318,1.167a.186.186,0,0,1-.211.147h-1.448a.807.807,0,0,1-.89-.74c-.064-.5-.2-1-.31-1.523-.382.577-.759,1.117-1.108,1.678a1.26,1.26,0,0,1-1.17.63c-.636-.013-1.261,0-1.9,0h-.243c.051-.2.1-.371.144-.548.07-.251.158-.513.216-.769a.178.178,0,0,1,.192-.152c.163.008.332,0,.489.005a.782.782,0,0,0,.689-.339c.569-.812,1.122-1.616,1.68-2.434.011-.016.011-.029.021-.091" transform="translate(-430.036 17.703)" fill="#fff"/>
  <path id="Path_164058" data-name="Path 164058" d="M491.195,8.068h2.4c.016.775.048,1.531.059,2.295s0,1.512,0,2.268l.083.008c.195-.478.4-.954.6-1.432.422-.98.853-1.963,1.258-2.941a.308.308,0,0,1,.334-.224c.531.013,1.058,0,1.587,0,.069,0,.139.008.243.011-.041.091-.062.158-.094.224q-2.115,4.292-4.231,8.58a9.72,9.72,0,0,1-1.945,2.776,3.571,3.571,0,0,1-2.254,1c-.214.013-.425.024-.671.043.043-.321.08-.593.112-.868a1.128,1.128,0,0,1,.04-.251.308.308,0,0,1,.115-.158,3.714,3.714,0,0,0,1.659-1.384,11.958,11.958,0,0,0,1.264-2.353,1.723,1.723,0,0,0-.011-.756c-.04-.574-.094-1.149-.142-1.728-.056-.743-.125-1.483-.184-2.223-.056-.716-.115-1.429-.166-2.145-.019-.23-.037-.467-.059-.74" transform="translate(-425.802 9.496)" fill="#fff"/>
  <path id="Path_164059" data-name="Path 164059" d="M490.918,10.863a3.676,3.676,0,0,0-.222-.721.7.7,0,0,0-.962-.342,1.442,1.442,0,0,0-.382.224,2.954,2.954,0,0,0-.991,2.3,1.46,1.46,0,0,0,.232.874.725.725,0,0,0,.85.3,1.523,1.523,0,0,0,.727-.5,3.386,3.386,0,0,0,.748-2.134m.281-1.945c.128-.08.256-.16.371-.248a1.4,1.4,0,0,1,.927-.345c.39-.005.786-.061,1.167-.1.085-.008.168-.005.272-.005-.107.5-.206.988-.318,1.472-.358,1.632-.727,3.27-1.079,4.915-.037.171-.1.219-.265.211-.625-.024-1.245-.024-1.864-.048a.548.548,0,0,1-.246-.118,2.992,2.992,0,0,1-.2-.238c-.444.128-.871.27-1.309.379a2.39,2.39,0,0,1-1.2.005,1.659,1.659,0,0,1-1.253-1.384,4.925,4.925,0,0,1,.265-2.613,5.574,5.574,0,0,1,.8-1.555,2.7,2.7,0,0,1,1.84-1.028,2.246,2.246,0,0,1,1.723.438c.118.075.24.168.366.256" transform="translate(-429.882 9.747)" fill="#fff"/>
  <path id="Path_164060" data-name="Path 164060" d="M482.809,19.9c-.123.435-.227.844-.353,1.248a.176.176,0,0,1-.139.094c-1.245.008-2.484.013-3.737,0a.678.678,0,0,1-.689-.908c.128-.6.3-1.2.465-1.8.093-.353.189-.716.3-1.1h-1.525c.075-.259.128-.494.189-.724.053-.2.11-.382.158-.585a.169.169,0,0,1,.189-.144c.417.011.826.011,1.237,0,.056,0,.152-.04.163-.075.123-.419.23-.833.35-1.274h-1.44c.011-.069.016-.12.027-.171.1-.369.206-.735.3-1.111.032-.115.081-.184.222-.166a.85.85,0,0,0,.166,0h5.786c-.027.107-.043.2-.067.278-.083.321-.184.646-.262.967-.037.15-.088.206-.253.2-.689-.011-1.374.005-2.06-.005-.163-.005-.222.051-.262.208-.091.374-.2.753-.3,1.146h2.359c-.011.069-.011.12-.021.171-.1.361-.2.727-.291,1.087a.222.222,0,0,1-.257.2c-.662-.011-1.33.005-1.993-.011-.168,0-.219.061-.259.211-.16.6-.326,1.2-.5,1.8-.088.329,0,.454.344.457.591,0,1.175,0,1.764,0Z" transform="translate(-444.913 18.082)" fill="#fff"/>
  <path id="Path_164061" data-name="Path 164061" d="M478.878,12.414c0,.085,0,.158,0,.238a1.113,1.113,0,0,0,1,1.119,1.73,1.73,0,0,0,1.79-.89,3.9,3.9,0,0,0,.526-2.233,1.088,1.088,0,0,0-.882-1.058,1.63,1.63,0,0,0-1.69.569,3.759,3.759,0,0,0-.743,2.255m.948,2.925a3.043,3.043,0,0,1-1.562-.347A2.412,2.412,0,0,1,477,12.742a5.22,5.22,0,0,1,.868-2.963,4,4,0,0,1,4.5-1.632,2.365,2.365,0,0,1,1.681,2.161,4.922,4.922,0,0,1-1.4,3.922,3.885,3.885,0,0,1-2.821,1.109" transform="translate(-445.131 9.395)" fill="#fff"/>
  <path id="Path_164062" data-name="Path 164062" d="M481.622,15.151h-1.795c.112-.54.211-1.077.315-1.6.347-1.736.7-3.473,1.042-5.206.032-.152.088-.2.23-.192.51.005,1.012,0,1.558,0-.059.315-.115.6-.166.892a.706.706,0,0,1,.067.064.476.476,0,0,1,.072-.15,2.766,2.766,0,0,1,2.981-.852,1.522,1.522,0,0,1,1.042,1.3,4.492,4.492,0,0,1-.16,1.52c-.27,1.357-.545,2.7-.807,4.058-.029.152-.093.187-.232.187-.449-.011-.911,0-1.37,0-.069,0-.139-.013-.232-.019.056-.326.118-.636.176-.946l.705-3.564.011-.059c.1-.708-.211-1.05-.924-1.031a1.7,1.7,0,0,0-1.672,1.453c-.275,1.3-.527,2.6-.783,3.906-.021.069-.038.155-.057.238" transform="translate(-440.407 9.399)" fill="#fff"/>
  <path id="Path_164063" data-name="Path 164063" d="M475.536,8.16c-.062.337-.118.636-.185.978.083-.085.128-.15.182-.2a2.737,2.737,0,0,1,2.893-.841,1.451,1.451,0,0,1,1.106,1.483,11.64,11.64,0,0,1-.243,1.736c-.225,1.21-.481,2.418-.722,3.617-.013.077-.035.139-.053.224h-1.782c.067-.353.131-.684.2-1.023.227-1.122.452-2.252.673-3.374a1.874,1.874,0,0,0,.016-.582.651.651,0,0,0-.6-.617,1.669,1.669,0,0,0-1.88,1.109,10.3,10.3,0,0,0-.329,1.381c-.2.983-.393,1.974-.583,2.957-.021.083-.029.16-.15.16-.547-.005-1.09-.005-1.669-.005.054-.323.115-.628.174-.93.387-1.939.777-3.876,1.157-5.824.037-.192.112-.267.313-.256.486.021.97.005,1.485.005" transform="translate(-452.807 9.397)" fill="#fff"/>
  <path id="Path_164064" data-name="Path 164064" d="M484.8,18.1c-.1.39-.2.753-.31,1.1a.185.185,0,0,1-.139.1c-.841.005-1.68.013-2.524,0a.759.759,0,0,1-.759-.809c0-.633.026-1.28.04-1.913.021-.663.053-1.314.078-1.977.011-.262.011-.262.262-.262h1.792c-.016.294-.029.561-.042.855.221,0,.417.005.617-.005a.292.292,0,0,0,.291-.254c.136-.55.145-.548.719-.548h1.154a9.105,9.105,0,0,1-.444,1.234,1.274,1.274,0,0,1-1.127.663c-.339.021-.681.021-1.018.013-.166,0-.238.04-.229.222.013.39,0,.783,0,1.178,0,.23.077.331.31.366a3.691,3.691,0,0,0,.489.037c.264,0,.529,0,.839,0" transform="translate(-438.328 20.026)" fill="#fff"/>
  <path id="Path_164065" data-name="Path 164065" d="M478.8,8.053c-.075.379-.15.721-.219,1.069-.417,1.915-.836,3.833-1.245,5.759-.03.136-.075.184-.211.184-.526-.011-1.049,0-1.573,0-.053,0-.11-.011-.184-.016.123-.582.24-1.146.363-1.71.363-1.688.722-3.361,1.08-5.049.035-.166.091-.246.286-.243.556.019,1.109.008,1.7.008" transform="translate(-447.856 9.503)" fill="#fff"/>
  <path id="Path_164066" data-name="Path 164066" d="M477.589,14.874c.125-.459.24-.884.363-1.306a.162.162,0,0,1,.136-.072,1.3,1.3,0,0,1,.23-.008.718.718,0,0,0,.649-.369c.224-.382.486-.753.743-1.117a.277.277,0,0,1,.2-.118c.7-.011,1.408-.008,2.113-.005a.707.707,0,0,1,.1.019c-.155.272-.3.529-.464.825h2.778c-.115.443-.227.847-.344,1.248-.014.045-.123.088-.185.088q-1.458.008-2.906,0a.411.411,0,0,0-.382.171,1.491,1.491,0,0,1-1.328.652c-.55-.019-1.1-.008-1.7-.008" transform="translate(-444.148 15.908)" fill="#fff"/>
  <path id="Path_164067" data-name="Path 164067" d="M487.19,11.853c.737,0,1.427,0,2.113,0,.139,0,.139.091.15.187.029.219.059.451.077.673.011.182.112.238.268.24s.3,0,.467,0c-.01.08-.013.136-.024.179-.1.371-.214.735-.312,1.111a.181.181,0,0,1-.195.147c-.562-.008-1.12,0-1.681-.005a.706.706,0,0,1-.775-.724c-.037-.593-.056-1.181-.088-1.806" transform="translate(-428.102 15.863)" fill="#fff"/>
  <path id="Path_164068" data-name="Path 164068" d="M476.023,8.78c.074-.358.149-.708.224-1.066.035-.168.062-.329.109-.492a.191.191,0,0,1,.136-.118c.59-.008,1.175-.005,1.766,0a.313.313,0,0,1,.069.016c-.066.345-.144.689-.211,1.026-.037.182-.072.366-.125.54a.185.185,0,0,1-.133.118c-.588.008-1.173.005-1.761.005-.011,0-.032-.016-.074-.029" transform="translate(-446.766 7.924)" fill="#fff"/>
</svg>
