<svg id="VISA" xmlns="http://www.w3.org/2000/svg" width="80" height="25.836" viewBox="0 0 80 25.836">
  <g id="Group_141424" data-name="Group 141424">
    <path id="Path_164088" data-name="Path 164088" d="M52.62,6.245,45.894,23.251,43.17,8.792a3.011,3.011,0,0,0-2.981-2.547h-11l-.154.727a27.09,27.09,0,0,1,6.377,2.123,2.738,2.738,0,0,1,1.535,2.2L42.1,31.233h6.834L59.411,6.245Zm9.566,0L56.838,31.233H63.3L68.646,6.245ZM99.247,13l1.959,9.381H95.845ZM98.3,6.245a2.938,2.938,0,0,0-2.75,1.833l-9.7,23.155h6.788L93.983,27.5h8.293l.78,3.733h5.979l-5.22-24.988Zm-27.892,7.8c-.041,3.6,3.209,5.6,5.659,6.8,2.521,1.225,3.366,2.01,3.356,3.107-.018,1.677-2.01,2.416-3.872,2.444a13.539,13.539,0,0,1-6.637-1.576L67.742,30.3a19.6,19.6,0,0,0,7.189,1.327c6.791,0,11.232-3.353,11.255-8.549.026-6.6-9.122-6.958-9.058-9.905.021-.9.873-1.849,2.742-2.092a12.16,12.16,0,0,1,6.372,1.117l1.135-5.3a17.424,17.424,0,0,0-6.046-1.107C74.941,5.788,70.446,9.185,70.407,14.047Z" transform="translate(-29.036 -5.788)" fill="#fff" fill-rule="evenodd"/>
  </g>
</svg>
