<svg id="Cyris_Logo" data-name="Cyris Logo" xmlns="http://www.w3.org/2000/svg" width="111.311" height="30" viewBox="0 0 111.311 30">
  <defs>
    <style>
      .cls-1 {
        fill: #fff;
      }

      .cls-2 {
        fill: #30e87a;
      }
    </style>
  </defs>
  <g id="Group_172563" data-name="Group 172563" transform="translate(40.261)">
    <path id="Path_183079" data-name="Path 183079" class="cls-1" d="M422.482,85.77a8.588,8.588,0,0,1-4.374-1.113,7.9,7.9,0,0,1-3.017-3.084,10.129,10.129,0,0,1,0-9.14,7.9,7.9,0,0,1,3.017-3.084,8.588,8.588,0,0,1,4.374-1.113,8.219,8.219,0,0,1,5.179,1.619,7.317,7.317,0,0,1,2.7,4.385h-3.72a3.523,3.523,0,0,0-1.475-2.158,4.894,4.894,0,0,0-5.1-.118,4.77,4.77,0,0,0-1.777,1.922,7.594,7.594,0,0,0,0,6.239,4.888,4.888,0,0,0,1.777,1.939,4.549,4.549,0,0,0,2.413.675,4.648,4.648,0,0,0,2.681-.776,3.534,3.534,0,0,0,1.475-2.192h3.72a7.249,7.249,0,0,1-2.681,4.35,8.172,8.172,0,0,1-5.2,1.652" transform="translate(-414.001 -61.733)"/>
    <path id="Path_183080" data-name="Path 183080" class="cls-1" d="M811.551,89.183V72.45h3.184L815,74.9a8.419,8.419,0,0,1,.543-.9,3.7,3.7,0,0,1,3.038-1.555h2.658v3.339h-.972a6.7,6.7,0,0,0-2.631.49,3.859,3.859,0,0,0-1.843,1.653,6.349,6.349,0,0,0-.687,3.221V89.18Z" transform="translate(-773.63 -65.549)"/>
    <path id="Path_183081" data-name="Path 183081" class="cls-1" d="M939.658,4.357A2.312,2.312,0,0,1,938,3.737a2.185,2.185,0,0,1-.026-3.09L938,.62a2.53,2.53,0,0,1,3.319,0,2.185,2.185,0,0,1,.026,3.09l-.026.026a2.313,2.313,0,0,1-1.659.62M937.882,6.9h3.553V23.526h-3.553Z" transform="translate(-887.432 0)"/>
    <path id="Path_183082" data-name="Path 183082" class="cls-1" d="M599.63,95.44h-2.068V91.887h3.481a.323.323,0,0,0,.294-.19l1.318-2.868-7.036-16.381h3.852l5.1,12.3,5.329-12.3h3.754l-9.415,21.066a3.25,3.25,0,0,1-2.967,1.923Z" transform="translate(-578.29 -65.442)"/>
    <path id="Path_183083" data-name="Path 183083" class="cls-1" d="M1017.55,85.636a8.349,8.349,0,0,1-5.2-1.552,5.815,5.815,0,0,1-2.346-4.113h3.587a3.571,3.571,0,0,0,1.273,1.973,4.037,4.037,0,0,0,2.648.826,3.405,3.405,0,0,0,2.346-.675,2.052,2.052,0,0,0,.737-1.552,1.722,1.722,0,0,0-1.022-1.74,14.261,14.261,0,0,0-2.83-.826,21.344,21.344,0,0,1-2.8-.809,6.174,6.174,0,0,1-2.313-1.433,3.4,3.4,0,0,1-.922-2.513,4.663,4.663,0,0,1,1.676-3.659,6.889,6.889,0,0,1,4.693-1.467,7.114,7.114,0,0,1,4.508,1.349,5.451,5.451,0,0,1,2.028,3.811H1020.2a2.482,2.482,0,0,0-.989-1.686,3.612,3.612,0,0,0-2.2-.607,3.391,3.391,0,0,0-2.078.554,1.72,1.72,0,0,0-.737,1.434,1.538,1.538,0,0,0,1.022,1.383,13.188,13.188,0,0,0,2.7.91,28.738,28.738,0,0,1,3.1.86,5.477,5.477,0,0,1,2.3,1.433,3.944,3.944,0,0,1,.871,2.768,4.689,4.689,0,0,1-1.76,3.811,7.308,7.308,0,0,1-4.874,1.518" transform="translate(-953.15 -61.6)"/>
  </g>
  <path id="Path_183084" data-name="Path 183084" class="cls-2" d="M12.151,34.233A8.26,8.26,0,0,1,4.98,30.1l-3.871-6.68a8.179,8.179,0,0,1,.043-8.3l4.032-6.8a8.188,8.188,0,0,1,7.089-4.048l3.3-.041L18.751,9.7l-6.438.041A2.775,2.775,0,0,0,9.95,11.077l-4.033,6.8a2.767,2.767,0,0,0,0,2.757l3.871,6.679a2.793,2.793,0,0,0,2.4,1.378h.04l5.988-.041L15,34.152ZM26.492,20.548a2.767,2.767,0,0,0,0-2.757L23.518,12.57,18.669,4.235h1.548a8.261,8.261,0,0,1,7.171,4.128l3.868,6.679a8.179,8.179,0,0,1-.04,8.3l-4.033,6.8a8.188,8.188,0,0,1-7.089,4.048H18.262l8.23-13.642" transform="translate(0 -4.233)"/>
</svg>
