<svg xmlns="http://www.w3.org/2000/svg" width="140.4" height="38.029" viewBox="0 0 140.4 38.029">
  <g id="Group_172038" data-name="Group 172038" transform="translate(-382.419 -53.486)">
    <path id="Path_172407" data-name="Path 172407" d="M1266.419,500.5V514.26a2.423,2.423,0,0,1-.71,1.714l-11.795,11.795a2.424,2.424,0,0,1-1.714.71h-22.089a.693.693,0,0,1-.693-.693V505.7a2.422,2.422,0,0,1,.71-1.713l11.795-11.795a2.423,2.423,0,0,1,1.714-.71h21.109a.693.693,0,0,1,.49,1.183l-6.745,6.745h-21.143V520.55h21.143V499.406h6.833a1.1,1.1,0,0,1,1.1,1.1" transform="translate(-847 -437.478)" fill="#30e87a"/>
    <path id="Path_172408" data-name="Path 172408" d="M1383.885,535.863a10.978,10.978,0,0,1-5.565-1.407,10.02,10.02,0,0,1-3.838-3.9,12.737,12.737,0,0,1,0-11.556,10.02,10.02,0,0,1,3.838-3.9,10.978,10.978,0,0,1,5.565-1.407,10.5,10.5,0,0,1,6.588,2.047,9.244,9.244,0,0,1,3.433,5.544h-4.733a4.454,4.454,0,0,0-1.876-2.729,6.259,6.259,0,0,0-6.482-.149,6.043,6.043,0,0,0-2.26,2.43,9.549,9.549,0,0,0,0,7.889,6.194,6.194,0,0,0,2.26,2.452,5.813,5.813,0,0,0,3.07.853,5.94,5.94,0,0,0,3.411-.981,4.467,4.467,0,0,0,1.876-2.772h4.733a9.158,9.158,0,0,1-3.411,5.5,10.44,10.44,0,0,1-6.609,2.089" transform="translate(-940.52 -451.935)" fill="#fff"/>
    <path id="Path_172409" data-name="Path 172409" d="M1511.058,536.306v-21.15h4.051l.335,3.1a10.653,10.653,0,0,1,.691-1.138,4.716,4.716,0,0,1,3.865-1.965h3.382v4.221h-1.237a8.572,8.572,0,0,0-3.347.619,4.9,4.9,0,0,0-2.345,2.089,7.984,7.984,0,0,0-.874,4.072v10.149Z" transform="translate(-1030.32 -452.89)" fill="#fff"/>
    <path id="Path_172410" data-name="Path 172410" d="M1557.656,495.548a2.941,2.941,0,0,1-2.111-.789,2.78,2.78,0,0,1,0-3.965,3.218,3.218,0,0,1,4.222,0,2.78,2.78,0,0,1,0,3.965,2.942,2.942,0,0,1-2.111.789m-2.26,3.236h4.52v21.15h-4.52Z" transform="translate(-1058.735 -436.519)" fill="#fff"/>
    <path id="Path_172411" data-name="Path 172411" d="M1441.226,544.4h-2.631v-4.52h4.428a.411.411,0,0,0,.374-.241l2.319-5.086h-1.236l-8.358-19.4h4.9l6.482,15.65,6.78-15.65h4.776l-11.978,26.8a4.134,4.134,0,0,1-3.774,2.447Z" transform="translate(-981.543 -452.889)" fill="#fff"/>
    <path id="Path_172412" data-name="Path 172412" d="M1589.523,535.863a10.668,10.668,0,0,1-6.609-1.962,7.344,7.344,0,0,1-2.985-5.2h4.563a4.513,4.513,0,0,0,1.62,2.495,5.157,5.157,0,0,0,3.369,1.044,4.351,4.351,0,0,0,2.985-.853,2.588,2.588,0,0,0,.938-1.962,2.176,2.176,0,0,0-1.3-2.2,18.233,18.233,0,0,0-3.6-1.045,27.3,27.3,0,0,1-3.56-1.023,7.862,7.862,0,0,1-2.942-1.812,4.29,4.29,0,0,1-1.173-3.177,5.881,5.881,0,0,1,2.132-4.627,8.8,8.8,0,0,1,5.97-1.855,9.09,9.09,0,0,1,5.735,1.706,6.881,6.881,0,0,1,2.58,4.819h-4.349a3.135,3.135,0,0,0-1.258-2.132,4.615,4.615,0,0,0-2.793-.768,4.333,4.333,0,0,0-2.644.7,2.17,2.17,0,0,0-.938,1.813,1.946,1.946,0,0,0,1.3,1.748,16.851,16.851,0,0,0,3.433,1.151,36.741,36.741,0,0,1,3.944,1.087,6.974,6.974,0,0,1,2.921,1.812,4.967,4.967,0,0,1,1.108,3.5,5.915,5.915,0,0,1-2.239,4.819,9.336,9.336,0,0,1-6.2,1.919" transform="translate(-1075.147 -451.935)" fill="#fff"/>
  </g>
</svg>
