<svg id="Group_172562" data-name="Group 172562" xmlns="http://www.w3.org/2000/svg" width="141" height="38.002" viewBox="0 0 141 38.002">
  <g id="Group_172563" data-name="Group 172563" transform="translate(51)">
    <path id="Path_183079" data-name="Path 183079" d="M424.744,90.448a10.878,10.878,0,0,1-5.541-1.41,10.01,10.01,0,0,1-3.822-3.907,12.831,12.831,0,0,1,0-11.577,10.009,10.009,0,0,1,3.822-3.907,10.878,10.878,0,0,1,5.541-1.41,10.411,10.411,0,0,1,6.56,2.051,9.269,9.269,0,0,1,3.418,5.554h-4.713a4.462,4.462,0,0,0-1.868-2.734,6.2,6.2,0,0,0-6.454-.149,6.042,6.042,0,0,0-2.25,2.434,9.619,9.619,0,0,0,0,7.9,6.192,6.192,0,0,0,2.25,2.457,5.762,5.762,0,0,0,3.057.855,5.888,5.888,0,0,0,3.4-.983,4.476,4.476,0,0,0,1.868-2.777h4.713a9.183,9.183,0,0,1-3.4,5.51,10.352,10.352,0,0,1-6.581,2.093" transform="translate(-414.001 -60)" fill="#fff"/>
    <path id="Path_183080" data-name="Path 183080" d="M811.551,93.646v-21.2h4.034l.334,3.107a10.669,10.669,0,0,1,.688-1.14,4.686,4.686,0,0,1,3.848-1.969h3.367v4.23H822.59a8.486,8.486,0,0,0-3.333.62,4.889,4.889,0,0,0-2.335,2.093,8.042,8.042,0,0,0-.87,4.081V93.643Z" transform="translate(-763.516 -63.708)" fill="#fff"/>
    <path id="Path_183081" data-name="Path 183081" d="M940.275,5.519a2.928,2.928,0,0,1-2.1-.786A2.768,2.768,0,0,1,938.14.819l.033-.033a3.2,3.2,0,0,1,4.2,0,2.768,2.768,0,0,1,.033,3.914l-.033.034a2.93,2.93,0,0,1-2.1.786m-2.25,3.222h4.5V29.8h-4.5Z" transform="translate(-874.119 0)" fill="#fff"/>
    <path id="Path_183082" data-name="Path 183082" d="M600.7,101.573h-2.62v-4.5h4.409a.409.409,0,0,0,.372-.24l1.669-3.633-8.913-20.75H600.5l6.454,15.583L613.7,72.449h4.756L606.531,99.134a4.116,4.116,0,0,1-3.758,2.436Z" transform="translate(-573.669 -63.573)" fill="#fff"/>
    <path id="Path_183083" data-name="Path 183083" d="M1019.562,90.318a10.576,10.576,0,0,1-6.581-1.966,7.366,7.366,0,0,1-2.972-5.209h4.543a4.524,4.524,0,0,0,1.613,2.5,5.113,5.113,0,0,0,3.355,1.046,4.313,4.313,0,0,0,2.972-.855,2.6,2.6,0,0,0,.934-1.966,2.182,2.182,0,0,0-1.294-2.2,18.065,18.065,0,0,0-3.585-1.047A27.034,27.034,0,0,1,1015,79.592a7.82,7.82,0,0,1-2.929-1.815,4.312,4.312,0,0,1-1.168-3.183,5.907,5.907,0,0,1,2.123-4.635,8.726,8.726,0,0,1,5.944-1.858,9.011,9.011,0,0,1,5.71,1.709,6.905,6.905,0,0,1,2.569,4.828h-4.33a3.144,3.144,0,0,0-1.253-2.136,4.575,4.575,0,0,0-2.781-.77,4.3,4.3,0,0,0-2.633.7,2.178,2.178,0,0,0-.934,1.816A1.948,1.948,0,0,0,1016.615,76a16.707,16.707,0,0,0,3.418,1.153,36.405,36.405,0,0,1,3.927,1.089,6.938,6.938,0,0,1,2.909,1.815,5,5,0,0,1,1.1,3.506,5.94,5.94,0,0,1-2.229,4.828,9.257,9.257,0,0,1-6.173,1.923" transform="translate(-937.985 -59.871)" fill="#fff"/>
  </g>
  <path id="Path_183084" data-name="Path 183084" d="M15.392,42.235A10.463,10.463,0,0,1,6.308,37l-4.9-8.462A10.361,10.361,0,0,1,1.46,18.029L6.567,9.414a10.372,10.372,0,0,1,8.98-5.128l4.18-.051,4.026,6.923-8.155.051A3.516,3.516,0,0,0,12.6,12.9L7.5,21.516a3.505,3.505,0,0,0,0,3.492l4.9,8.461a3.538,3.538,0,0,0,3.045,1.746h.051l7.586-.051L19,42.132ZM33.558,24.9a3.505,3.505,0,0,0,0-3.492l-3.767-6.615L23.649,4.235H25.61a10.464,10.464,0,0,1,9.083,5.23l4.9,8.461a10.361,10.361,0,0,1-.051,10.513l-5.109,8.616a10.371,10.371,0,0,1-8.98,5.128h-2.32L33.558,24.9" transform="translate(0 -4.233)" fill="#30e87a"/>
</svg>
