<svg id="_3d-secure_logo" data-name="3d-secure logo" xmlns="http://www.w3.org/2000/svg" width="42.645" height="50" viewBox="0 0 42.645 50">
  <path id="Path_181389" data-name="Path 181389" d="M21.322,50l-.352-.156c-6.182-3.013-10.876-6.26-14.28-9.937A24.542,24.542,0,0,1,0,25.743V5.4l.43-.235A46.336,46.336,0,0,1,21.322,0h0A46.336,46.336,0,0,1,42.214,5.164l.43.235V25.743a24.542,24.542,0,0,1-6.69,14.163c-3.443,3.678-8.1,6.925-14.28,9.937ZM1.6,25.587C2.7,34.937,8.959,42.1,21.322,48.161,33.685,42.1,39.945,34.937,41.041,25.587V6.416A44.95,44.95,0,0,0,21.322,1.682,45.632,45.632,0,0,0,1.6,6.416Z" fill="#fff"/>
  <g id="Group_169670" data-name="Group 169670" transform="translate(10.563 9.155)">
    <path id="Path_181390" data-name="Path 181390" d="M35.607,26.569a3,3,0,0,1-.743,2.074,3.642,3.642,0,0,1-2.074,1.174v.039a4.052,4.052,0,0,1,2.387.939A2.624,2.624,0,0,1,36,32.829a3.532,3.532,0,0,1-1.369,2.934,6.17,6.17,0,0,1-3.873,1.056,9.456,9.456,0,0,1-3.756-.7V33.768a7.985,7.985,0,0,0,3.482.861,3.411,3.411,0,0,0,2-.469,1.742,1.742,0,0,0,.665-1.487,1.281,1.281,0,0,0-.743-1.291,5.264,5.264,0,0,0-2.387-.391h-.978V28.877h1.017a4.637,4.637,0,0,0,2.23-.391,1.432,1.432,0,0,0,.7-1.369c0-.978-.626-1.487-1.839-1.487a4.919,4.919,0,0,0-1.291.2,5.826,5.826,0,0,0-1.487.743l-1.291-1.878A6.948,6.948,0,0,1,31.3,23.4a5.568,5.568,0,0,1,3.208.822A2.933,2.933,0,0,1,35.607,26.569Z" transform="translate(-27 -23.4)" fill="#fff"/>
    <path id="Path_181391" data-name="Path 181391" d="M66.8,30.377a6.433,6.433,0,0,1-1.839,4.93,7.461,7.461,0,0,1-5.282,1.721H56V24h4.069A6.791,6.791,0,0,1,65,25.682,6.1,6.1,0,0,1,66.8,30.377Zm-2.9.078c0-2.778-1.252-4.186-3.717-4.186H58.7v8.49h1.174C62.573,34.759,63.9,33.311,63.9,30.455Z" transform="translate(-44.654 -23.765)" fill="#fff"/>
  </g>
  <g id="Group_169671" data-name="Group 169671" transform="translate(9.898 26.604)">
    <path id="Path_181392" data-name="Path 181392" d="M28.273,71.465a1.215,1.215,0,0,1-.43.978,1.911,1.911,0,0,1-1.252.352,2.626,2.626,0,0,1-1.291-.274v-.9a3.137,3.137,0,0,0,.782.274,3.472,3.472,0,0,0,.587.078.979.979,0,0,0,.509-.117.381.381,0,0,0,.156-.352.556.556,0,0,0-.078-.235.4.4,0,0,0-.235-.2,6.055,6.055,0,0,0-.587-.313,2.166,2.166,0,0,1-.626-.391,1.882,1.882,0,0,1-.352-.43.873.873,0,0,1-.117-.548,1.136,1.136,0,0,1,.43-.939A1.711,1.711,0,0,1,26.9,68.1a3.446,3.446,0,0,1,.665.078,2.259,2.259,0,0,1,.665.235l-.313.743a2.276,2.276,0,0,0-.626-.2,2.342,2.342,0,0,0-.469-.078A.7.7,0,0,0,26.4,69a.381.381,0,0,0-.156.352.556.556,0,0,0,.078.235c.039.078.117.117.2.2a2.842,2.842,0,0,0,.626.313,2.962,2.962,0,0,1,.9.626A1.059,1.059,0,0,1,28.273,71.465Z" transform="translate(-25.3 -68.061)" fill="#fff"/>
    <path id="Path_181393" data-name="Path 181393" d="M37.66,72.777H35V68.2h2.66v.782H35.978V70h1.565v.782H35.978v1.174H37.66Z" transform="translate(-31.205 -68.122)" fill="#fff"/>
    <path id="Path_181394" data-name="Path 181394" d="M45.791,68.822a1.039,1.039,0,0,0-.861.43,1.95,1.95,0,0,0-.313,1.135c0,1.017.391,1.526,1.135,1.526a3.862,3.862,0,0,0,1.174-.235V72.5a3.244,3.244,0,0,1-1.252.235,1.846,1.846,0,0,1-1.526-.626,3.06,3.06,0,0,1-.274-3.013,1.893,1.893,0,0,1,.743-.822A2.123,2.123,0,0,1,45.752,68a3.3,3.3,0,0,1,1.33.313l-.313.782a2.717,2.717,0,0,0-.509-.2A1.681,1.681,0,0,0,45.791,68.822Z" transform="translate(-36.44 -68)" fill="#fff"/>
    <path id="Path_181395" data-name="Path 181395" d="M58.395,68.139v2.973a1.715,1.715,0,0,1-.235.9,1.229,1.229,0,0,1-.665.587,2.617,2.617,0,0,1-1.017.2,1.876,1.876,0,0,1-1.369-.469,1.675,1.675,0,0,1-.509-1.252V68.1h.978v2.817a1.346,1.346,0,0,0,.2.782,1.174,1.174,0,0,0,1.408,0,1.105,1.105,0,0,0,.2-.782V68.1l1.017.039Z" transform="translate(-43.137 -68.061)" fill="#fff"/>
    <path id="Path_181396" data-name="Path 181396" d="M68.078,71.017v1.761H67.1V68.2h1.33a2.129,2.129,0,0,1,1.369.352,1.183,1.183,0,0,1,.43,1.017,1.092,1.092,0,0,1-.235.7,1.632,1.632,0,0,1-.626.509c.7,1.017,1.135,1.682,1.369,2h-1.1l-1.1-1.761Zm0-.782h.313a.979.979,0,0,0,.665-.157.558.558,0,0,0,.235-.469.473.473,0,0,0-.235-.469,1.562,1.562,0,0,0-.7-.157h-.313v1.252Z" transform="translate(-50.746 -68.122)" fill="#fff"/>
    <path id="Path_181397" data-name="Path 181397" d="M80.56,72.777H77.9V68.2h2.66v.782H78.917V70h1.565v.782H78.917v1.174H80.6v.822H80.56Z" transform="translate(-57.321 -68.122)" fill="#fff"/>
  </g>
</svg>
