<svg id="Amex" xmlns="http://www.w3.org/2000/svg" width="50" height="50" viewBox="0 0 50 50">
  <path id="Path_177020" data-name="Path 177020" d="M0,0V50H50V0Z" transform="translate(0 0)" fill="#fff"/>
  <path id="Path_177021" data-name="Path 177021" d="M46.233,32.833,50,36.666V29.048Zm-1.617-6.6L40.6,30.548l-4-4.315H21.033V39.516H32.166V36.633H24.433V34.315h7.583V31.448H24.433V29.116h7.733V26.233L38.383,32.9l-6.217,6.617h4.3l4.05-4.335,4.033,4.335h4.417L42.733,32.85l6.233-6.617Zm-21.3-11.217.667-1.667.667,1.667,1.383,3.365h-4.1ZM21.75,10.5l-5.9,13.333h3.867l1.033-2.568h6.467l1.033,2.568h3.917L26.3,10.5Zm22.6,0-2.567,6.767L41.1,19.1l-.7-1.833L37.816,10.5h-5.65V23.833h3.4V15.15L35.55,13.4l.667,1.75,3.25,8.683H42.7l3.267-8.683.633-1.733V23.833H50V10.5ZM0,0V50H50V42.1H43.1l-2.55-2.983L37.9,42.1H18.3V26.215H11.833l8.083-18.3h7.867l1.9,4.152V7.915H39.45l1.633,4.35,1.6-4.35H50V0Z" fill="#006fcf"/>
</svg>
