<svg id="JCB" xmlns="http://www.w3.org/2000/svg" xmlns:xlink="http://www.w3.org/1999/xlink" width="64.906" height="50" viewBox="0 0 64.906 50">
  <defs>
    <linearGradient id="linear-gradient" y1="0.5" x2="1" y2="0.5" gradientUnits="objectBoundingBox">
      <stop offset="0" stop-color="#522428"/>
      <stop offset="1" stop-color="#c31133"/>
    </linearGradient>
    <linearGradient id="linear-gradient-2" y1="0.5" x2="1" y2="0.5" gradientUnits="objectBoundingBox">
      <stop offset="0" stop-color="#346734"/>
      <stop offset="1" stop-color="#5e9a33"/>
    </linearGradient>
    <linearGradient id="linear-gradient-3" y1="0.5" x2="1" y2="0.5" gradientUnits="objectBoundingBox">
      <stop offset="0" stop-color="#1f265a"/>
      <stop offset="1" stop-color="#005c9f"/>
    </linearGradient>
  </defs>
  <path id="Path_164046" data-name="Path 164046" d="M468.367,39.9a10.1,10.1,0,0,1-10.1,10.1H403.461V10.1A10.1,10.1,0,0,1,413.558,0h54.809V39.9Z" transform="translate(-403.461 0)" fill="#fff"/>
  <g id="Group_141404" data-name="Group 141404" transform="translate(23.559 3.367)">
    <path id="Path_164047" data-name="Path 164047" d="M413.671,44.728h10.78l.072,0,.069,0,.069,0,.069,0,.069,0,.069-.007.069,0,.069-.007.072-.009.069-.007.069-.009.069-.009.069-.012.069-.012.07-.012.069-.012.069-.014.071-.014.069-.014.069-.016.069-.016.069-.016.069-.016.069-.021.069-.018.069-.018.071-.021.069-.021.069-.023.069-.023.069-.023.069-.025.069-.025.069-.025.069-.025.072-.03.069-.028.069-.03.069-.03.069-.03.069-.032.069-.032.069-.035.071-.035.069-.037.069-.037.069-.037.069-.039.069-.039.07-.042.069-.042.069-.044.072-.042.069-.046.069-.046.069-.048.069-.048.069-.048.069-.051.069-.053.072-.053.069-.058.069-.055.069-.058.069-.06.069-.06.069-.062.069-.065.069-.067.071-.067.07-.069.069-.072.069-.074.069-.076.069-.078.069-.081.069-.081.069-.085.072-.088.069-.092.069-.092.069-.1.069-.1.069-.1.069-.108.069-.113.071-.118.069-.122.069-.132.069-.134.07-.145c.023-.048.046-.1.069-.15s.046-.108.069-.164.048-.115.069-.173.048-.127.069-.189.048-.138.071-.208.046-.155.069-.233.046-.178.069-.268q.037-.163.069-.325c.028-.143.051-.286.069-.431a7.664,7.664,0,0,0,.058-.768V1.459h-10.69l-.069,0-.069,0-.069,0-.069,0-.069,0-.069,0-.072,0-.069.007-.069.007-.069.007-.069.009-.069.007-.069.012-.069.009-.069.012-.071.012-.069.012-.069.014-.069.012-.069.016-.069.014-.069.016-.069.016-.069.018-.072.018-.069.018-.069.018-.069.021-.069.021-.069.023-.069.023-.069.023-.072.023-.069.025-.069.025-.069.028-.069.028L418.129,2l-.069.028-.069.032-.069.03-.072.032-.069.032-.069.035-.069.035-.069.035L417.5,2.3l-.069.037-.069.039-.069.037-.072.042-.069.042-.069.044-.069.044-.069.044-.069.046-.069.046-.069.048-.072.051-.069.051-.069.051-.069.053-.069.055-.069.055-.069.058-.069.06-.069.06-.071.062-.069.065-.069.065-.069.067-.069.069-.069.072-.069.074-.069.074-.072.078-.069.078-.069.081-.069.085-.069.085-.069.092-.069.092L415,4.5l-.069.1-.071.1-.069.108-.069.111-.069.118-.069.12-.07.127-.069.134-.069.141c-.025.048-.048.1-.069.15s-.048.1-.071.159-.046.113-.069.171-.046.122-.069.185l-.069.2c-.022.076-.048.15-.069.226s-.048.168-.069.254c-.025.1-.048.2-.069.3a7.148,7.148,0,0,0-.15,1.465v9.442c.048-.042.1-.083.15-.122h0l.069-.055.069-.055.069-.053.069-.051.069-.051.069-.048.071-.046.069-.046.069-.046.069-.044.07-.044.069-.042.069-.042.069-.042.069-.039.071-.037L415,17.21l.069-.037.069-.035.069-.037.069-.035.069-.032.069-.035.069-.032.072-.03.069-.032.069-.03.069-.03.069-.028.069-.03.069-.028.069-.028.071-.025.069-.025.069-.025.069-.025.069-.025.069-.023.069-.023.069-.023.069-.023.072-.023.069-.021.069-.021.069-.021.069-.021.069-.021.069-.018.069-.018.072-.018.069-.018.069-.018.069-.016.069-.018.069-.016.069-.016.069-.016.069-.016.072-.014.069-.016.069-.014.069-.014.069-.014.069-.014.069-.014.069-.012.069-.014.072-.012.069-.012.069-.012.069-.012.069-.012.069-.009.069-.012.069-.009.072-.012.069-.009.069-.009.069-.009.069-.009.069-.007.069-.009.069-.009.069-.007.071-.007.069-.007.069-.009.069-.007.069,0,.069-.007.069-.007.069,0,.069-.007.072,0,.069-.007.069,0,.069,0,.069,0,.069,0,.069,0,.069,0,.071,0,.069,0,.069,0,.069,0,.069,0,.069,0,.07,0,.069,0,.069,0,.072,0,.069,0,.069,0,.069,0h.069l.069,0h.138l.072,0h.485l.069,0h.141l.069,0h.069l.069,0,.069,0h.069l.069,0,.069,0,.072,0,.069,0,.069,0,.069,0,.069,0,.069,0,.069,0h.035l.034,0,.072,0,.069,0,.069,0,.069,0,.069,0,.069,0,.069,0,.069.007.069,0,.072,0,.069.007.069,0,.069.007.069.007.069,0,.069.007.069.007.072.007.069.009.069.007.069.007.069.007.069.009.07.007.069.009.069.009.071.009.069.007.069.009.069.009.069.009.069.009.069.012.069.009.069.009.071.012.069.009.069.012.069.009.069.012.069.012.069.009.069.012.069.012.072.012.069.012.069.012.069.012.069.014.069.012.069.012.069.014.071.012.069.012.069.014.069.014.069.012.069.014.07.014.069.014.069.014.072.014.069.014.069.014.069.014.069.014.069.016.069.014.069.014.072.016.069.014.069.016.069.016.069.014.069.016.069.016.069.016.069.016.071.016.07.016.069.018v3.053l-.069-.035-.07-.035-.071-.035-.069-.035-.069-.032-.069-.035-.069-.032-.069-.032-.069-.032-.069-.032-.069-.032-.072-.03-.069-.032-.069-.03-.069-.03-.069-.03-.069-.03-.069-.028-.069-.03-.072-.028L428,19.046l-.069-.028-.07-.028-.069-.025-.069-.025-.069-.028-.069-.025-.069-.023-.071-.025-.069-.025-.069-.023-.069-.023-.069-.023-.069-.023-.069-.023-.069-.021-.072-.021-.069-.021-.069-.021-.069-.021-.069-.021-.069-.018-.069-.018-.069-.018-.069-.018-.071-.018-.069-.016-.069-.018-.069-.016-.069-.016-.069-.016-.069-.014-.069-.016-.069-.014-.071-.014-.069-.014-.069-.014-.07-.014-.069-.012-.069-.012-.069-.014-.069-.012-.069-.009-.072-.012-.069-.012-.069-.009L424.8,18.2l-.069-.009-.069-.009-.069-.009-.069-.007-.072-.007-.069-.009-.069-.007-.069-.007-.069,0-.069-.007-.069,0-.044,0-.025,0-.069,0-.072,0-.069,0-.069,0-.069,0-.069,0-.069,0-.069,0h-.069l-.072,0H423.2l-.069,0h-.069l-.069,0h-.069l-.069,0-.069,0-.07,0-.071,0-.069,0-.07.007-.069,0-.069.007-.069.007-.069.009-.069.007-.069.009-.072.012-.069.009-.069.012-.069.012-.069.014-.069.012-.069.016-.069.014-.072.016-.069.016-.069.018-.07.018-.069.018-.069.018-.069.023-.069.021-.069.023-.071.023-.069.025-.069.025-.069.028-.069.028-.069.03-.069.03-.069.032-.072.032-.069.035-.069.035-.069.037-.069.039-.069.039-.069.044-.069.044-.069.044-.071.048-.069.048-.069.051-.069.053-.069.055-.069.058-.069.062-.069.062-.069.067-.072.069-.069.074-.069.076-.069.081-.069.085-.069.09-.069.1-.069.1-.072.108-.069.118-.069.125c-.023.046-.046.09-.069.136s-.046.1-.069.15-.049.108-.069.164-.049.122-.069.187-.048.141-.069.212-.049.168-.069.254c-.028.108-.051.219-.072.33-.03.166-.053.337-.069.51-.019.2-.028.411-.028.625s.009.422.028.623c.016.175.039.346.069.51.021.113.044.222.072.33.021.085.043.171.069.254s.044.143.069.212.044.127.069.187.046.111.069.164.046.1.069.15.046.09.069.136l.069.125.069.118.072.108.069.1.069.1.069.09.069.085.069.081.069.076.069.074.072.069.069.065.069.065.069.06.069.058.069.055.069.055.069.051.069.048.071.048.069.044.069.044.069.042.069.042.069.037.069.037.069.037.069.035.072.032.069.032.069.03.069.03.069.028.069.028.069.025.069.023.071.025.069.023.069.021.069.021.069.021.069.018.07.018.069.018.069.016.072.016.069.014.069.014.069.014.069.012.069.012.069.012.069.012.072.009.069.009.069.009.069.007.069.007.069.007.069.007.07,0,.069,0,.071,0,.07,0,.069,0,.069,0,.069,0,.069,0h.279l.069,0h.069l.069,0,.069,0,.069,0,.069,0,.069,0,.072,0,.069,0,.025,0,.044,0,.069,0,.069-.007.069-.007.069-.007.069-.007.069-.007.072-.009.069-.007.069-.009.069-.009.069-.009.069-.009.069-.009.069-.012.072-.012.069-.012.069-.012.069-.012.069-.012.069-.014.07-.012.069-.014.069-.014.071-.016.069-.014.069-.014.069-.016.069-.016.069-.016.069-.016.069-.018.069-.016.071-.018.069-.018.069-.018.069-.018.069-.021.069-.018.069-.021.069-.021.069-.021.072-.021.069-.023.069-.021.069-.023.069-.023.069-.023.069-.025.069-.023.071-.025.069-.023.069-.025.069-.028.069-.025.069-.025.07-.028.069-.028.069-.028.072-.028.069-.028.069-.03.069-.03.069-.028.069-.03.069-.03.069-.032.072-.03.069-.032.069-.03.069-.032.069-.032.069-.032.069-.035.069-.032.069-.035.071-.035.07-.035.069-.032v3.05l-.069.016-.07.016-.071.018-.069.016-.069.016-.069.014-.069.016-.069.016-.069.016-.069.014-.069.016-.072.014-.069.016-.069.014-.069.014-.069.016-.069.014-.069.014-.069.014-.072.014-.069.014-.069.014-.07.014-.069.012-.069.014-.069.014-.069.012-.069.014-.071.012-.069.014-.069.012-.069.012-.069.012-.069.014-.069.012-.069.012-.072.012-.069.012-.069.009-.069.012-.069.012-.069.012-.069.009-.069.012-.069.009-.071.012-.069.009-.069.009-.069.009-.069.012-.069.009-.069.009-.069.007-.069.009-.071.009-.069.009-.069.007-.07.009-.069.007-.069.009-.069.007-.069.007-.069.009-.072.007-.069.007-.069.007-.069,0-.069.007-.069.007-.069,0-.069.007-.072,0-.069,0-.069.007-.069,0-.069,0-.069,0-.069,0-.069,0-.069,0-.072,0-.034,0h-.035l-.069,0-.069,0-.069,0-.069,0-.069,0-.069,0-.072,0-.069,0-.069,0-.069,0h-.069l-.069,0-.069,0h-.139l-.071,0h-.625l-.069,0h-.069l-.069,0h-.069l-.069,0-.069,0h-.069l-.072,0-.069,0-.069,0-.07,0-.069,0-.069,0-.069,0-.069,0-.069,0-.071,0-.069,0-.069,0-.069,0-.069,0-.069,0-.069,0-.069,0-.072-.007-.069,0-.069-.007-.069,0-.069-.007-.069-.007-.069-.007L419.8,30.3l-.069-.007-.071-.009-.069-.007-.069-.009-.069-.007-.069-.009-.069-.009-.069-.009-.069-.009-.069-.009-.072-.009-.069-.012-.069-.009-.069-.012-.069-.012-.069-.012-.069-.012-.069-.012-.072-.012-.069-.014-.069-.012-.069-.014-.069-.014-.069-.014-.069-.014-.069-.014-.069-.014L417.85,30l-.069-.016-.069-.016-.069-.016-.069-.016-.069-.016-.069-.018-.069-.016-.069-.018-.072-.018-.069-.021-.069-.018-.069-.018-.069-.021-.069-.021-.069-.021-.069-.023-.072-.021-.069-.023-.069-.023-.069-.023-.069-.025-.069-.023-.069-.025-.069-.025-.069-.025-.071-.028-.069-.028L415.9,29.4l-.069-.028-.069-.03-.069-.03-.069-.03-.069-.03-.072-.032-.069-.032-.069-.032-.069-.035-.069-.035-.069-.035-.069-.035L415,28.98l-.069-.037-.071-.037-.069-.042-.069-.039-.069-.042-.069-.042-.07-.044-.069-.044-.069-.046-.069-.046-.071-.048-.069-.048-.069-.048-.069-.051-.069-.053-.069-.055-.069-.055c-.051-.042-.1-.081-.15-.125V44.728Z" transform="translate(-413.671 -1.459)" fill="url(#linear-gradient)"/>
  </g>
  <g id="Group_141405" data-name="Group 141405" transform="translate(43.511 3.367)">
    <path id="Path_164048" data-name="Path 164048" d="M425.844,23.97h4.211l.072,0,.069,0,.069,0,.069.007L430.4,24l.069.009.044.009.028,0,.069.018.069.021.069.023.069.028.069.03.071.035.069.037.069.042.069.044.069.051.069.055.069.06.072.069.069.074c.023.028.046.055.069.085s.048.062.069.095a.814.814,0,0,1,.069.111,1.33,1.33,0,0,1,.069.129,1.348,1.348,0,0,1,.072.166,1.745,1.745,0,0,1,.069.235,2.034,2.034,0,0,1,0,.886,1.885,1.885,0,0,1-.069.238,1.484,1.484,0,0,1-.072.164c-.021.044-.044.088-.069.132a1.251,1.251,0,0,1-.069.111c-.021.032-.046.065-.069.095s-.046.058-.069.083l-.069.076-.072.067-.069.06-.069.055-.069.051-.069.044-.069.042-.069.037-.071.035-.069.03-.069.025-.069.023-.069.021-.069.018-.028,0-.044.009-.069.012-.069.007-.069.007-.069.007-.069,0-.072,0h-4.211v-3.8Zm-3.525,20.758h10.767l.034,0,.069,0,.069,0,.069,0,.069,0,.069,0,.072,0,.069-.007.069-.007.069-.009.069-.007.069-.009.071-.012.069-.009.069-.012.069-.012.069-.014.069-.014.072-.014.069-.014.069-.016.069-.016.069-.016.069-.018.071-.018.069-.018.069-.021.069-.021.069-.021.069-.023.072-.023.069-.025.069-.023.069-.025.069-.028.071-.025.07-.03.069-.028.069-.03.069-.03.069-.032.071-.032.069-.032.069-.035.069-.035.069-.037.07-.037.071-.039.069-.039.069-.039.069-.042.069-.042.069-.044.069-.044.072-.046.069-.046.069-.048.069-.048.069-.053.071-.051.069-.053.069-.053.069-.058.069-.055.069-.06.071-.06.069-.062.069-.062.069-.065.069-.067.069-.069.072-.069.069-.074.069-.074.069-.076.069-.078.069-.083.071-.083.069-.085.069-.09.069-.092.069-.095.069-.1.072-.1.069-.106.069-.111.069-.115.069-.12.07-.125.071-.132.069-.141.069-.148c.023-.051.046-.1.069-.157l.069-.166c.025-.06.049-.12.069-.18s.048-.132.071-.2.046-.145.069-.219l.069-.247c.025-.095.048-.192.069-.288.025-.12.048-.24.069-.362.03-.182.053-.365.069-.551s.025-.353.028-.533V1.459H429.429l-.069,0h-.071l-.069,0-.069,0-.069,0-.069,0-.072,0-.069.007-.069,0-.069.009-.069.007-.069.009-.069.009-.071.009-.069.012-.069.012-.069.012-.069.014-.069.014-.072.014-.069.014-.069.016-.069.016-.069.018-.071.018-.07.018-.069.018-.069.021-.069.021-.069.021-.071.023-.069.023-.069.025-.069.023-.069.028-.069.025-.071.028L426.783,2l-.069.03-.069.03-.069.03-.069.032-.072.032-.069.035-.069.035-.069.035-.069.037-.069.037-.072.039-.069.039-.069.039-.069.042-.069.044-.069.044-.072.044-.069.046-.069.046-.069.048-.069.051-.069.051-.072.051-.069.053-.069.055-.069.055-.069.058-.069.06-.072.06-.069.062-.069.065-.069.065-.069.067-.069.069-.071.072-.069.074-.069.074-.069.078-.069.078L424,4.041l-.072.085-.069.085-.069.092-.069.092-.069.095-.069.1-.071.1-.069.108-.069.111-.069.118-.069.12-.069.127-.072.134-.069.141c-.023.051-.046.1-.069.15l-.069.159c-.023.055-.046.113-.069.171s-.048.122-.069.185-.049.134-.072.2l-.069.224c-.022.083-.048.168-.069.254-.025.1-.048.2-.069.3a7.3,7.3,0,0,0-.15,1.412V16.16h10.243l.069,0h.072l.069,0,.069,0,.069,0,.069,0,.069,0,.071,0,.069,0,.042,0,.028,0,.069,0,.069,0,.069,0,.072.007.069.007.069.007.069.009.069.009.069.009.071.009.069.012.069.014.069.012.069.014.069.016.072.016.069.016.069.018.069.018.069.018.069.021.071.023.069.021.069.025.069.025.069.025.069.028.072.03.069.03.069.03.069.035.069.035.071.037.07.039.069.039.069.042.069.046.069.046.071.048.069.051.069.055.069.058.069.06.07.065.071.067.069.074.069.078.069.083.069.09a.987.987,0,0,1,.069.1,1.032,1.032,0,0,1,.069.108c.025.039.049.078.072.12s.046.09.069.136.048.1.069.157.049.125.069.189a2.3,2.3,0,0,1,.069.247,3.551,3.551,0,0,1,.071.42c.009.115.017.231.017.351s-.007.224-.017.335a3.517,3.517,0,0,1-.071.413,2.257,2.257,0,0,1-.069.245c-.021.065-.044.129-.069.192s-.044.106-.069.159l-.069.138c-.023.039-.046.081-.072.122s-.044.074-.069.111l-.069.1-.069.092-.069.088-.069.078-.069.076-.071.072-.07.067-.069.062-.069.06-.069.055-.069.055-.071.051-.069.048-.069.044-.069.044-.069.042-.07.042-.071.037-.069.037-.069.032-.069.035-.069.03-.072.03-.069.028L435,22.6l-.069.025-.069.023-.069.023-.071.023-.069.018-.069.021-.069.018-.069.016-.069.016-.072.016-.069.014-.069.014-.069.012-.069.012-.065.012v.083l.065,0,.069,0,.069.007.069.007.069.009.072.009.069.009.069.009.069.012.069.012.069.012.071.014.069.014.069.016L435,23.1l.069.018.069.016.072.018.069.021.069.021.069.021.069.023.071.023.07.023.069.025.069.028.069.028.069.03.071.03.069.032.069.032.069.035.069.037.07.037.071.039.069.042.069.042.069.046.069.046.069.048.069.051.072.055.069.055.069.06.069.062.069.065.071.069.069.076.069.078.069.085.069.09a1.084,1.084,0,0,1,.069.1c.025.037.048.072.071.108l.069.118c.023.044.046.088.069.134s.048.1.069.15.048.12.069.182a2.276,2.276,0,0,1,.069.228,3.2,3.2,0,0,1,.072.351,3.64,3.64,0,0,1,.03.45,3.869,3.869,0,0,1-.03.464,3.459,3.459,0,0,1-.072.365,2.038,2.038,0,0,1-.069.238c-.021.062-.044.125-.069.185s-.044.106-.069.159-.046.092-.069.136-.046.083-.069.122a1.273,1.273,0,0,1-.071.111,1.164,1.164,0,0,1-.069.1l-.069.092-.069.088-.069.083-.069.076-.071.072-.069.069-.069.065-.069.062-.069.058-.072.055-.069.053-.069.051-.069.048-.069.046-.069.044-.069.042-.071.042-.07.039-.069.037-.069.035-.069.035-.069.032-.071.032-.069.03-.069.028-.069.028-.069.025-.07.025-.071.025-.069.021-.069.023-.069.021-.069.018-.072.021-.069.016-.069.018-.069.016-.069.014-.069.014-.071.014-.069.012-.069.012-.069.012-.069.012-.069.009-.072.007-.069.009-.069.007-.069,0-.069.007-.069,0-.071,0-.069,0-.069,0-.069,0-.069,0H422.318v14.7Zm9.13-25.063a1.874,1.874,0,0,1-.069,1.048,1.185,1.185,0,0,1-.071.159,1.042,1.042,0,0,1-.069.125,1,1,0,0,1-.069.106l-.069.09-.069.078-.069.069-.071.062-.069.055-.069.051-.069.044-.069.042-.069.037-.072.032-.069.028-.069.028-.069.021-.069.021-.069.016-.069.014-.019,0-.053.009-.069.007-.069.007-.069,0-.069,0h-3.865v-3.51h3.865l.069,0,.069,0,.069.007.069.007.053.007.019,0,.069.014.069.018.069.018.069.023.069.025.069.03.072.032.069.037.069.042.069.044.069.051.069.055.071.062.069.069.069.078.069.09a1,1,0,0,1,.069.106,1.042,1.042,0,0,1,.069.125,1.331,1.331,0,0,1,.071.159,1.886,1.886,0,0,1,.069.238Z" transform="translate(-422.318 -1.459)" fill="url(#linear-gradient-2)"/>
  </g>
  <path id="Path_164049" data-name="Path 164049" d="M405.174,26.555l-.15-.072V8.67a7.148,7.148,0,0,1,.15-1.465c.021-.1.044-.2.069-.3s.044-.171.069-.256.044-.15.069-.224.046-.134.069-.2l.069-.185c.023-.058.046-.113.069-.171l.069-.159.071-.148.069-.141.07-.134.069-.127.069-.122.069-.115.069-.113.069-.106.069-.1.072-.1.069-.095.069-.095.069-.09.069-.085.069-.085.069-.083.069-.078.069-.076.072-.076.069-.072.069-.072.069-.069.069-.067.069-.065.069-.065.069-.062.071-.06.069-.06.07-.058.069-.055.069-.055.069-.053.069-.053.069-.048.07-.051.072-.048.069-.046.069-.046.069-.046.07-.042.069-.044.069-.042.069-.042.069-.039.072-.037.069-.037.069-.037L409,2.225l.069-.035.069-.032.069-.032.069-.032.071-.03.069-.032L409.482,2l.069-.028.069-.028.069-.028.069-.025.069-.025.069-.025.072-.023.069-.021.069-.023.069-.021.069-.021.069-.018.069-.018.069-.018.069-.018.072-.016.069-.016.069-.014L410.8,1.6l.069-.012.069-.014.069-.012.069-.012.069-.012.071-.009.069-.012.069-.007.069-.009L411.5,1.5l.069-.007.069-.007.069,0,.072,0,.069,0,.069,0,.069,0,.069,0,.069,0h10.69V37.517a7.712,7.712,0,0,1-.058.928c-.021.145-.044.291-.072.434-.021.108-.044.217-.069.323-.021.09-.044.18-.069.268s-.044.157-.069.233-.046.138-.07.208-.046.127-.069.189l-.069.173-.069.164-.069.152-.071.143-.069.136-.069.129-.069.122-.069.118-.069.113-.069.108-.069.1-.07.1-.071.1-.069.095-.069.09-.069.088-.069.085-.069.083-.069.078-.069.078-.071.076-.069.074-.069.072-.069.069-.069.067-.069.067-.069.065-.069.062-.069.06-.071.06-.069.058-.069.058-.069.055-.069.053-.069.053-.069.051-.069.048-.069.048-.072.048-.069.046-.069.046-.069.044-.069.042-.069.042-.069.042-.069.039-.069.039-.072.037-.069.037-.069.037-.069.035-.069.035-.069.032-.069.032-.069.03-.071.03-.069.03-.069.028-.069.03-.069.025-.069.028-.069.023-.069.025-.069.023-.071.023-.069.023-.069.021-.069.021-.07.018-.069.021-.069.018-.069.016-.069.016-.072.016-.069.016-.069.014-.069.014-.069.014-.069.012-.069.012-.069.012-.071.012-.069.009-.069.009-.069.007-.069.009-.069.007-.069,0-.069.007-.069,0-.071,0-.07,0-.069,0-.069,0h-.069l-.069,0H405.024v-15.2l.15.039.069.016.069.018.069.016.069.016.069.016.069.016.069.016.071.016.069.014.07.016.069.014.069.014.069.016.069.014.069.014.069.014.072.014.069.014.069.014.069.012.069.014.069.014.069.012.069.012.069.014.072.012.069.012.069.012.069.014.069.012.069.009.069.012.069.012.071.012.069.012.07.009.069.012.069.009.069.012.069.009.069.009.07.009.072.012.069.009.069.009.069.009.07.009.069.007.069.009.069.009.069.007.072.009.069.007.069.009.069.007.069.009.069.007.069.007.069.007.071.007.069.007.069.007.069.007.069.007.069,0,.069.007.069.007.069,0,.072.007.069,0,.069,0,.069.007.069,0,.069,0,.069,0,.069,0,.069,0,.072,0,.069,0,.069,0,.069,0,.069,0,.069,0,.069,0,.069,0,.069,0,.071,0,.069,0,.069,0,.069,0,.069,0,.069,0,.069,0h.069l.072,0,.069,0h.069l.069,0h.069l.069,0h.556l.069,0h.069l.069,0h.07l.072,0h.069l.07,0,.069,0,.069,0,.069,0,.069,0,.069,0,.069,0,.072,0,.069,0,.069,0,.069,0,.069,0,.069,0,.069-.007.069,0,.072,0,.07,0,.069-.007.069-.007.069,0,.069-.007.069-.007.069-.007.07-.007.072-.009.069-.007.069-.009.07-.007.069-.009.069-.009.069-.009.069-.009.069-.012.072-.009.069-.012.069-.012.07-.012.069-.012.069-.012.069-.012.069-.014.07-.014.071-.014.069-.014.069-.014.069-.014.069-.016.069-.016.069-.016.069-.016.069-.016.071-.018.069-.018.069-.018.069-.018.069-.018.069-.021.069-.021.069-.021.072-.023.069-.021.069-.023.069-.023.069-.023.07-.025.069-.025.069-.025.069-.028.071-.028.069-.028.069-.03.069-.03.069-.03.069-.032.069-.032.069-.032.069-.035.071-.035.069-.037.069-.037.069-.039.069-.039.069-.039.069-.042.069-.044.072-.044.069-.046.069-.048.069-.048.069-.051.069-.051.069-.055.069-.055.069-.058.072-.06.069-.062.069-.065.069-.069.069-.069.069-.074.069-.076.069-.081.069-.083.071-.09.069-.092.069-.1.069-.1.069-.111.069-.12a1.347,1.347,0,0,0,.069-.127c.025-.046.048-.092.069-.138s.048-.1.069-.152.048-.111.071-.166l.069-.187c.023-.072.046-.145.069-.217s.049-.171.069-.258c.026-.106.048-.217.069-.325q.045-.246.069-.5c.023-.235.034-.475.034-.718V16.16h-6.2v8.369c0,.129,0,.258-.016.385a3.881,3.881,0,0,1-.069.471q-.031.142-.07.277c-.021.074-.044.145-.069.215s-.046.118-.069.175-.046.1-.072.152a1.444,1.444,0,0,1-.07.136c-.021.039-.044.081-.069.12l-.069.111-.069.1-.069.095-.069.085-.069.078-.07.076-.072.072-.069.065L414,27.2l-.069.058-.069.055-.069.053-.069.048-.069.048-.072.044-.069.042-.069.039-.069.039-.069.035-.069.035-.069.032-.07.03-.069.028-.072.028-.07.025-.069.023-.069.023-.069.021-.069.021-.069.018-.069.016-.069.016-.072.016-.069.014-.069.012-.069.012-.069.012-.069.009-.069.009-.069.007-.069.007-.072.007-.069,0-.069,0-.069,0-.069,0h-.069l-.069,0h-.141l-.069,0-.069,0h-.069l-.069,0-.069,0-.069,0-.069,0-.069,0-.072,0-.069,0-.069-.007-.069,0-.069-.007-.069-.007-.069-.007-.069-.007-.069-.009-.072-.007-.069-.009L409.759,28l-.069-.009-.069-.012-.069-.009-.069-.012-.069-.012-.069-.012-.071-.012-.069-.012-.069-.014-.069-.014L409,27.868l-.069-.014-.069-.014-.069-.014-.072-.016-.069-.016-.069-.016-.069-.016-.069-.016-.07-.018-.069-.016-.069-.018-.069-.018-.072-.018-.07-.018-.069-.021-.069-.018-.069-.021-.069-.021-.069-.021-.07-.021-.069-.023-.071-.021-.069-.023-.069-.023-.069-.023-.069-.023-.069-.023-.069-.025-.069-.023-.072-.025-.069-.025-.069-.025-.069-.025-.069-.028-.069-.025-.069-.028-.069-.028-.069-.025-.072-.03-.069-.028-.069-.028-.069-.03-.069-.028-.069-.03-.069-.03-.07-.03-.069-.03-.071-.032-.069-.03-.069-.032-.069-.03-.069-.032-.069-.032-.069-.032-.069-.032Z" transform="translate(-401.417 1.908)" fill="url(#linear-gradient-3)"/>
</svg>
