<svg id="linkedin" xmlns="http://www.w3.org/2000/svg" width="20" height="20" viewBox="0 0 20 20">
  <path id="linkedin-rect" d="M3.926.009A3.931,3.931,0,0,0,.007,3.928V16.09a3.93,3.93,0,0,0,3.92,3.918H16.089a3.93,3.93,0,0,0,3.918-3.918V3.928A3.931,3.931,0,0,0,16.089.009Zm.986,3.3a1.575,1.575,0,1,1-.02,3.14H4.872a1.574,1.574,0,1,1,.039-3.14Zm8.906,4.168c1.988,0,3.477,1.3,3.477,4.091v5.211h-3.02V11.917c0-1.222-.437-2.055-1.53-2.055a1.654,1.654,0,0,0-1.55,1.1,2.062,2.062,0,0,0-.1.737v5.075H8.074s.039-8.236,0-9.088h3.021V8.978a3,3,0,0,1,2.722-1.5ZM3.382,7.691H6.4v9.088H3.382V7.691Z" transform="translate(-0.007 -0.009)" fill="#778cac"/>
</svg>
