<svg id="Maestro" xmlns="http://www.w3.org/2000/svg" width="64.282" height="50" viewBox="0 0 64.282 50">
  <path id="Path_164033" data-name="Path 164033" d="M328.721,25.419v.129h.12a.116.116,0,0,0,.066-.016.062.062,0,0,0,0-.1.146.146,0,0,0-.066-.014Zm.123-.093a.215.215,0,0,1,.142.041.139.139,0,0,1,.052.115.126.126,0,0,1-.041.1.186.186,0,0,1-.115.049l.159.183h-.123l-.148-.181h-.049v.181h-.1v-.487Zm-.033.654a.383.383,0,0,0,.159-.033.377.377,0,0,0,.129-.085.424.424,0,0,0,.088-.131.443.443,0,0,0,.03-.159.432.432,0,0,0-.03-.159.424.424,0,0,0-.088-.131.389.389,0,0,0-.287-.118.458.458,0,0,0-.162.03.428.428,0,0,0-.129.088.423.423,0,0,0-.088.131.43.43,0,0,0-.03.159.441.441,0,0,0,.03.159.423.423,0,0,0,.088.131.376.376,0,0,0,.129.085.406.406,0,0,0,.162.033Zm0-.934a.532.532,0,0,1,.208.041.518.518,0,0,1,.17.115.5.5,0,0,1,.115.164.528.528,0,0,1,.041.205.505.505,0,0,1-.041.2.538.538,0,0,1-.115.167.556.556,0,0,1-.17.112.532.532,0,0,1-.208.041.546.546,0,0,1-.211-.041.555.555,0,0,1-.17-.112.583.583,0,0,1-.115-.167.5.5,0,0,1-.041-.2.527.527,0,0,1,.041-.205.536.536,0,0,1,.115-.164.517.517,0,0,1,.17-.115.546.546,0,0,1,.211-.041Zm-7.935-4.633a2.391,2.391,0,0,1,.816.145l-.351,1.079a1.892,1.892,0,0,0-.717-.131c-.75,0-1.125.485-1.125,1.355v2.952h-1.145V20.548h1.134v.638a1.556,1.556,0,0,1,1.388-.772Zm-3.965,1.18h-1.873v2.379c0,.528.186.882.758.882a2.131,2.131,0,0,0,1.016-.3l.329.98a2.7,2.7,0,0,1-1.432.408c-1.355,0-1.829-.728-1.829-1.952v-2.4h-1.068V20.548h1.068v-1.6h1.158v1.6h1.873v1.046Zm-5.506.3a3.389,3.389,0,0,0-1.643-.452c-.63,0-1,.23-1,.616,0,.353.394.452.893.518l.539.077c1.145.167,1.84.652,1.84,1.577,0,1-.882,1.72-2.4,1.72a3.813,3.813,0,0,1-2.284-.685l.542-.893a2.8,2.8,0,0,0,1.752.55c.78,0,1.2-.23,1.2-.638,0-.3-.3-.463-.925-.55l-.539-.077c-1.18-.167-1.818-.7-1.818-1.555,0-1.046.86-1.687,2.193-1.687a3.94,3.94,0,0,1,2.149.553l-.5.925Zm-8.751.824a1.354,1.354,0,0,1,1.4-1.276,1.307,1.307,0,0,1,1.333,1.276Zm3.924.463a2.527,2.527,0,0,0-2.5-2.765,2.576,2.576,0,0,0-2.623,2.765,2.6,2.6,0,0,0,2.7,2.768,3.2,3.2,0,0,0,2.16-.739l-.561-.849a2.5,2.5,0,0,1-1.533.55,1.46,1.46,0,0,1-1.574-1.287h3.913c.011-.145.022-.287.022-.444Zm18.288-1.687a1.709,1.709,0,0,0-.655.123,1.528,1.528,0,0,0-.523.345,1.651,1.651,0,0,0-.348.534,1.932,1.932,0,0,0,0,1.372,1.61,1.61,0,0,0,.348.531,1.5,1.5,0,0,0,.523.348,1.709,1.709,0,0,0,.655.123,1.729,1.729,0,0,0,.654-.123,1.587,1.587,0,0,0,.526-.348,1.611,1.611,0,0,0,.348-.531,1.93,1.93,0,0,0,0-1.372,1.652,1.652,0,0,0-.348-.534,1.623,1.623,0,0,0-.526-.345,1.729,1.729,0,0,0-.654-.123Zm0-1.084a3.01,3.01,0,0,1,1.131.211,2.8,2.8,0,0,1,.9.583,2.709,2.709,0,0,1,.594.879,2.936,2.936,0,0,1,0,2.2,2.709,2.709,0,0,1-.594.879,2.8,2.8,0,0,1-.9.583,3.138,3.138,0,0,1-2.262,0,2.663,2.663,0,0,1-1.49-1.462,2.807,2.807,0,0,1,.591-3.078,2.765,2.765,0,0,1,.9-.583,3,3,0,0,1,1.131-.211Zm-28.791,2.771a1.6,1.6,0,1,1,1.6,1.687,1.58,1.58,0,0,1-1.6-1.687Zm4.266,0V20.548h-1.147v.638a2,2,0,0,0-1.662-.772,2.638,2.638,0,0,0-2.634,2.765,2.639,2.639,0,0,0,2.634,2.768,2,2,0,0,0,1.662-.772v.638h1.147V23.179Zm-6.459,2.634v-3.3a1.96,1.96,0,0,0-2.07-2.095,2.042,2.042,0,0,0-1.851.936,1.937,1.937,0,0,0-1.741-.936,1.745,1.745,0,0,0-1.544.783v-.649h-1.145v5.265h1.155V22.895a1.232,1.232,0,0,1,1.29-1.4c.761,0,1.147.5,1.147,1.388v2.93h1.156V22.895a1.243,1.243,0,0,1,1.289-1.4c.783,0,1.158.5,1.158,1.388v2.93Z" transform="translate(-274.45 23.905)" fill="#fff"/>
  <path id="Path_164034" data-name="Path 164034" d="M307.43,36.085H290.048V4.849H307.43V36.085Z" transform="translate(-266.598 -0.602)" fill="#5b60a2"/>
  <path id="Path_164035" data-name="Path 164035" d="M306.036,23.163a19.832,19.832,0,0,1,7.59-15.618,19.865,19.865,0,1,0,0,31.236,19.824,19.824,0,0,1-7.59-15.618Z" transform="translate(-281.484 -3.298)" fill="#d8181d"/>
  <path id="Path_164036" data-name="Path 164036" d="M305.8,15.539v-.772h-.2l-.233.531-.23-.531h-.2v.772h.142v-.58l.216.5h.148l.216-.5v.583Zm-1.273,0V14.9h.257V14.77h-.657V14.9h.257v.641Z" transform="translate(-242.136 16.636)" fill="#0092d3"/>
  <path id="Path_164037" data-name="Path 164037" d="M325.363,23.163a19.864,19.864,0,0,1-32.14,15.618,19.868,19.868,0,0,0,0-31.236,19.864,19.864,0,0,1,32.14,15.618Z" transform="translate(-261.081 -3.298)" fill="#0092d3"/>
</svg>
