<svg id="MC" xmlns="http://www.w3.org/2000/svg" width="65.007" height="40.177" viewBox="0 0 65.007 40.177">
  <path id="Path_164043" data-name="Path 164043" d="M245.475,36.424H227.9V4.837h17.578V36.424Z" transform="translate(-204.183 -0.542)" fill="#e15218"/>
  <path id="Path_164044" data-name="Path 164044" d="M244.163,23.376a20.062,20.062,0,0,1,7.673-15.795,20.088,20.088,0,1,0,0,31.587,20.053,20.053,0,0,1-7.673-15.792" transform="translate(-219.333 -3.286)" fill="#d7111d"/>
  <path id="Path_164045" data-name="Path 164045" d="M262.946,35.823v-.778h-.2l-.235.534-.233-.534h-.2v.778h.144v-.59l.219.51h.15l.219-.51v.59Zm-1.288,0v-.648h.26v-.13h-.665v.13h.26v.648Zm1.916-12.45a20.089,20.089,0,0,1-32.5,15.795,20.09,20.09,0,0,0,0-31.587,20.089,20.089,0,0,1,32.5,15.792" transform="translate(-198.568 -3.286)" fill="#ef8d0f"/>
</svg>
