<svg xmlns="http://www.w3.org/2000/svg" width="15" height="15.929" viewBox="0 0 15 15.929">
  <g id="Group_161857" data-name="Group 161857" transform="translate(-1349 -6854.61)">
    <path id="Path_177062" data-name="Path 177062" d="M6.607,1A3.007,3.007,0,0,0,4,2.512l-2,3.5A3.012,3.012,0,0,0,2,8.988l2,3.5A3.007,3.007,0,0,0,6.607,14h3.929a3.007,3.007,0,0,0,2.6-1.512l2-3.5a3.012,3.012,0,0,0,0-2.977l-2-3.5A3.007,3.007,0,0,0,10.536,1H6.607m0-1h3.929a4,4,0,0,1,3.473,2.015l2,3.5a4,4,0,0,1,0,3.969l-2,3.5A4,4,0,0,1,10.536,15H6.607a4,4,0,0,1-3.473-2.015l-2-3.5a4,4,0,0,1,0-3.969l2-3.5A4,4,0,0,1,6.607,0Z" transform="translate(1349 6871.146) rotate(-90)" fill="#fff"/>
    <path id="Path_177059" data-name="Path 177059" d="M9.625,11.314a.322.322,0,0,1-.161-.043L4.963,8.7a.323.323,0,0,1,0-.561l2.412-1.4a.325.325,0,0,1,.324,0L9.651,7.867,11.59,6.754a.322.322,0,0,1,.322,0L14.3,8.116a.324.324,0,0,1,0,.562L9.787,11.271a.334.334,0,0,1-.162.042" transform="translate(1346.869 6851.47)" fill="#30e87a"/>
  </g>
</svg>
